<?xml version="1.0" standalone="no"?>
<!DOCTYPE svg PUBLIC "-//W3C//DTD SVG 1.1//EN" "http://www.w3.org/Graphics/SVG/1.1/DTD/svg11.dtd" >
<svg xmlns="http://www.w3.org/2000/svg" xmlns:xlink="http://www.w3.org/1999/xlink" version="1.1">
<metadata>
Created by FontForge 20170731 at Thu Feb 16 20:26:30 2017
 By Aleksey,,,
Copyright (c) 2013-2015 Gall Productions Pvt. Ltd (http://www.sticknobillsonline.com) Copyright (c) 2015 mooniak (http://mooniak.com)
</metadata>
<defs>
<font id="PostNoBillsJaffna-Bold" horiz-adv-x="476" >
  <font-face 
    font-family="Post No Bills Jaffna"
    font-weight="700"
    font-stretch="normal"
    units-per-em="1024"
    panose-1="2 0 8 3 0 0 0 0 0 0"
    ascent="819"
    descent="-205"
    x-height="554"
    cap-height="700"
    bbox="-176 -592 2137 1208"
    underline-thickness="0"
    underline-position="0"
    unicode-range="U+0020-FB02"
  />
<missing-glyph horiz-adv-x="631" 
d="M50 -93v847h531v-847h-531zM262 128q0 26 24 35q6 2 12 2q25 0 34 -25q2 -6 2 -12q0 -25 -23 -34q-7 -2 -13 -2q-25 0 -34 23q-2 7 -2 13zM137 658v-662h356v662h-356zM200 465q46 56 110 57q80 0 110 -66q12 -27 13 -58q0 -87 -71 -118q-19 -8 -33 -8v-84h-61v137
q77 1 95 31q9 16 9 41q0 44 -38 60q-13 5 -27 5q-41 -1 -68 -37z" />
    <glyph glyph-name="fi" unicode="fi" horiz-adv-x="494" 
d="M38 411h63v-411h98v411h119v-411h98v504h-217v48q0 44 40 50h4h26l22 94h-47q-84 -1 -125 -79q-18 -35 -18 -65v-47h-63v-94zM306 616q0 -36 32 -52q14 -7 28 -7q36 0 53 32q7 13 7 27q0 36 -32 53q-14 7 -28 7q-36 0 -53 -32q-7 -14 -7 -28z" />
    <glyph glyph-name="fl" unicode="fl" horiz-adv-x="434" 
d="M38 411h63v-411h98v411h65v94l-65 -1v48q0 25 18 40q12 9 28 10h75v-602h101v696h-177q-84 -1 -125 -79q-18 -35 -18 -65v-47h-63v-94z" />
    <glyph glyph-name=".notdef" horiz-adv-x="631" 
d="M50 -93v847h531v-847h-531zM262 128q0 26 24 35q6 2 12 2q25 0 34 -25q2 -6 2 -12q0 -25 -23 -34q-7 -2 -13 -2q-25 0 -34 23q-2 7 -2 13zM137 658v-662h356v662h-356zM200 465q46 56 110 57q80 0 110 -66q12 -27 13 -58q0 -87 -71 -118q-19 -8 -33 -8v-84h-61v137
q77 1 95 31q9 16 9 41q0 44 -38 60q-13 5 -27 5q-41 -1 -68 -37z" />
    <glyph glyph-name=".null" horiz-adv-x="0" 
 />
    <glyph glyph-name="nonmarkingreturn" horiz-adv-x="341" 
 />
    <glyph glyph-name="space" unicode=" " horiz-adv-x="240" 
 />
    <glyph glyph-name="exclam" unicode="!" horiz-adv-x="212" 
d="M45 44q0 38 34 55q13 7 27 7q38 0 55 -34q6 -14 6 -28q0 -38 -35 -54q-13 -6 -26 -6q-39 0 -55 34q-6 13 -6 26zM55 166v534h103v-534h-103z" />
    <glyph glyph-name="quotedbl" unicode="&#x22;" horiz-adv-x="340" 
d="M42 465v271h102v-271h-102zM197 465v271h102v-271h-102z" />
    <glyph glyph-name="numbersign" unicode="#" horiz-adv-x="752" 
d="M31 188l20 97h149l23 131h-158l17 97h158l29 169h98l-30 -170h129l29 170h98l-30 -170h150l-16 -97l-151 1l-23 -132h155l-15 -97l-157 1l-29 -166h-97l29 166h-129l-29 -166h-98l30 166h-152zM297 285l129 -1l23 132h-129z" />
    <glyph glyph-name="dollar" unicode="$" horiz-adv-x="493" 
d="M26 158l101 36q8 -65 72 -90l11 -4v-147h-59v56q-69 24 -107 93q-17 31 -18 56zM34 510q0 106 92 161q13 8 25 13v66h59v-155q-31 -5 -54 -36q-15 -22 -15 -47q1 -50 69 -77v-120q-35 11 -53 19q-84 37 -108 95q-15 35 -15 81zM262 -47v147q38 2 68 36q25 30 25 69
q0 57 -78 87q-7 2 -15 5v117q46 -13 77 -28q87 -43 113 -102q15 -35 15 -77q0 -88 -69 -152q-35 -32 -77 -47v-55h-59zM262 595v155h59v-64q67 -26 105 -98q10 -21 13 -35l-104 -34q-5 30 -23.5 49t-33.5 23z" />
    <glyph glyph-name="percent" unicode="%" horiz-adv-x="532" 
d="M34 578q0 49 43 73q20 11 42 11q48 0 72 -41q12 -21 12 -43q0 -47 -40 -72q-21 -12 -44 -12q-48 0 -73 41q-12 20 -12 43zM125 -20l175 739h101l-174 -739h-102zM329 119q0 49 42 74q20 11 42 11q49 0 73 -43q11 -20 11 -42q0 -48 -41 -72q-20 -12 -43 -12q-48 0 -73 42
q-11 20 -11 42z" />
    <glyph glyph-name="ampersand" unicode="&#x26;" horiz-adv-x="652" 
d="M319 137q-32 -28 -70 -28q-55 0 -87 44q-18 26 -18 57q1 45 39 78l-74 85q-75 -64 -76 -160q0 -100 77 -163q61 -50 139 -50q81 1 142 53zM371 533q-3 39 -33 59q-10 6 -21 9v105q83 -11 128 -82q19 -31 26 -65zM262 601q-34 -5 -48 -39q-6 -14 -6 -29q0 -31 33 -68l2 -2
l186 -212q32 36 38 88v6h113q-8 -101 -73 -183l112 -128l-113 -30l-344 392q-50 60 -56 111q-1 12 -1 25q0 85 68 137q39 30 89 37v-105z" />
    <glyph glyph-name="quotesingle" unicode="'" horiz-adv-x="185" 
d="M42 465v271h102v-271h-102z" />
    <glyph glyph-name="parenleft" unicode="(" horiz-adv-x="220" 
d="M40 189q0 -92 42 -141q36 -42 112 -76v69q-50 31 -63 92q-6 29 -6 65v323q0 86 48 123q9 7 21 14l-1 68q-84 -34 -115 -75q-38 -50 -38 -141v-321z" />
    <glyph glyph-name="parenright" unicode=")" horiz-adv-x="222" 
d="M26 -29v69q45 29 60 75q11 35 11 89v317q0 89 -57 129q-7 5 -14 9l1 68q99 -38 132 -101q23 -46 23 -116v-319q0 -102 -58 -158q-37 -36 -98 -62z" />
    <glyph glyph-name="asterisk" unicode="*" horiz-adv-x="333" 
d="M23 695l36 50l75 -48v88h62v-91l79 51l36 -50l-94 -63l93 -64l-36 -50l-78 56v-96h-62v95l-76 -52l-35 50l93 62z" />
    <glyph glyph-name="plus" unicode="+" horiz-adv-x="420" 
d="M22 243v101h136v154h101v-154h138v-101h-138v-156h-101v156h-136z" />
    <glyph glyph-name="comma" unicode="," horiz-adv-x="233" 
d="M48 -23l37 152h101l-37 -152h-101z" />
    <glyph glyph-name="hyphen" unicode="-" horiz-adv-x="410" 
d="M47 243v101h316v-101h-316z" />
    <glyph glyph-name="period" unicode="." horiz-adv-x="195" 
d="M33 60q0 40 35 58q14 7 29 7q40 0 58 -36q7 -14 7 -29q0 -40 -36 -58q-14 -7 -29 -7q-38 0 -56 34q-8 15 -8 31z" />
    <glyph glyph-name="slash" unicode="/" horiz-adv-x="370" 
d="M47 -20l175 739h101l-174 -739h-102z" />
    <glyph glyph-name="zero" unicode="0" horiz-adv-x="501" 
d="M222 0v106q-60 12 -76 147q-5 40 -5 86v33q1 165 56 209q12 10 25 12v106q-116 -1 -162 -142q-27 -82 -27 -206q0 -294 140 -343q23 -8 49 -8zM279 0q118 1 163 147q26 82 26 204q0 287 -136 338q-25 10 -53 10v-106q56 -9 75 -127q7 -44 7 -94v-33q-1 -214 -82 -233
v-106z" />
    <glyph glyph-name="one" unicode="1" horiz-adv-x="243" 
d="M33 546v102l65 52h112v-700h-112v546h-65z" />
    <glyph glyph-name="two" unicode="2" horiz-adv-x="499" 
d="M33 521q3 77 65 132q51 45 116 47v-103q-29 0 -55 -26q-25 -26 -29 -69zM54 0v109h404v-109h-404zM54 158q0 88 114 164q14 10 40 26q24 15 33 21q8 5 24 16q68 45 85 74q13 20 13 41q0 71 -59 91q-18 6 -38 6v103q134 0 181 -103q19 -43 19 -96q0 -81 -60 -137
q-24 -22 -60 -46q-15 -10 -47 -29q-79 -46 -102 -77q-19 -26 -20 -54h-123z" />
    <glyph glyph-name="three" unicode="3" horiz-adv-x="504" 
d="M269 -1v103q72 3 92 57q6 17 6 37q0 79 -80 97q-26 5 -58 5v103q128 0 137 84q1 9 1 17q0 71 -66 90q-16 4 -32 5v103q94 0 152 -62q50 -53 50 -134q-1 -106 -71 -155q70 -50 71 -154q0 -115 -93 -168q-50 -28 -109 -28zM33 178l97 19q6 -72 66 -91q11 -4 18 -4v-103
q-84 2 -140 71q-39 50 -41 108zM33 521q3 77 65 132q51 45 116 47v-103q-76 -13 -84 -92v-3z" />
    <glyph glyph-name="four" unicode="4" horiz-adv-x="494" 
d="M23 143v103l219 375v-199l-104 -176h104v-103h-219zM296 0v701h111v-455h54v-103h-54v-143h-111z" />
    <glyph glyph-name="five" unicode="5" horiz-adv-x="520" 
d="M44 354l29 346h357v-103l-261 -1l-15 -167q37 18 72 18v-98q-60 -5 -89 -50zM278 0v100q59 8 89 58q18 30 18 66q0 76 -62 111q-23 12 -45 14v98q124 -2 179 -103q30 -54 30 -121q0 -120 -88 -183q-54 -38 -121 -40zM33 156l96 23q12 -51 65 -70q16 -5 30 -6v-104
q-82 0 -143 63q-41 43 -48 94z" />
    <glyph glyph-name="six" unicode="6" horiz-adv-x="513" 
d="M236 -1v103q-58 7 -78 70q-7 20 -7 40q0 64 44 95q19 12 41 15v103q-64 -1 -96 -39q0 183 86 208l10 2v103q-160 -4 -195 -226q-8 -54 -8 -118q0 -255 101 -326q42 -29 102 -30zM291 -1q86 0 142 70q48 60 48 142q0 117 -73 176q-49 38 -117 38v-103q53 -8 75 -59
q10 -24 10 -51q0 -56 -39 -90q-21 -16 -46 -20v-103zM371 536l85 58q-33 67 -104 94q-31 11 -62 11v-103q44 0 70 -39q7 -10 11 -21z" />
    <glyph glyph-name="seven" unicode="7" horiz-adv-x="446" 
d="M432 596h-399v104h399v-104zM165 0q6 224 99 449q22 51 45 95h114q-116 -221 -141 -471q-4 -38 -5 -73h-112z" />
    <glyph glyph-name="eight" unicode="8" horiz-adv-x="500" 
d="M221 -1q-77 0 -135 63q-53 59 -53 136q0 105 67 149q2 1 3 2q-58 37 -68 123q-1 13 -1 26q0 92 71 154q54 47 117 47v-102q-57 -6 -77 -63q-7 -19 -7 -39q0 -61 47 -85q16 -8 36 -10v-102q-58 -6 -78 -55q-7 -18 -7 -39q0 -68 53 -94q15 -7 32 -9v-102zM278 -1v102
q59 7 79 62q7 19 7 41q0 63 -55 86q-15 6 -30 8v102q60 5 78 62q5 16 5 33q0 58 -41 87q-20 12 -43 15v102q75 0 133 -63q55 -60 55 -138q0 -94 -60 -142q-5 -4 -9 -7q67 -50 70 -151q0 -92 -70 -153q-55 -46 -119 -46z" />
    <glyph glyph-name="nine" unicode="9" horiz-adv-x="513" 
d="M275 0q173 -1 200 246q5 43 5 95q0 260 -103 330q-43 29 -102 29v-104q57 -7 78 -66q8 -21 8 -42q0 -77 -56 -102q-15 -6 -30 -8v-104q46 0 94 34q2 1 3 2q0 -170 -72 -201q-12 -5 -25 -6v-103zM224 274v104q-61 8 -80 68q-6 20 -6 41q0 55 39 88q21 17 47 21v104
q-86 0 -142 -70q-49 -61 -49 -143q0 -121 77 -178q47 -35 114 -35zM55 108q44 -87 132 -105q19 -3 37 -3v103q-43 1 -73 42q-7 10 -11 20z" />
    <glyph glyph-name="colon" unicode=":" horiz-adv-x="222" 
d="M50 105q0 38 34 55q13 7 27 7q38 0 55 -34q6 -14 6 -28q0 -37 -33 -53q-14 -7 -28 -7q-39 0 -55 34q-6 13 -6 26zM50 395q0 38 34 55q13 7 27 7q38 0 55 -34q6 -14 6 -28q0 -37 -33 -53q-14 -7 -28 -7q-39 0 -55 34q-6 13 -6 26z" />
    <glyph glyph-name="semicolon" unicode=";" horiz-adv-x="264" 
d="M50 -23l37 152h101l-37 -152h-101zM93 346q0 39 35 55q13 6 26 6q37 0 53 -33q7 -14 7 -28q0 -39 -34 -55q-13 -6 -26 -6q-39 0 -55 35q-6 13 -6 26z" />
    <glyph glyph-name="less" unicode="&#x3c;" horiz-adv-x="420" 
d="M33 263v55l354 182v-104l-214 -104l214 -111v-102z" />
    <glyph glyph-name="equal" unicode="=" horiz-adv-x="418" 
d="M50 156v102h318v-102h-318zM50 325v102h318v-102h-318z" />
    <glyph glyph-name="greater" unicode="&#x3e;" horiz-adv-x="420" 
d="M33 79v102l214 111l-214 104v104l354 -182v-55z" />
    <glyph glyph-name="question" unicode="?" horiz-adv-x="466" 
d="M33 611q58 73 138 88q24 4 50 4q125 0 180 -94q30 -51 32 -118q0 -55 -18.5 -97.5t-45.5 -63.5t-53.5 -34.5t-45.5 -16.5l-18 -3v-138h-103v228q121 2 158 45q24 30 24 81q0 64 -55 94q-28 15 -61 15q-72 -1 -116 -58zM139 39q0 39 35 55q13 6 26 6q39 0 55 -35
q6 -13 6 -26q0 -39 -35 -55q-13 -6 -26 -6q-39 0 -55 35q-6 13 -6 26z" />
    <glyph glyph-name="at" unicode="@" horiz-adv-x="793" 
d="M23 309q0 160 109 272q114 116 291 123h20q129 0 222 -74q103 -83 104 -218q0 -180 -120 -251q-55 -32 -118 -32q-43 0 -70 33q-6 9 -9 16q-33 -46 -105 -47q-62 0 -102 61q-28 45 -28 101q0 117 88 180q50 36 103 36q58 -1 92 -38l2 -2l8 25h71l-48 -186q-7 -25 -8 -42
q-2 -28 19 -36q5 -2 11 -2q44 0 78 43q40 51 40 141q0 98 -89 158q-65 43 -139 43q-133 0 -228 -86q-96 -88 -97 -216q0 -159 109 -241q76 -58 182 -58q138 1 256 83l41 -75q-79 -69 -210 -90q-41 -7 -80 -7q-187 0 -296 115q-99 105 -99 271z" />
    <glyph glyph-name="A" unicode="A" horiz-adv-x="499" 
d="M31 0l132 587h15l46 -212l-83 -375h-110zM216 100l23 109h75l-108 491h110l161 -700h-111l-22 100h-128z" />
    <glyph glyph-name="B" unicode="B" horiz-adv-x="495" 
d="M33 0h111v700h-111v-700zM196 0h56q123 0 179 89q31 49 31 110q-1 99 -70 152q56 41 66 123q2 14 2 28q0 95 -66 152q-56 46 -143 46h-55v-98h41q73 0 102 -60q10 -23 10 -47q0 -67 -55 -88q-21 -8 -46 -8h-52v-97h52q75 0 96 -61q6 -17 6 -35q0 -62 -52 -91
q-30 -17 -71 -17h-31v-98z" />
    <glyph glyph-name="C" unicode="C" horiz-adv-x="500" 
d="M39 181q0 -58 43 -113q58 -72 155 -73v111q-59 0 -81 52q-6 14 -6 23v337q0 27 25 52q26 23 62 24v111q-113 0 -170 -96q-28 -47 -28 -91v-337zM288 -5q79 0 137 62q50 55 50 125l-108 26q0 -11 -1 -14q0 -21 -5 -36q-8 -20 -26 -33t-33 -16l-14 -3v-111zM288 594l26 -8
q34 -17 47 -49q5 -15 5 -34v-15l109 28q0 77 -64 137q-57 52 -123 52v-111z" />
    <glyph glyph-name="D" unicode="D" horiz-adv-x="472" 
d="M41 0v700h112v-700h-112zM205 0v111q115 0 117 84v2v306q0 60 -67 79q-23 7 -50 7v111q128 0 191 -84q37 -50 37 -113v-306q0 -139 -131 -182q-45 -15 -97 -15z" />
    <glyph glyph-name="E" unicode="E" horiz-adv-x="444" 
d="M41 0v700h364v-110h-252v-186h158v-112h-158v-181h252v-111h-364z" />
    <glyph glyph-name="F" unicode="F" horiz-adv-x="435" 
d="M41 1v699h364v-110h-252v-186h158v-112h-158v-291h-112z" />
    <glyph glyph-name="G" unicode="G" horiz-adv-x="509" 
d="M39 192q0 -112 99 -168q51 -29 98 -29v111q-25 0 -54 22q-31 26 -32 64v316q0 41 34 68q23 17 52 18v111q-109 0 -167 -94q-26 -44 -30 -87v-332zM287 -5q64 1 127 62q59 60 60 119v177h-187v-103h74v-60q0 -44 -46 -73q-17 -11 -28 -11v-111zM287 594q37 -1 61 -35
q14 -22 16 -51v-32l110 40q0 77 -64 137q-57 52 -123 52v-111z" />
    <glyph glyph-name="H" unicode="H" horiz-adv-x="489" 
d="M40 0v700h112v-293h66v-109h-66v-298h-112zM271 298v109h66v293h112v-700h-112v298h-66z" />
    <glyph glyph-name="I" unicode="I" horiz-adv-x="196" 
d="M42 0v700h112v-700h-112z" />
    <glyph glyph-name="J" unicode="J" horiz-adv-x="488" 
d="M16 193v49h112v-47q1 -58 53 -82q14 -6 24 -6v-112q-55 0 -111 42q-77 60 -78 156zM256 -5v112q24 0 53 22q32 26 33 64v507h111v-507q0 -111 -99 -168q-52 -30 -98 -30z" />
    <glyph glyph-name="K" unicode="K" horiz-adv-x="489" 
d="M41 0v700h112v-700h-112zM195 341l160 359h113l-160 -359l164 -341h-112z" />
    <glyph glyph-name="L" unicode="L" horiz-adv-x="434" 
d="M41 0v700h112v-590h264v-110h-376z" />
    <glyph glyph-name="M" unicode="M" horiz-adv-x="696" 
d="M42 0v474h9l103 -247v-227h-112zM42 628v72h89l212 -515l138 312h10v-254l-108 -243h-80zM542 0v700h112v-700h-112z" />
    <glyph glyph-name="N" unicode="N" horiz-adv-x="529" 
d="M42 0v522h8l104 -167v-355h-112zM42 628v72h93l352 -565v-135h-54zM375 408v292h112v-459h-8z" />
    <glyph glyph-name="O" unicode="O" horiz-adv-x="525" 
d="M39 195v329q0 53 45 108q60 72 152 73v-111q-52 -1 -78 -56q-8 -18 -8 -30v-313q0 -54 56 -80q17 -8 29 -8v-112q-57 0 -114 41q-81 60 -82 159zM290 -5v112q26 0 54 24q30 27 31 64v313q0 30 -26 58q-25 27 -59 28v111q101 0 162 -87q35 -50 35 -94v-329
q0 -111 -99 -170q-52 -30 -98 -30z" />
    <glyph glyph-name="P" unicode="P" horiz-adv-x="480" 
d="M42 0v700h112v-700h-112zM205 316v109h67q73 0 79 71v12q-7 79 -79 83h-67v109h76q182 -3 183 -190q0 -145 -92 -181q-38 -13 -91 -13h-76z" />
    <glyph glyph-name="Q" unicode="Q" horiz-adv-x="527" 
d="M39 195v329q0 53 44 107q61 73 154 74v-111q-54 -1 -79 -55q-8 -18 -8 -31v-313q0 -60 64 -83q14 -5 22 -5v-112q-59 0 -117 42q-79 60 -80 158zM288 -5v112q21 0 50 20q36 26 37 68v313q0 31 -27 59q-25 26 -60 27v111q103 0 164 -87q35 -50 35 -94v-329
q-1 -99 -93 -161l55 -81l-88 -60z" />
    <glyph glyph-name="R" unicode="R" horiz-adv-x="506" 
d="M42 0v700h112v-700h-112zM205 295v100h56q87 0 96 83q1 9 1 17q0 84 -76 99q-14 2 -29 2h-48v104h61q133 -3 179 -99q19 -40 19 -92q-1 -111 -68 -161q52 -30 66 -107q2 -13 3 -24l17 -217h-104l-15 178q-8 84 -45 106q-22 11 -55 11h-58z" />
    <glyph glyph-name="S" unicode="S" horiz-adv-x="487" 
d="M23 158l101 36q6 -65 71 -90l12 -4v-103q-86 0 -146 74q-37 47 -38 87zM31 510q0 109 94 164q44 25 82 26v-105q-31 -5 -54 -36q-15 -22 -15 -47q0 -52 75 -83q18 -7 56 -19q48 -15 67 -24q87 -43 113 -102q15 -35 15 -77q0 -88 -68 -153q-61 -57 -137 -57v103
q38 2 68 36q25 30 25 69q0 61 -85 92q-18 7 -56 18q-42 12 -57 19q-84 37 -108 95q-15 35 -15 81zM259 595v105q86 0 144 -74q31 -40 33 -73l-103 -34q-4 30 -22.5 49t-34.5 23z" />
    <glyph glyph-name="T" unicode="T" horiz-adv-x="466" 
d="M16 591v109h433v-109h-160v-591h-112v591h-161z" />
    <glyph glyph-name="U" unicode="U" horiz-adv-x="516" 
d="M34 193v507h112v-507q1 -56 61 -80q15 -6 25 -6v-112q-57 0 -115 40q-82 59 -83 158zM284 -5v112q26 0 54 22q31 26 32 64v507h111v-507q0 -113 -100 -169q-51 -29 -97 -29z" />
    <glyph glyph-name="V" unicode="V" horiz-adv-x="473" 
d="M9 700h113l169 -578l-41 -122h-38zM259 413l92 287h114q-9 -30 -43 -136q-82 -257 -102 -325h-10z" />
    <glyph glyph-name="W" unicode="W" horiz-adv-x="792" 
d="M10 700l203 -700h38l41 125l-168 575h-114zM258 418l51 -174h10q37 128 74 258l141 -502h38l41 123l-163 577h-113zM585 417l51 -173h10l136 456h-114z" />
    <glyph glyph-name="X" unicode="X" horiz-adv-x="451" 
d="M19 0l151 361l-139 339h109l85 -195l86 195h108l-138 -339l150 -361h-114l-92 213l-91 -213h-115z" />
    <glyph glyph-name="Y" unicode="Y" horiz-adv-x="461" 
d="M17 700h116l146 -447v-253h-115v252zM256 505l73 195h115l-128 -375h-8z" />
    <glyph glyph-name="Z" unicode="Z" horiz-adv-x="432" 
d="M33 0v110l243 480h-243v110h366v-107l-243 -480h243v-113h-366z" />
    <glyph glyph-name="bracketleft" unicode="[" horiz-adv-x="235" 
d="M50 -36v775h161v-89h-55l-3 -597h58v-89h-161z" />
    <glyph glyph-name="backslash" unicode="\" horiz-adv-x="359" 
d="M41 716h102l175 -739h-103z" />
    <glyph glyph-name="bracketright" unicode="]" horiz-adv-x="230" 
d="M24 -36v89h58l-3 597h-55v89h161v-775h-161z" />
    <glyph glyph-name="asciicircum" unicode="^" horiz-adv-x="483" 
d="M57 460l149 296h71l149 -296h-100l-86 172l-84 -172h-99z" />
    <glyph glyph-name="underscore" unicode="_" horiz-adv-x="516" 
d="M33 -118h450v-87h-450v87z" />
    <glyph glyph-name="grave" unicode="`" horiz-adv-x="291" 
d="M41 757h102l37 -152h-73z" />
    <glyph glyph-name="a" unicode="a" horiz-adv-x="470" 
d="M29 129q0 -56 54 -95q47 -34 112 -34v99q-74 1 -75 52v21q1 20 12 28q8 6 94 29q60 16 84 29v-99q0 -48 -45 -58q-9 -2 -19 -2v-99q66 1 106 34q35 -34 88 -34v100q-26 2 -27 32v269q0 60 -48 107t-120 47v-98q45 0 60 -37q5 -12 5 -25v-21q0 -26 -110 -60
q-104 -32 -118 -40q-52 -31 -53 -96v-49zM37 416l92 -35q0 57 44 72q11 4 22 4v98q-69 0 -119 -50q-39 -40 -39 -89z" />
    <glyph glyph-name="b" unicode="b" horiz-adv-x="455" 
d="M41 0v711h110v-711h-110zM201 0v103h60q36 0 54 33q6 10 6 17v248q0 21 -24 38q-17 11 -35 12h-61v103h61q85 0 135 -73q27 -39 28 -76v-254q0 -46 -39 -93q-50 -57 -125 -58h-60z" />
    <glyph glyph-name="c" unicode="c" horiz-adv-x="449" 
d="M38 151q0 -52 41 -97q50 -54 132 -54v102q-52 0 -65 35q-3 7 -3 14v251q0 27 29 42q17 9 39 9v101q-98 0 -148 -78q-24 -37 -25 -72v-253zM256 452q48 0 58 -45q2 -8 2 -16v-28l98 37q0 74 -60 121q-44 33 -98 33v-102zM256 -1q71 -2 125 53q45 46 45 102l-98 37v-27
q-5 -62 -72 -63v-102z" />
    <glyph glyph-name="d" unicode="d" horiz-adv-x="451" 
d="M30 151v253q1 51 45 97q49 51 117 52h58v-104h-58q-36 0 -53 -33q-5 -10 -5 -17v-246q0 -22 26 -39q16 -11 34 -11h56v-103h-56q-91 0 -140 79q-24 39 -24 72zM300 0v711h110v-711h-110z" />
    <glyph glyph-name="e" unicode="e" horiz-adv-x="475" 
d="M38 151v254q2 49 45 95q53 53 128 54v-100q-39 0 -59 -35q-7 -12 -7 -22v-60h190v59q0 42 -46 55q-13 4 -26 4v99q71 0 126 -49q46 -44 47 -99v-172h-291v-83q0 -26 29 -43q18 -10 39 -10v-98q-93 0 -147 75q-28 41 -28 76zM263 0v99q58 0 80 49q3 7 5 13l89 -32
q-18 -68 -81 -105q-43 -24 -93 -24z" />
    <glyph glyph-name="f" unicode="f" horiz-adv-x="298" 
d="M19 403v104h68v49q0 50 37 97q46 57 118 58h51l-24 -103h-27q-43 -9 -48 -52v-49h70v-104h-70v-403h-107v403h-68z" />
    <glyph glyph-name="g" unicode="g" horiz-adv-x="449" 
d="M23 -187l25 98h193q47 2 64 39q4 8 4 14v60q-40 -18 -66 -19v99q44 0 61 34q5 10 5 19v250q0 27 -31 44q-17 9 -35 9v99q35 0 66 -19v19h103v-595q0 -43 -39 -90q-51 -60 -125 -61h-225zM33 155v256q1 47 42 93q50 54 125 55v-99q-43 0 -61 -36q-5 -9 -5 -16v-252
q0 -26 29 -42q17 -9 37 -9v-100q-93 1 -143 79q-24 38 -24 71z" />
    <glyph glyph-name="h" unicode="h" horiz-adv-x="465" 
d="M41 -5v716h100v-191q34 21 75 21v-99q-41 0 -66 -36q-8 -12 -8 -22v-389h-101zM264 442v99q95 0 143 -68q25 -37 25 -79v-399h-101v389q0 30 -27 47q-18 11 -40 11z" />
    <glyph glyph-name="i" unicode="i" horiz-adv-x="214" 
d="M48 631q0 37 33 53q13 6 26 6q38 0 54 -33q6 -13 6 -26q0 -36 -34 -52q-13 -6 -26 -6q-36 0 -53 32q-6 12 -6 26zM55 0v533h107v-533h-107z" />
    <glyph glyph-name="j" unicode="j" horiz-adv-x="222" 
d="M63 533h107v-573q0 -47 -40 -95q-49 -58 -123 -59h-49l24 102h24q37 2 53 37q4 8 4 15v573zM57 631q0 37 33 53q13 6 26 6q36 0 53 -33q6 -13 6 -26q0 -36 -33 -52q-12 -6 -26 -6q-36 0 -53 32q-6 12 -6 26z" />
    <glyph glyph-name="k" unicode="k" horiz-adv-x="488" 
d="M41 0v711h110v-711h-110zM178 279l167 275h122l-170 -275l171 -279h-121z" />
    <glyph glyph-name="l" unicode="l" horiz-adv-x="198" 
d="M42 0v711h114v-711h-114z" />
    <glyph glyph-name="m" unicode="m" horiz-adv-x="744" 
d="M38 0v404q0 52 43 99q50 53 127 53v-106q-50 0 -60 -44q-2 -8 -2 -16v-390h-108zM254 450v106q72 -1 118 -46q47 46 118 46v-106q-52 0 -62 -44q-2 -8 -2 -16v-390h-108v390q0 45 -41 57q-11 3 -23 3zM535 450v106q95 0 146 -78q25 -39 25 -74v-404h-108v390q0 52 -50 59
q-6 1 -13 1z" />
    <glyph glyph-name="n" unicode="n" 
d="M38 0v404q0 48 44 95q54 56 134 57v-106q-46 0 -64 -36q-6 -12 -6 -23v-391h-108zM260 450v106q95 0 149 -77q29 -40 29 -75v-404h-108v391q0 30 -29 48q-18 11 -41 11z" />
    <glyph glyph-name="o" unicode="o" horiz-adv-x="466" 
d="M38 151v253q0 49 44 95q52 55 131 55v-103q-52 0 -67 -43q-3 -9 -3 -18v-225q0 -38 35 -55q16 -8 36 -8v-103q-97 0 -150 78q-26 39 -26 74zM258 -1v103q48 0 63 41q4 11 4 20v227q0 42 -39 56q-13 5 -29 5v103q94 0 145 -76q26 -39 26 -74v-253q0 -49 -42 -96
q-51 -55 -128 -56z" />
    <glyph glyph-name="p" unicode="p" horiz-adv-x="470" 
d="M202 0v103h56q47 0 62 37q3 7 3 13v248q0 20 -23 36q-19 14 -45 14h-55v103h55q95 0 147 -77q26 -39 26 -74v-252q0 -48 -42 -95q-51 -55 -128 -56h-56zM40 -194v748h111v-748h-111z" />
    <glyph glyph-name="q" unicode="q" horiz-adv-x="465" 
d="M209 0q-94 0 -144 77q-26 39 -26 74v252q0 48 41 95q51 55 129 56h56v-103h-56q-48 0 -62 -38q-3 -7 -3 -12v-248q0 -24 25 -40q17 -10 40 -10h54v-103h-54zM313 -194v748h112v-748h-112z" />
    <glyph glyph-name="r" unicode="r" horiz-adv-x="324" 
d="M42 0v554h108v-69q28 44 84 63q26 9 51 9h26l-25 -105q-59 -1 -103 -57q-33 -43 -33 -89v-306h-108z" />
    <glyph glyph-name="s" unicode="s" horiz-adv-x="443" 
d="M20 146l99 18q0 -39 41 -59q18 -9 35 -9v-101q-106 0 -153 75q-22 36 -22 76zM25 400q0 92 85 137q41 21 82 21v-99q-48 0 -64 -38q-4 -11 -4 -21q0 -30 52 -53q44 -18 134 -39q69 -14 98 -71q15 -31 15 -68q0 -99 -80 -146q-46 -28 -105 -28v100q40 0 66 27q16 19 16 42
q0 35 -78 59q-16 5 -50 14q-51 12 -72 20q-74 33 -90 97q-5 21 -5 46zM237 459v99q88 0 142 -65q34 -42 34 -88l-99 -17q0 51 -55 67q-12 4 -22 4z" />
    <glyph glyph-name="t" unicode="t" horiz-adv-x="303" 
d="M16 448v103h68v160h106v-160h66v-104h-66l1 -277q2 -60 60 -61h21l24 -109h-47q-127 0 -155 97q-10 35 -10 83v268h-68z" />
    <glyph glyph-name="u" unicode="u" 
d="M38 147v407h108v-395q0 -32 32 -49q17 -9 38 -9v-106q-97 0 -151 76q-27 39 -27 76zM260 -5v106q50 0 66 39q4 10 4 19v395h108v-407q0 -47 -42 -93q-55 -58 -136 -59z" />
    <glyph glyph-name="v" unicode="v" horiz-adv-x="432" 
d="M8 554h119l151 -447l-35 -107h-60zM236 348l69 206h119l-120 -365h-13z" />
    <glyph glyph-name="w" unicode="w" horiz-adv-x="723" 
d="M8 554l176 -554h60l34 107l-151 447h-119zM236 349l55 -160h13l57 179l117 -368h60l34 107l-151 447h-119zM531 349l54 -160h13l117 365h-119z" />
    <glyph glyph-name="x" unicode="x" horiz-adv-x="405" 
d="M8 0l135 281l-132 273h109l83 -157l81 157h110l-130 -273l133 -281h-109l-85 166l-86 -166h-109z" />
    <glyph glyph-name="y" unicode="y" horiz-adv-x="418" 
d="M6 554h114l143 -433l-105 -316h-110l99 318zM233 367l69 187h113l-124 -344h-11z" />
    <glyph glyph-name="z" unicode="z" horiz-adv-x="377" 
d="M30 0v104l197 346h-197v104h317v-102l-193 -348h193v-104h-317z" />
    <glyph glyph-name="braceleft" unicode="{" horiz-adv-x="271" 
d="M15 348q43 18 52 29q9 12 10 31v111q0 158 72 197q35 19 102 19v-81q-47 0 -60 -31q-12 -30 -12 -154v-86q-2 -25 -40 -35q39 -14 40 -44v-97q0 -127 29 -153q14 -12 43 -12v-80q-83 1 -116 24q-58 44 -58 190v114q0 25 -31 42q-4 3 -15 8t-16 8z" />
    <glyph glyph-name="bar" unicode="|" horiz-adv-x="185" 
d="M50 -134v888h85v-888h-85z" />
    <glyph glyph-name="braceright" unicode="}" horiz-adv-x="271" 
d="M20 -38v80q42 0 56 32q16 36 16 134v96q2 31 40 44q-39 11 -40 36v85q-1 126 -13 154q-14 31 -59 31v81q91 0 128 -39q46 -50 46 -177v-111q1 -32 32 -47q6 -3 30 -13q-44 -23 -49 -27q-13 -13 -13 -31v-114q0 -161 -76 -198q-33 -16 -98 -16z" />
    <glyph glyph-name="asciitilde" unicode="~" horiz-adv-x="628" 
d="M80 286v105q61 35 113 35q43 0 109 -35q65 -35 103 -38h12q58 1 131 45v-103q-76 -46 -137 -46q-47 0 -116 37q-72 34 -108 36q-52 -1 -107 -36z" />
    <glyph glyph-name="exclamdown" unicode="&#xa1;" horiz-adv-x="214" 
d="M21 493q0 39 35 57q15 8 30 8q40 0 58 -36q7 -14 7 -29q0 -38 -34 -56q-15 -8 -31 -8q-38 0 -57 34q-8 15 -8 30zM33 -168v553h107v-553h-107z" />
    <glyph glyph-name="cent" unicode="&#xa2;" horiz-adv-x="446" 
d="M255 29v-113h46v89q71 20 106 81q19 33 19 68l-98 37v-7v-14l-1 -7q-3 -47 -49 -59q-11 -3 -22 -3v-72h-1zM255 637v-113h1v-74q38 0 54 -32q5 -13 6 -27v-29l98 36q0 73 -60 120q-25 19 -53 28v91h-46zM165 637v-89q-76 -19 -112 -90q-14 -30 -15 -56v-251q0 -53 42 -98
q34 -37 85 -48v-89h45v186q-44 1 -62 37q-5 10 -5 19v233q0 35 32 52q16 8 35 8v186h-45z" />
    <glyph glyph-name="sterling" unicode="&#xa3;" horiz-adv-x="434" 
d="M20 298h58v-298h331v88h-226v211h142v87h-141v142q0 68 55 78q8 1 16 1q54 -1 78 -60l81 40q-20 72 -88 103q-4 1 -6 2q-33 13 -69 13h-2q-114 0 -154 -94q-17 -39 -17 -86v-140h-58v-87z" />
    <glyph glyph-name="currency" unicode="&#xa4;" horiz-adv-x="632" 
d="M41 182l90 82q-2 4 -2 20v161q0 13 2 22l-91 81l58 66l76 -66q46 47 119 47v-95q-50 0 -64 -40q-3 -10 -3 -18v-156q0 -33 32 -50q16 -8 35 -8v-95q-74 1 -120 50l-75 -66zM334 133v94q46 0 60 39q4 10 4 19v157q0 34 -31 51q-15 7 -33 7v95q69 -1 115 -48l75 67l58 -66
l-92 -82q3 -6 3 -20v-162q0 -13 -3 -20l91 -82l-58 -65l-74 65q-45 -49 -115 -49z" />
    <glyph glyph-name="yen" unicode="&#xa5;" horiz-adv-x="450" 
d="M177 0h109v214h154v52h-149l15 52h134v52h-118l100 328h-110l-79 -254l-82 254h-110l100 -328h-124v-52h140l16 -52h-156v-52h160v-214z" />
    <glyph glyph-name="brokenbar" unicode="&#xa6;" horiz-adv-x="190" 
d="M42 -138v356h98v-356h-98zM42 405v356h98v-356h-98z" />
    <glyph glyph-name="section" unicode="&#xa7;" horiz-adv-x="603" 
d="M54 352q1 94 73 148q-11 28 -11 72q0 118 96 166q41 21 85 21h108v-104h-94q-76 -1 -89 -58q-2 -10 -2 -20q1 -43 55 -70v-123q-21 6 -36 12q-32 15 -44 24q-28 -23 -29 -65q0 -57 85 -89q11 -4 24 -8v-116q-76 25 -94 34q-83 44 -109 96q-18 35 -18 80zM198 -31h92
q69 -1 87 49q5 14 5 30q-1 45 -55 71v122q23 -7 36 -13q31 -11 47 -25q27 26 27 64q0 59 -79 89q-14 6 -31 11v116q79 -27 94 -35q85 -42 111 -98q17 -35 17 -80q-1 -92 -72 -149q10 -29 10 -71q0 -107 -84 -158q-46 -28 -98 -28h-107v105z" />
    <glyph glyph-name="dieresis" unicode="&#xa8;" horiz-adv-x="382" 
d="M55 678q0 38 34 55q13 7 27 7q39 0 55 -36q6 -13 6 -26q0 -39 -34 -55q-13 -6 -27 -6q-39 0 -55 35q-6 13 -6 26zM205 678q0 38 34 55q13 7 27 7q39 0 55 -36q6 -13 6 -26q0 -39 -34 -55q-13 -6 -27 -6q-39 0 -55 35q-6 13 -6 26z" />
    <glyph glyph-name="copyright" unicode="&#xa9;" horiz-adv-x="807" 
d="M35 339q0 -160 111 -271q96 -95 223 -106q11 -1 20 -1v75q-117 4 -201 95q-81 90 -81 208q0 138 100 229q83 75 182 76v73q-102 0 -199 -71q-127 -93 -151 -246q-4 -30 -4 -61zM263 236q0 -49 36 -87q35 -37 90 -37v73q-37 0 -50 36q-3 8 -3 15v205q0 26 22 43q14 9 31 9
v73q-77 0 -112 -70q-14 -28 -14 -54v-206zM424 -39q124 3 225 92q114 101 127 252q1 13 1 25q0 174 -121 288q-93 87 -208 98q-13 1 -24 1v-73q104 -1 186 -81q95 -93 95 -229q0 -118 -85 -207q-84 -87 -196 -91v-75zM424 112q54 0 92 49q26 34 26 71l-72 26v-18
q0 -39 -29 -52q-9 -4 -17 -4v-72zM424 493q28 -1 41 -31q5 -13 5 -27v-16l71 27q0 56 -48 94q-33 26 -69 26v-73z" />
    <glyph glyph-name="ordfeminine" unicode="&#xaa;" horiz-adv-x="243" 
d="M19 345v53h201v-53h-201zM16 492q0 -35 37 -54q21 -11 47 -11v49q-37 2 -38 26v11q1 10 6 14q2 2 56 17q23 6 33 12v-50q0 -27 -28 -29q-3 0 -4 -1v-49q33 1 53 17q18 -17 44 -17v50q-13 1 -14 16v135q0 37 -33 61q-22 15 -51 15v-48q28 0 32 -25q1 -4 1 -7v-10
q0 -14 -68 -34q-37 -11 -46 -16q-26 -15 -27 -48v-24zM20 635l46 -17q0 33 28 37q3 0 6 1v48q-41 0 -66 -31q-13 -18 -14 -38z" />
    <glyph glyph-name="guillemotleft" unicode="&#xab;" horiz-adv-x="462" 
d="M22 265v50l211 156v-104l-108 -75l108 -82v-102zM233 265v50l211 156v-104l-108 -75l108 -82v-102z" />
    <glyph glyph-name="logicalnot" unicode="&#xac;" horiz-adv-x="529" 
d="M40 339v93h439v-224h-96v131h-343z" />
    <glyph glyph-name="uni00AD" unicode="&#xad;" horiz-adv-x="376" 
d="M27 243v101h316v-101h-316z" />
    <glyph glyph-name="registered" unicode="&#xae;" horiz-adv-x="398" 
d="M189 513v31h8q29 1 30 25q-2 26 -33 27h-5v32q63 0 69 -48q1 -5 1 -10q-1 -29 -20 -41q18 -13 20 -37l3 -61h-30l-4 50q-1 28 -25 31q-6 1 -14 1zM190 358q-71 2 -121 62q-38 48 -38 106q0 96 77 145q41 26 84 27v-36q-59 -1 -98 -51q-28 -37 -28 -84q1 -67 54 -107
q32 -23 69 -25zM208 358v37q61 3 99 55q25 36 25 77q0 72 -57 112q-32 22 -67 23v36q65 -2 114 -54q45 -49 45 -116q0 -86 -68 -137q-42 -30 -91 -33zM140 431v196h34v-196h-34z" />
    <glyph glyph-name="macron" unicode="&#xaf;" horiz-adv-x="510" 
d="M33 799h450v-87h-450v87z" />
    <glyph glyph-name="degree" unicode="&#xb0;" horiz-adv-x="274" 
d="M35 583q0 55 47 86q26 16 55 16q55 0 86 -47q16 -26 16 -55q0 -55 -47 -86q-26 -16 -55 -16q-55 0 -86 47q-16 26 -16 55zM99 583q0 -27 25 -36q7 -2 13 -2q28 0 37 26q2 6 2 12q0 28 -26 37q-6 2 -13 2q-26 0 -35 -25q-3 -7 -3 -14z" />
    <glyph glyph-name="plusminus" unicode="&#xb1;" horiz-adv-x="429" 
d="M27 66v101h376v-101h-376zM33 404v101h136v154h101v-154h138v-101h-138v-156h-101v156h-136z" />
    <glyph glyph-name="twosuperior" unicode="&#xb2;" horiz-adv-x="225" 
d="M12 624q1 41 39 66q20 12 42 13v-49q-20 0 -30 -20q-4 -9 -5 -19zM20 389v51h181v-51h-181zM20 462q0 41 60 80q23 14 24 15q42 28 49 43q4 8 4 15q0 30 -29 38q-6 1 -12 1v49q69 0 86 -58q4 -15 4 -30q0 -44 -44 -77q-7 -4 -14 -9t-21 -13q-39 -24 -46 -41q-2 -7 -2 -13
h-59z" />
    <glyph glyph-name="threesuperior" unicode="&#xb3;" horiz-adv-x="230" 
d="M120 387v49q32 2 40 27q2 7 2 13q-2 42 -60 43v49q59 1 60 44q0 33 -35 39q-4 1 -7 1v49q51 0 77 -39q14 -22 14 -49q-1 -47 -31 -69q30 -22 31 -69q0 -59 -53 -81q-19 -7 -38 -7zM16 466l46 9q6 -33 34 -39v-49q-44 1 -68 41q-11 19 -12 38zM16 622q1 41 38 66
q20 12 42 13v-49q-31 -6 -34 -36v-3z" />
    <glyph glyph-name="acute" unicode="&#xb4;" horiz-adv-x="370" 
d="M115 605l37 152h102l-66 -152h-73z" />
    <glyph glyph-name="uni00B5" unicode="&#xb5;" horiz-adv-x="500" 
d="M44 0h100v204q43 -13 66 -13v97q-52 0 -64 26q-2 5 -2 9v375h-100v-698zM252 191q68 1 113 35q39 -33 95 -33v97q-41 1 -42 34v376h-99v-377q0 -21 -34 -31q-16 -4 -33 -4v-97z" />
    <glyph glyph-name="paragraph" unicode="&#xb6;" horiz-adv-x="447" 
d="M35 517q0 -115 77 -164q40 -24 92 -24v-334h68v710h-68q-88 0 -137 -75q-32 -50 -32 -113zM325 -5h68v710h-68v-710z" />
    <glyph glyph-name="periodcentered" unicode="&#xb7;" horiz-adv-x="222" 
d="M58 352q0 40 35 58q14 7 29 7q40 0 58 -36q7 -14 7 -29q0 -40 -36 -58q-14 -7 -29 -7q-38 0 -56 34q-8 15 -8 31z" />
    <glyph glyph-name="cedilla" unicode="&#xb8;" horiz-adv-x="418" 
d="M123 -28v75q64 0 79 49q4 13 4 27h77q0 -83 -61 -124q-40 -27 -99 -27z" />
    <glyph glyph-name="onesuperior" unicode="&#xb9;" horiz-adv-x="138" 
d="M10 630v46l30 23h53v-314h-53v245h-30z" />
    <glyph glyph-name="ordmasculine" unicode="&#xba;" horiz-adv-x="230" 
d="M26 376v56h178v-56h-178zM27 525v113q0 29 28 51q22 16 50 16v-46q-26 0 -30 -23q-1 -2 -1 -4v-101q0 -22 23 -27q5 -1 9 -1v-46q-51 0 -72 44q-7 13 -7 24zM126 457v46q25 0 29 22q1 3 1 5v102q-6 24 -31 27v46q49 0 70 -42q7 -14 7 -25v-113q0 -29 -28 -52
q-21 -16 -48 -16z" />
    <glyph glyph-name="guillemotright" unicode="&#xbb;" horiz-adv-x="457" 
d="M15 114v98l114 80l-114 72v101l211 -147v-56zM226 114v98l114 80l-114 72v101l211 -147v-56z" />
    <glyph glyph-name="onequarter" unicode="&#xbc;" horiz-adv-x="505" 
d="M380 0v350h66v-231h27v-58h-27v-61h-66zM53 623v51l33 26h66v-350h-66v273h-33zM234 61v58l119 206v-120l-48 -86h48v-58h-119zM0 0l432 700h64l-427 -700h-69z" />
    <glyph glyph-name="onehalf" unicode="&#xbd;" horiz-adv-x="574" 
d="M307 0v62h226v-62h-226zM0 0l432 700h64l-427 -700h-69zM53 623v51l33 26h66v-350h-66v273h-33zM304 252q1 53 49 82q24 15 51 16v-63q-35 -4 -40 -39q-1 -4 -1 -7zM307 87q0 49 74 83q3 2 20 9q56 25 68 41q7 10 7 21q-2 43 -46 46v63q80 0 104 -65q7 -20 7 -44
q-1 -59 -70 -93q-9 -5 -29 -13q-48 -20 -55 -37q-2 -6 -2 -11h-78z" />
    <glyph glyph-name="threequarters" unicode="&#xbe;" horiz-adv-x="589" 
d="M161 349v64q33 0 39 30q1 6 1 10q0 29 -26 39q-10 4 -21 4h-16v58h16q39 0 46 34q1 4 1 8q0 32 -29 40q-6 1 -11 1v63q51 0 82 -40q19 -26 19 -59q-1 -54 -35 -76q34 -25 35 -77q0 -58 -52 -86q-24 -13 -49 -13zM464 0v350h66v-231h27v-58h-27v-61h-66zM318 61v58
l119 206v-120l-48 -86h48v-58h-119zM33 447l59 11q2 -40 40 -46h2v-63q-52 1 -83 45q-17 25 -18 53zM33 601q2 55 51 84q24 14 50 15v-63q-36 -4 -41 -40q-1 -4 -1 -7zM84 0l432 700h65l-428 -700h-69z" />
    <glyph glyph-name="questiondown" unicode="&#xbf;" horiz-adv-x="445" 
d="M421 80q-58 -73 -138 -88q-24 -4 -50 -4q-125 0 -180 94q-30 51 -32 118q0 55 18.5 97.5t45.5 63.5t53.5 34.5t45.5 16.5l18 3v138h103v-228q-121 -2 -158 -45q-24 -30 -24 -81q0 -64 55 -94q28 -15 61 -15q72 1 116 58zM315 652q0 -39 -35 -55q-13 -6 -26 -6
q-39 0 -55 35q-6 13 -6 26q0 39 35 55q13 6 26 6q39 0 55 -35q6 -13 6 -26z" />
    <glyph glyph-name="Agrave" unicode="&#xc0;" horiz-adv-x="499" 
d="M154 918h102l37 -152h-73zM31 0l132 587h15l46 -212l-83 -375h-110zM216 100l23 109h75l-108 491h110l161 -700h-111l-22 100h-128z" />
    <glyph glyph-name="Aacute" unicode="&#xc1;" horiz-adv-x="499" 
d="M226 766l37 152h102l-66 -152h-73zM31 0l132 587h15l46 -212l-83 -375h-110zM216 100l23 109h75l-108 491h110l161 -700h-111l-22 100h-128z" />
    <glyph glyph-name="Acircumflex" unicode="&#xc2;" horiz-adv-x="499" 
d="M159 766l75 152h56l77 -152h-69l-36 73l-35 -73h-68zM31 0l132 587h15l46 -212l-83 -375h-110zM216 100l23 109h75l-108 491h110l161 -700h-111l-22 100h-128z" />
    <glyph glyph-name="Atilde" unicode="&#xc3;" horiz-adv-x="499" 
d="M121 771v84q39 22 70 22q25 0 71 -23q35 -18 60 -18q35 1 80 28v-83q-46 -28 -84 -28q-27 0 -74 23q-34 17 -57 17q-31 -1 -66 -22zM31 0l132 587h15l46 -212l-83 -375h-110zM216 100l23 109h75l-108 491h110l161 -700h-111l-22 100h-128z" />
    <glyph glyph-name="Adieresis" unicode="&#xc4;" horiz-adv-x="499" 
d="M126 827q0 38 34 55q13 7 27 7q39 0 55 -36q6 -13 6 -26q0 -39 -34 -55q-13 -6 -27 -6q-39 0 -55 35q-6 13 -6 26zM276 827q0 38 34 55q13 7 27 7q39 0 55 -36q6 -13 6 -26q0 -39 -34 -55q-13 -6 -27 -6q-39 0 -55 35q-6 13 -6 26zM31 0l132 587h15l46 -212l-83 -375
h-110zM216 100l23 109h75l-108 491h110l161 -700h-111l-22 100h-128z" />
    <glyph glyph-name="Aring" unicode="&#xc5;" horiz-adv-x="516" 
d="M40 0l131 587h16l45 -212l-82 -375h-110zM224 100l24 109h75l-108 488q-34 24 -35 68q0 51 43 77q22 12 46 12q50 0 76 -42q13 -22 13 -47q-1 -43 -33 -67l151 -698h-108l-23 100h-121zM235 765q0 -24 23 -32q6 -2 11 -2q24 0 32 23q2 6 2 11q0 24 -23 32q-6 2 -11 2
q-24 0 -32 -23q-2 -6 -2 -11z" />
    <glyph glyph-name="AE" unicode="&#xc6;" horiz-adv-x="727" 
d="M42 0l180 700h479v-111h-238v-186h144v-111h-144v-181h238v-111h-349v160h-96l24 96h72v333h-40l-147 -589h-123z" />
    <glyph glyph-name="Ccedilla" unicode="&#xc7;" horiz-adv-x="500" 
d="M140 -191v75q64 0 79 49q4 13 4 27h77q0 -83 -61 -124q-40 -27 -99 -27zM39 181q0 -58 43 -113q58 -72 155 -73v111q-59 0 -81 52q-6 14 -6 23v337q0 27 25 52q26 23 62 24v111q-113 0 -170 -96q-28 -47 -28 -91v-337zM288 -5q79 0 137 62q50 55 50 125l-108 26
q0 -11 -1 -14q0 -21 -5 -36q-8 -20 -26 -33t-33 -16l-14 -3v-111zM288 594l26 -8q34 -17 47 -49q5 -15 5 -34v-15l109 28q0 77 -64 137q-57 52 -123 52v-111z" />
    <glyph glyph-name="Egrave" unicode="&#xc8;" horiz-adv-x="444" 
d="M115 918h102l37 -152h-73zM41 0v700h364v-110h-252v-186h158v-112h-158v-181h252v-111h-364z" />
    <glyph glyph-name="Eacute" unicode="&#xc9;" horiz-adv-x="444" 
d="M242 766l37 152h102l-66 -152h-73zM41 0v700h364v-110h-252v-186h158v-112h-158v-181h252v-111h-364z" />
    <glyph glyph-name="Ecircumflex" unicode="&#xca;" horiz-adv-x="444" 
d="M120 766l75 152h56l77 -152h-69l-36 73l-35 -73h-68zM41 0v700h364v-110h-252v-186h158v-112h-158v-181h252v-111h-364z" />
    <glyph glyph-name="Edieresis" unicode="&#xcb;" horiz-adv-x="444" 
d="M88 827q0 38 34 55q13 7 27 7q39 0 55 -36q6 -13 6 -26q0 -39 -34 -55q-13 -6 -27 -6q-39 0 -55 35q-6 13 -6 26zM238 827q0 38 34 55q13 7 27 7q39 0 55 -36q6 -13 6 -26q0 -39 -34 -55q-13 -6 -27 -6q-39 0 -55 35q-6 13 -6 26zM41 0v700h364v-110h-252v-186h158v-112
h-158v-181h252v-111h-364z" />
    <glyph glyph-name="Igrave" unicode="&#xcc;" horiz-adv-x="196" 
d="M-5 918h102l37 -152h-73zM42 0v700h112v-700h-112z" />
    <glyph glyph-name="Iacute" unicode="&#xcd;" horiz-adv-x="196" 
d="M61 766l37 152h102l-66 -152h-73zM42 0v700h112v-700h-112z" />
    <glyph glyph-name="Icircumflex" unicode="&#xce;" horiz-adv-x="196" 
d="M-6 766l75 152h56l77 -152h-69l-36 73l-35 -73h-68zM42 0v700h112v-700h-112z" />
    <glyph glyph-name="Idieresis" unicode="&#xcf;" horiz-adv-x="196" 
d="M-38 827q0 38 34 55q13 7 27 7q39 0 55 -36q6 -13 6 -26q0 -39 -34 -55q-13 -6 -27 -6q-39 0 -55 35q-6 13 -6 26zM112 827q0 38 34 55q13 7 27 7q39 0 55 -36q6 -13 6 -26q0 -39 -34 -55q-13 -6 -27 -6q-39 0 -55 35q-6 13 -6 26zM42 0v700h112v-700h-112z" />
    <glyph glyph-name="Eth" unicode="&#xd0;" horiz-adv-x="487" 
d="M26 304v102h57v294h111v-294h56v-102h-56v-304h-111v304h-57zM246 0v111q115 0 117 84v2v306q0 60 -67 79q-22 7 -50 7v111q127 0 191 -83q38 -51 38 -114v-306q0 -139 -131 -182q-46 -15 -98 -15z" />
    <glyph glyph-name="Ntilde" unicode="&#xd1;" horiz-adv-x="529" 
d="M124 784v84q39 22 70 22q25 0 71 -23q35 -18 60 -18q35 1 80 28v-83q-46 -28 -84 -28q-27 0 -74 23q-34 17 -57 17q-31 -1 -66 -22zM42 0v522h8l104 -167v-355h-112zM42 628v72h93l352 -565v-135h-54zM375 408v292h112v-459h-8z" />
    <glyph glyph-name="Ograve" unicode="&#xd2;" horiz-adv-x="525" 
d="M153 918h102l37 -152h-73zM39 195v329q0 53 45 108q60 72 152 73v-111q-52 -1 -78 -56q-8 -18 -8 -30v-313q0 -54 56 -80q17 -8 29 -8v-112q-57 0 -114 41q-81 60 -82 159zM290 -5v112q26 0 54 24q30 27 31 64v313q0 30 -26 58q-25 27 -59 28v111q101 0 162 -87
q35 -50 35 -94v-329q0 -111 -99 -170q-52 -30 -98 -30z" />
    <glyph glyph-name="Oacute" unicode="&#xd3;" horiz-adv-x="525" 
d="M226 766l37 152h102l-66 -152h-73zM39 195v329q0 53 45 108q60 72 152 73v-111q-52 -1 -78 -56q-8 -18 -8 -30v-313q0 -54 56 -80q17 -8 29 -8v-112q-57 0 -114 41q-81 60 -82 159zM290 -5v112q26 0 54 24q30 27 31 64v313q0 30 -26 58q-25 27 -59 28v111q101 0 162 -87
q35 -50 35 -94v-329q0 -111 -99 -170q-52 -30 -98 -30z" />
    <glyph glyph-name="Ocircumflex" unicode="&#xd4;" horiz-adv-x="525" 
d="M158 766l75 152h56l77 -152h-69l-36 73l-35 -73h-68zM39 195v329q0 53 45 108q60 72 152 73v-111q-52 -1 -78 -56q-8 -18 -8 -30v-313q0 -54 56 -80q17 -8 29 -8v-112q-57 0 -114 41q-81 60 -82 159zM290 -5v112q26 0 54 24q30 27 31 64v313q0 30 -26 58q-25 27 -59 28
v111q101 0 162 -87q35 -50 35 -94v-329q0 -111 -99 -170q-52 -30 -98 -30z" />
    <glyph glyph-name="Otilde" unicode="&#xd5;" horiz-adv-x="525" 
d="M121 775v84q39 22 70 22q25 0 71 -23q35 -18 60 -18q35 1 80 28v-83q-46 -28 -84 -28q-27 0 -74 23q-34 17 -57 17q-31 -1 -66 -22zM39 195v329q0 53 45 108q60 72 152 73v-111q-52 -1 -78 -56q-8 -18 -8 -30v-313q0 -54 56 -80q17 -8 29 -8v-112q-57 0 -114 41
q-81 60 -82 159zM290 -5v112q26 0 54 24q30 27 31 64v313q0 30 -26 58q-25 27 -59 28v111q101 0 162 -87q35 -50 35 -94v-329q0 -111 -99 -170q-52 -30 -98 -30z" />
    <glyph glyph-name="Odieresis" unicode="&#xd6;" horiz-adv-x="525" 
d="M126 827q0 38 34 55q13 7 27 7q39 0 55 -36q6 -13 6 -26q0 -39 -34 -55q-13 -6 -27 -6q-39 0 -55 35q-6 13 -6 26zM276 827q0 38 34 55q13 7 27 7q39 0 55 -36q6 -13 6 -26q0 -39 -34 -55q-13 -6 -27 -6q-39 0 -55 35q-6 13 -6 26zM39 195v329q0 53 45 108q60 72 152 73
v-111q-52 -1 -78 -56q-8 -18 -8 -30v-313q0 -54 56 -80q17 -8 29 -8v-112q-57 0 -114 41q-81 60 -82 159zM290 -5v112q26 0 54 24q30 27 31 64v313q0 30 -26 58q-25 27 -59 28v111q101 0 162 -87q35 -50 35 -94v-329q0 -111 -99 -170q-52 -30 -98 -30z" />
    <glyph glyph-name="multiply" unicode="&#xd7;" horiz-adv-x="638" 
d="M176 177l-72 72l168 168l-168 169l71 72l168 -168l168 167l72 -72l-168 -167l168 -168l-72 -72l-168 167z" />
    <glyph glyph-name="Oslash" unicode="&#xd8;" horiz-adv-x="665" 
d="M7 122l101 91v311q0 53 45 108q60 72 152 73v-111q-55 -1 -78 -57q-7 -18 -7 -33v-190l223 201q-7 49 -46 70q-17 8 -38 9v111q101 0 160 -86q8 -12 14 -23l59 53l62 -70l-98 -89v-295q0 -111 -99 -170q-52 -30 -98 -30v112q27 0 55 24q29 27 30 64v194l-223 -202
q4 -50 58 -73q15 -7 25 -7v-112q-56 0 -114 41q-39 30 -60 70l-60 -54z" />
    <glyph glyph-name="Ugrave" unicode="&#xd9;" horiz-adv-x="516" 
d="M147 918h102l37 -152h-73zM34 193v507h112v-507q1 -56 61 -80q15 -6 25 -6v-112q-57 0 -115 40q-82 59 -83 158zM284 -5v112q26 0 54 22q31 26 32 64v507h111v-507q0 -113 -100 -169q-51 -29 -97 -29z" />
    <glyph glyph-name="Uacute" unicode="&#xda;" horiz-adv-x="516" 
d="M219 766l37 152h102l-66 -152h-73zM34 193v507h112v-507q1 -56 61 -80q15 -6 25 -6v-112q-57 0 -115 40q-82 59 -83 158zM284 -5v112q26 0 54 22q31 26 32 64v507h111v-507q0 -113 -100 -169q-51 -29 -97 -29z" />
    <glyph glyph-name="Ucircumflex" unicode="&#xdb;" horiz-adv-x="516" 
d="M152 766l75 152h56l77 -152h-69l-36 73l-35 -73h-68zM34 193v507h112v-507q1 -56 61 -80q15 -6 25 -6v-112q-57 0 -115 40q-82 59 -83 158zM284 -5v112q26 0 54 22q31 26 32 64v507h111v-507q0 -113 -100 -169q-51 -29 -97 -29z" />
    <glyph glyph-name="Udieresis" unicode="&#xdc;" horiz-adv-x="516" 
d="M119 827q0 38 34 55q13 7 27 7q39 0 55 -36q6 -13 6 -26q0 -39 -34 -55q-13 -6 -27 -6q-39 0 -55 35q-6 13 -6 26zM269 827q0 38 34 55q13 7 27 7q39 0 55 -36q6 -13 6 -26q0 -39 -34 -55q-13 -6 -27 -6q-39 0 -55 35q-6 13 -6 26zM34 193v507h112v-507q1 -56 61 -80
q15 -6 25 -6v-112q-57 0 -115 40q-82 59 -83 158zM284 -5v112q26 0 54 22q31 26 32 64v507h111v-507q0 -113 -100 -169q-51 -29 -97 -29z" />
    <glyph glyph-name="Yacute" unicode="&#xdd;" horiz-adv-x="461" 
d="M189 766l37 152h102l-66 -152h-73zM17 700h116l146 -447v-253h-115v252zM256 505l73 195h115l-128 -375h-8z" />
    <glyph glyph-name="Thorn" unicode="&#xde;" horiz-adv-x="474" 
d="M41 0v700h111v-700h-111zM205 208v110h36q93 2 94 80q-1 82 -94 82h-36v110q174 2 220 -82q22 -41 23 -107q1 -136 -99 -174q-55 -21 -144 -19z" />
    <glyph glyph-name="germandbls" unicode="&#xdf;" horiz-adv-x="522" 
d="M26 0v457q1 88 12 126q37 121 188 122q165 0 179 -156q1 -15 1 -31v-113l-60 1q-34 -4 -40 -36q-1 -4 -1 -6q0 -29 50 -51q16 -7 36 -14q104 -37 105 -141q0 -93 -76 -135q-42 -23 -93 -23h-128v88h120q58 2 77 38q6 13 6 27q0 37 -34 56q-9 5 -30 15q-20 9 -30 14
q-61 30 -80 65q-16 29 -16 68q0 79 79 110q12 5 24 8v12q0 91 -61 105q-13 3 -29 3q-95 -2 -96 -111v-498h-103z" />
    <glyph glyph-name="agrave" unicode="&#xe0;" horiz-adv-x="470" 
d="M113 769h102l37 -152h-73zM29 129q0 -56 54 -95q47 -34 112 -34v99q-74 1 -75 52v21q1 20 12 28q8 6 94 29q60 16 84 29v-99q0 -48 -45 -58q-9 -2 -19 -2v-99q66 1 106 34q35 -34 88 -34v100q-26 2 -27 32v269q0 60 -48 107t-120 47v-98q45 0 60 -37q5 -12 5 -25v-21
q0 -26 -110 -60q-104 -32 -118 -40q-52 -31 -53 -96v-49zM37 416l92 -35q0 57 44 72q11 4 22 4v98q-69 0 -119 -50q-39 -40 -39 -89z" />
    <glyph glyph-name="aacute" unicode="&#xe1;" horiz-adv-x="470" 
d="M180 617l37 152h102l-66 -152h-73zM29 129q0 -56 54 -95q47 -34 112 -34v99q-74 1 -75 52v21q1 20 12 28q8 6 94 29q60 16 84 29v-99q0 -48 -45 -58q-9 -2 -19 -2v-99q66 1 106 34q35 -34 88 -34v100q-26 2 -27 32v269q0 60 -48 107t-120 47v-98q45 0 60 -37q5 -12 5 -25
v-21q0 -26 -110 -60q-104 -32 -118 -40q-52 -31 -53 -96v-49zM37 416l92 -35q0 57 44 72q11 4 22 4v98q-69 0 -119 -50q-39 -40 -39 -89z" />
    <glyph glyph-name="acircumflex" unicode="&#xe2;" horiz-adv-x="470" 
d="M112 617l75 152h56l77 -152h-69l-36 73l-35 -73h-68zM29 129q0 -56 54 -95q47 -34 112 -34v99q-74 1 -75 52v21q1 20 12 28q8 6 94 29q60 16 84 29v-99q0 -48 -45 -58q-9 -2 -19 -2v-99q66 1 106 34q35 -34 88 -34v100q-26 2 -27 32v269q0 60 -48 107t-120 47v-98
q45 0 60 -37q5 -12 5 -25v-21q0 -26 -110 -60q-104 -32 -118 -40q-52 -31 -53 -96v-49zM37 416l92 -35q0 57 44 72q11 4 22 4v98q-69 0 -119 -50q-39 -40 -39 -89z" />
    <glyph glyph-name="atilde" unicode="&#xe3;" horiz-adv-x="470" 
d="M78 634v84q39 22 70 22q25 0 71 -23q35 -18 60 -18q35 1 80 28v-83q-46 -28 -84 -28q-27 0 -74 23q-34 17 -57 17q-31 -1 -66 -22zM29 129q0 -56 54 -95q47 -34 112 -34v99q-74 1 -75 52v21q1 20 12 28q8 6 94 29q60 16 84 29v-99q0 -48 -45 -58q-9 -2 -19 -2v-99
q66 1 106 34q35 -34 88 -34v100q-26 2 -27 32v269q0 60 -48 107t-120 47v-98q45 0 60 -37q5 -12 5 -25v-21q0 -26 -110 -60q-104 -32 -118 -40q-52 -31 -53 -96v-49zM37 416l92 -35q0 57 44 72q11 4 22 4v98q-69 0 -119 -50q-39 -40 -39 -89z" />
    <glyph glyph-name="adieresis" unicode="&#xe4;" horiz-adv-x="470" 
d="M80 677q0 38 34 55q13 7 27 7q39 0 55 -36q6 -13 6 -26q0 -39 -34 -55q-13 -6 -27 -6q-39 0 -55 35q-6 13 -6 26zM230 677q0 38 34 55q13 7 27 7q39 0 55 -36q6 -13 6 -26q0 -39 -34 -55q-13 -6 -27 -6q-39 0 -55 35q-6 13 -6 26zM29 129q0 -56 54 -95q47 -34 112 -34v99
q-74 1 -75 52v21q1 20 12 28q8 6 94 29q60 16 84 29v-99q0 -48 -45 -58q-9 -2 -19 -2v-99q66 1 106 34q35 -34 88 -34v100q-26 2 -27 32v269q0 60 -48 107t-120 47v-98q45 0 60 -37q5 -12 5 -25v-21q0 -26 -110 -60q-104 -32 -118 -40q-52 -31 -53 -96v-49zM37 416l92 -35
q0 57 44 72q11 4 22 4v98q-69 0 -119 -50q-39 -40 -39 -89z" />
    <glyph glyph-name="aring" unicode="&#xe5;" horiz-adv-x="470" 
d="M132 713q0 48 42 75q22 13 46 13q48 0 75 -42q13 -22 13 -46q0 -48 -42 -75q-22 -13 -46 -13q-48 0 -75 42q-13 22 -13 46zM188 713q0 -24 22 -31q6 -1 10 -1q24 0 31 22q1 6 1 10q0 24 -22 31q-6 1 -10 1q-24 0 -31 -22q-1 -6 -1 -10zM29 129q0 -56 54 -95
q47 -34 112 -34v99q-74 1 -75 52v21q1 20 12 28q8 6 94 29q60 16 84 29v-99q0 -48 -45 -58q-9 -2 -19 -2v-99q66 1 106 34q35 -34 88 -34v100q-26 2 -27 32v269q0 60 -48 107t-120 47v-98q45 0 60 -37q5 -12 5 -25v-21q0 -26 -110 -60q-104 -32 -118 -40q-52 -31 -53 -96
v-49zM37 416l92 -35q0 57 44 72q11 4 22 4v98q-69 0 -119 -50q-39 -40 -39 -89z" />
    <glyph glyph-name="ae" unicode="&#xe6;" horiz-adv-x="599" 
d="M26 113q0 -54 56 -88q42 -24 99 -24v91q-70 2 -71 55v15q-1 32 69 52l33 9q61 15 78 27v-101q0 -38 -35 -52q-13 -5 -27 -5v-91q75 1 108 49q46 -50 140 -50q123 0 170 81q11 18 16 39l-81 30q-17 -62 -107 -63q-56 0 -80 35q-10 15 -10 32v65h277v159q0 61 -64 105
q-47 33 -98 33v-92q40 0 61 -31q9 -15 9 -31v-49h-185v49q0 33 32 51q16 10 36 10v93q-67 -1 -113 -46q-47 49 -133 49q-81 0 -131 -53q-35 -38 -35 -87l78 -22q0 55 57 71q17 4 34 4q50 0 73 -31q8 -13 8 -25v-22q0 -27 -65 -49q-12 -4 -38 -12q-100 -30 -132 -59
q-29 -26 -29 -61v-60z" />
    <glyph glyph-name="ccedilla" unicode="&#xe7;" horiz-adv-x="449" 
d="M113 -191v75q64 0 79 49q4 13 4 27h77q0 -83 -61 -124q-40 -27 -99 -27zM38 151q0 -52 41 -97q50 -54 132 -54v102q-52 0 -65 35q-3 7 -3 14v251q0 27 29 42q17 9 39 9v101q-98 0 -148 -78q-24 -37 -25 -72v-253zM256 452q48 0 58 -45q2 -8 2 -16v-28l98 37q0 74 -60 121
q-44 33 -98 33v-102zM256 -1q71 -2 125 53q45 46 45 102l-98 37v-27q-5 -62 -72 -63v-102z" />
    <glyph glyph-name="egrave" unicode="&#xe8;" horiz-adv-x="475" 
d="M134 766h102l37 -152h-73zM38 151v254q2 49 45 95q53 53 128 54v-100q-39 0 -59 -35q-7 -12 -7 -22v-60h190v59q0 42 -46 55q-13 4 -26 4v99q71 0 126 -49q46 -44 47 -99v-172h-291v-83q0 -26 29 -43q18 -10 39 -10v-98q-93 0 -147 75q-28 41 -28 76zM263 0v99
q58 0 80 49q3 7 5 13l89 -32q-18 -68 -81 -105q-43 -24 -93 -24z" />
    <glyph glyph-name="eacute" unicode="&#xe9;" horiz-adv-x="475" 
d="M201 614l37 152h102l-66 -152h-73zM38 151v254q2 49 45 95q53 53 128 54v-100q-39 0 -59 -35q-7 -12 -7 -22v-60h190v59q0 42 -46 55q-13 4 -26 4v99q71 0 126 -49q46 -44 47 -99v-172h-291v-83q0 -26 29 -43q18 -10 39 -10v-98q-93 0 -147 75q-28 41 -28 76zM263 0v99
q58 0 80 49q3 7 5 13l89 -32q-18 -68 -81 -105q-43 -24 -93 -24z" />
    <glyph glyph-name="ecircumflex" unicode="&#xea;" horiz-adv-x="475" 
d="M133 614l75 152h56l77 -152h-69l-36 73l-35 -73h-68zM38 151v254q2 49 45 95q53 53 128 54v-100q-39 0 -59 -35q-7 -12 -7 -22v-60h190v59q0 42 -46 55q-13 4 -26 4v99q71 0 126 -49q46 -44 47 -99v-172h-291v-83q0 -26 29 -43q18 -10 39 -10v-98q-93 0 -147 75
q-28 41 -28 76zM263 0v99q58 0 80 49q3 7 5 13l89 -32q-18 -68 -81 -105q-43 -24 -93 -24z" />
    <glyph glyph-name="edieresis" unicode="&#xeb;" horiz-adv-x="475" 
d="M101 674q0 38 34 55q13 7 27 7q39 0 55 -36q6 -13 6 -26q0 -39 -34 -55q-13 -6 -27 -6q-39 0 -55 35q-6 13 -6 26zM251 674q0 38 34 55q13 7 27 7q39 0 55 -36q6 -13 6 -26q0 -39 -34 -55q-13 -6 -27 -6q-39 0 -55 35q-6 13 -6 26zM38 151v254q2 49 45 95q53 53 128 54
v-100q-39 0 -59 -35q-7 -12 -7 -22v-60h190v59q0 42 -46 55q-13 4 -26 4v99q71 0 126 -49q46 -44 47 -99v-172h-291v-83q0 -26 29 -43q18 -10 39 -10v-98q-93 0 -147 75q-28 41 -28 76zM263 0v99q58 0 80 49q3 7 5 13l89 -32q-18 -68 -81 -105q-43 -24 -93 -24z" />
    <glyph glyph-name="igrave" unicode="&#xec;" horiz-adv-x="174" 
d="M-16 766h102l37 -152h-73zM38 0v516h98v-516h-98z" />
    <glyph glyph-name="iacute" unicode="&#xed;" horiz-adv-x="174" 
d="M51 614l37 152h102l-66 -152h-73zM38 0v516h98v-516h-98z" />
    <glyph glyph-name="icircumflex" unicode="&#xee;" horiz-adv-x="174" 
d="M-17 614l75 152h56l77 -152h-69l-36 73l-35 -73h-68zM38 0v516h98v-516h-98z" />
    <glyph glyph-name="idieresis" unicode="&#xef;" horiz-adv-x="174" 
d="M-49 674q0 38 34 55q13 7 27 7q39 0 55 -36q6 -13 6 -26q0 -39 -34 -55q-13 -6 -27 -6q-39 0 -55 35q-6 13 -6 26zM101 674q0 38 34 55q13 7 27 7q39 0 55 -36q6 -13 6 -26q0 -39 -34 -55q-13 -6 -27 -6q-39 0 -55 35q-6 13 -6 26zM38 0v516h98v-516h-98z" />
    <glyph glyph-name="eth" unicode="&#xf0;" horiz-adv-x="420" 
d="M28 141v235q0 46 42 89q49 51 122 51v-95q-50 0 -64 -41q-3 -9 -3 -17v-209q0 -36 33 -52q16 -8 34 -8v-95q-92 0 -141 74q-23 36 -23 68zM192 658v56q90 -17 140 -76l53 17l16 -52l-38 -12q29 -62 29 -151v-299q0 -47 -41 -91q-47 -50 -118 -51v95q47 0 61 40q3 10 3 18
v214q0 38 -37 51q-13 4 -27 4v95q36 0 61 -16q-2 40 -12 66l-59 -17l-16 51l51 16q-22 23 -66 42z" />
    <glyph glyph-name="ntilde" unicode="&#xf1;" 
d="M97 634v84q39 22 70 22q25 0 71 -23q35 -18 60 -18q35 1 80 28v-83q-46 -28 -84 -28q-27 0 -74 23q-34 17 -57 17q-31 -1 -66 -22zM38 0v404q0 48 44 95q54 56 134 57v-106q-46 0 -64 -36q-6 -12 -6 -23v-391h-108zM260 450v106q95 0 149 -77q29 -40 29 -75v-404h-108
v391q0 30 -29 48q-18 11 -41 11z" />
    <glyph glyph-name="ograve" unicode="&#xf2;" horiz-adv-x="466" 
d="M132 766h102l37 -152h-73zM38 151v253q0 49 44 95q52 55 131 55v-103q-52 0 -67 -43q-3 -9 -3 -18v-225q0 -38 35 -55q16 -8 36 -8v-103q-97 0 -150 78q-26 39 -26 74zM258 -1v103q48 0 63 41q4 11 4 20v227q0 42 -39 56q-13 5 -29 5v103q94 0 145 -76q26 -39 26 -74
v-253q0 -49 -42 -96q-51 -55 -128 -56z" />
    <glyph glyph-name="oacute" unicode="&#xf3;" horiz-adv-x="466" 
d="M199 614l37 152h102l-66 -152h-73zM38 151v253q0 49 44 95q52 55 131 55v-103q-52 0 -67 -43q-3 -9 -3 -18v-225q0 -38 35 -55q16 -8 36 -8v-103q-97 0 -150 78q-26 39 -26 74zM258 -1v103q48 0 63 41q4 11 4 20v227q0 42 -39 56q-13 5 -29 5v103q94 0 145 -76
q26 -39 26 -74v-253q0 -49 -42 -96q-51 -55 -128 -56z" />
    <glyph glyph-name="ocircumflex" unicode="&#xf4;" horiz-adv-x="466" 
d="M132 614l75 152h56l77 -152h-69l-36 73l-35 -73h-68zM38 151v253q0 49 44 95q52 55 131 55v-103q-52 0 -67 -43q-3 -9 -3 -18v-225q0 -38 35 -55q16 -8 36 -8v-103q-97 0 -150 78q-26 39 -26 74zM258 -1v103q48 0 63 41q4 11 4 20v227q0 42 -39 56q-13 5 -29 5v103
q94 0 145 -76q26 -39 26 -74v-253q0 -49 -42 -96q-51 -55 -128 -56z" />
    <glyph glyph-name="otilde" unicode="&#xf5;" horiz-adv-x="466" 
d="M95 631v84q39 22 70 22q25 0 71 -23q35 -18 60 -18q35 1 80 28v-83q-46 -28 -84 -28q-27 0 -74 23q-34 17 -57 17q-31 -1 -66 -22zM38 151v253q0 49 44 95q52 55 131 55v-103q-52 0 -67 -43q-3 -9 -3 -18v-225q0 -38 35 -55q16 -8 36 -8v-103q-97 0 -150 78
q-26 39 -26 74zM258 -1v103q48 0 63 41q4 11 4 20v227q0 42 -39 56q-13 5 -29 5v103q94 0 145 -76q26 -39 26 -74v-253q0 -49 -42 -96q-51 -55 -128 -56z" />
    <glyph glyph-name="odieresis" unicode="&#xf6;" horiz-adv-x="466" 
d="M99 674q0 38 34 55q13 7 27 7q39 0 55 -36q6 -13 6 -26q0 -39 -34 -55q-13 -6 -27 -6q-39 0 -55 35q-6 13 -6 26zM249 674q0 38 34 55q13 7 27 7q39 0 55 -36q6 -13 6 -26q0 -39 -34 -55q-13 -6 -27 -6q-39 0 -55 35q-6 13 -6 26zM38 151v253q0 49 44 95q52 55 131 55
v-103q-52 0 -67 -43q-3 -9 -3 -18v-225q0 -38 35 -55q16 -8 36 -8v-103q-97 0 -150 78q-26 39 -26 74zM258 -1v103q48 0 63 41q4 11 4 20v227q0 42 -39 56q-13 5 -29 5v103q94 0 145 -76q26 -39 26 -74v-253q0 -49 -42 -96q-51 -55 -128 -56z" />
    <glyph glyph-name="divide" unicode="&#xf7;" horiz-adv-x="650" 
d="M77 241v101h450v-101h-450zM246 464q0 40 35 58q14 7 29 7q40 0 58 -36q7 -14 7 -29q0 -40 -36 -58q-14 -7 -29 -7q-38 0 -56 34q-8 15 -8 31zM246 144q0 40 35 58q14 7 29 7q40 0 58 -36q7 -14 7 -29q0 -40 -36 -58q-14 -7 -29 -7q-38 0 -56 34q-8 15 -8 31z" />
    <glyph glyph-name="oslash" unicode="&#xf8;" horiz-adv-x="475" 
d="M4 78l64 58q-1 3 -1 14v226q0 46 41 89q50 51 123 51v-95q-50 0 -64 -41q-3 -9 -3 -17v-139l169 156q-14 40 -61 41v95q88 -1 133 -70l44 40l46 -51l-65 -59v-6q1 -6 1 -7v-222q0 -47 -41 -91q-48 -50 -118 -51v95q47 0 61 40q3 10 3 18v137l-168 -154q13 -40 63 -41v-95
q-91 1 -136 69l-45 -41z" />
    <glyph glyph-name="ugrave" unicode="&#xf9;" 
d="M135 766h102l37 -152h-73zM38 147v407h108v-395q0 -32 32 -49q17 -9 38 -9v-106q-97 0 -151 76q-27 39 -27 76zM260 -5v106q50 0 66 39q4 10 4 19v395h108v-407q0 -47 -42 -93q-55 -58 -136 -59z" />
    <glyph glyph-name="uacute" unicode="&#xfa;" 
d="M248 614l37 152h102l-66 -152h-73zM38 147v407h108v-395q0 -32 32 -49q17 -9 38 -9v-106q-97 0 -151 76q-27 39 -27 76zM260 -5v106q50 0 66 39q4 10 4 19v395h108v-407q0 -47 -42 -93q-55 -58 -136 -59z" />
    <glyph glyph-name="ucircumflex" unicode="&#xfb;" 
d="M134 614l75 152h56l77 -152h-69l-36 73l-35 -73h-68zM38 147v407h108v-395q0 -32 32 -49q17 -9 38 -9v-106q-97 0 -151 76q-27 39 -27 76zM260 -5v106q50 0 66 39q4 10 4 19v395h108v-407q0 -47 -42 -93q-55 -58 -136 -59z" />
    <glyph glyph-name="udieresis" unicode="&#xfc;" 
d="M102 674q0 38 34 55q13 7 27 7q39 0 55 -36q6 -13 6 -26q0 -39 -34 -55q-13 -6 -27 -6q-39 0 -55 35q-6 13 -6 26zM252 674q0 38 34 55q13 7 27 7q39 0 55 -36q6 -13 6 -26q0 -39 -34 -55q-13 -6 -27 -6q-39 0 -55 35q-6 13 -6 26zM38 147v407h108v-395q0 -32 32 -49
q17 -9 38 -9v-106q-97 0 -151 76q-27 39 -27 76zM260 -5v106q50 0 66 39q4 10 4 19v395h108v-407q0 -47 -42 -93q-55 -58 -136 -59z" />
    <glyph glyph-name="yacute" unicode="&#xfd;" horiz-adv-x="418" 
d="M219 619l37 152h102l-66 -152h-73zM6 554h114l143 -433l-105 -316h-110l99 318zM233 367l69 187h113l-124 -344h-11z" />
    <glyph glyph-name="thorn" unicode="&#xfe;" horiz-adv-x="422" 
d="M30 -182v882h100v-882h-100zM173 423v95h55q90 0 141 -68q27 -38 27 -73v-238q0 -52 -45 -94q-47 -45 -119 -45h-52v95h54q61 7 65 52v225q0 33 -39 46q-15 5 -32 5h-55z" />
    <glyph glyph-name="ydieresis" unicode="&#xff;" horiz-adv-x="418" 
d="M73 680q0 38 34 55q13 7 27 7q39 0 55 -36q6 -13 6 -26q0 -39 -34 -55q-13 -6 -27 -6q-39 0 -55 35q-6 13 -6 26zM223 680q0 38 34 55q13 7 27 7q39 0 55 -36q6 -13 6 -26q0 -39 -34 -55q-13 -6 -27 -6q-39 0 -55 35q-6 13 -6 26zM6 554h114l143 -433l-105 -316h-110
l99 318zM233 367l69 187h113l-124 -344h-11z" />
    <glyph glyph-name="Amacron" unicode="&#x100;" horiz-adv-x="499" 
d="M104 766v66h316v-66h-316zM31 0l132 587h15l46 -212l-83 -375h-110zM216 100l23 109h75l-108 491h110l161 -700h-111l-22 100h-128z" />
    <glyph glyph-name="amacron" unicode="&#x101;" horiz-adv-x="470" 
d="M64 617v66h316v-66h-316zM29 129q0 -56 54 -95q47 -34 112 -34v99q-74 1 -75 52v21q1 20 12 28q8 6 94 29q60 16 84 29v-99q0 -48 -45 -58q-9 -2 -19 -2v-99q66 1 106 34q35 -34 88 -34v100q-26 2 -27 32v269q0 60 -48 107t-120 47v-98q45 0 60 -37q5 -12 5 -25v-21
q0 -26 -110 -60q-104 -32 -118 -40q-52 -31 -53 -96v-49zM37 416l92 -35q0 57 44 72q11 4 22 4v98q-69 0 -119 -50q-39 -40 -39 -89z" />
    <glyph glyph-name="Abreve" unicode="&#x102;" horiz-adv-x="499" 
d="M175 852h55q0 -24 22 -31q6 -1 10 -1q24 0 31 22q1 6 1 10h55q0 -46 -40 -72q-22 -14 -47 -14q-49 0 -75 43q-12 21 -12 43zM31 0l132 587h15l46 -212l-83 -375h-110zM216 100l23 109h75l-108 491h110l161 -700h-111l-22 100h-128z" />
    <glyph glyph-name="abreve" unicode="&#x103;" horiz-adv-x="470" 
d="M129 703h55q0 -24 22 -31q6 -1 10 -1q24 0 31 22q1 6 1 10h55q0 -46 -40 -72q-22 -14 -47 -14q-49 0 -75 43q-12 21 -12 43zM29 129q0 -56 54 -95q47 -34 112 -34v99q-74 1 -75 52v21q1 20 12 28q8 6 94 29q60 16 84 29v-99q0 -48 -45 -58q-9 -2 -19 -2v-99q66 1 106 34
q35 -34 88 -34v100q-26 2 -27 32v269q0 60 -48 107t-120 47v-98q45 0 60 -37q5 -12 5 -25v-21q0 -26 -110 -60q-104 -32 -118 -40q-52 -31 -53 -96v-49zM37 416l92 -35q0 57 44 72q11 4 22 4v98q-69 0 -119 -50q-39 -40 -39 -89z" />
    <glyph glyph-name="Aogonek" unicode="&#x104;" horiz-adv-x="499" 
d="M546 -191q-112 0 -148 88q-12 30 -12 63h77q0 -62 60 -74q12 -2 23 -2v-75zM31 0l132 587h15l46 -212l-83 -375h-110zM216 100l23 109h75l-108 491h110l161 -700h-111l-22 100h-128z" />
    <glyph glyph-name="aogonek" unicode="&#x105;" horiz-adv-x="470" 
d="M479 -191q-112 0 -148 88q-12 30 -12 63h77q0 -62 60 -74q12 -2 23 -2v-75zM29 129q0 -56 54 -95q47 -34 112 -34v99q-74 1 -75 52v21q1 20 12 28q8 6 94 29q60 16 84 29v-99q0 -48 -45 -58q-9 -2 -19 -2v-99q66 1 106 34q35 -34 88 -34v100q-26 2 -27 32v269
q0 60 -48 107t-120 47v-98q45 0 60 -37q5 -12 5 -25v-21q0 -26 -110 -60q-104 -32 -118 -40q-52 -31 -53 -96v-49zM37 416l92 -35q0 57 44 72q11 4 22 4v98q-69 0 -119 -50q-39 -40 -39 -89z" />
    <glyph glyph-name="Cacute" unicode="&#x106;" horiz-adv-x="500" 
d="M234 766l37 152h102l-66 -152h-73zM39 181q0 -58 43 -113q58 -72 155 -73v111q-59 0 -81 52q-6 14 -6 23v337q0 27 25 52q26 23 62 24v111q-113 0 -170 -96q-28 -47 -28 -91v-337zM288 -5q79 0 137 62q50 55 50 125l-108 26q0 -11 -1 -14q0 -21 -5 -36q-8 -20 -26 -33
t-33 -16l-14 -3v-111zM288 594l26 -8q34 -17 47 -49q5 -15 5 -34v-15l109 28q0 77 -64 137q-57 52 -123 52v-111z" />
    <glyph glyph-name="cacute" unicode="&#x107;" horiz-adv-x="449" 
d="M196 614l37 152h102l-66 -152h-73zM38 151q0 -52 41 -97q50 -54 132 -54v102q-52 0 -65 35q-3 7 -3 14v251q0 27 29 42q17 9 39 9v101q-98 0 -148 -78q-24 -37 -25 -72v-253zM256 452q48 0 58 -45q2 -8 2 -16v-28l98 37q0 74 -60 121q-44 33 -98 33v-102zM256 -1
q71 -2 125 53q45 46 45 102l-98 37v-27q-5 -62 -72 -63v-102z" />
    <glyph glyph-name="Ccaron" unicode="&#x10c;" horiz-adv-x="500" 
d="M158 918h68l35 -73l36 73h69l-77 -152h-56zM39 181q0 -58 43 -113q58 -72 155 -73v111q-59 0 -81 52q-6 14 -6 23v337q0 27 25 52q26 23 62 24v111q-113 0 -170 -96q-28 -47 -28 -91v-337zM288 -5q79 0 137 62q50 55 50 125l-108 26q0 -11 -1 -14q0 -21 -5 -36
q-8 -20 -26 -33t-33 -16l-14 -3v-111zM288 594l26 -8q34 -17 47 -49q5 -15 5 -34v-15l109 28q0 77 -64 137q-57 52 -123 52v-111z" />
    <glyph glyph-name="ccaron" unicode="&#x10d;" horiz-adv-x="449" 
d="M129 766h68l35 -73l36 73h69l-77 -152h-56zM38 151q0 -52 41 -97q50 -54 132 -54v102q-52 0 -65 35q-3 7 -3 14v251q0 27 29 42q17 9 39 9v101q-98 0 -148 -78q-24 -37 -25 -72v-253zM256 452q48 0 58 -45q2 -8 2 -16v-28l98 37q0 74 -60 121q-44 33 -98 33v-102zM256 -1
q71 -2 125 53q45 46 45 102l-98 37v-27q-5 -62 -72 -63v-102z" />
    <glyph glyph-name="Dcaron" unicode="&#x10e;" horiz-adv-x="472" 
d="M134 918h68l35 -73l36 73h69l-77 -152h-56zM41 0v700h112v-700h-112zM205 0v111q115 0 117 84v2v306q0 60 -67 79q-23 7 -50 7v111q128 0 191 -84q37 -50 37 -113v-306q0 -139 -131 -182q-45 -15 -97 -15z" />
    <glyph glyph-name="dcaron" unicode="&#x10f;" horiz-adv-x="451" 
d="M497 589l37 152h101l-37 -152h-101zM30 151v253q1 51 45 97q49 51 117 52h58v-104h-58q-36 0 -53 -33q-5 -10 -5 -17v-246q0 -22 26 -39q16 -11 34 -11h56v-103h-56q-91 0 -140 79q-24 39 -24 72zM300 0v711h110v-711h-110z" />
    <glyph glyph-name="Dcroat" unicode="&#x110;" horiz-adv-x="487" 
d="M26 304v102h57v294h111v-294h56v-102h-56v-304h-111v304h-57zM246 0v111q115 0 117 84v2v306q0 60 -67 79q-22 7 -50 7v111q127 0 191 -83q38 -51 38 -114v-306q0 -139 -131 -182q-46 -15 -98 -15z" />
    <glyph glyph-name="dcroat" unicode="&#x111;" horiz-adv-x="414" 
d="M29 141v236q1 49 44 93q45 45 107 46h56v-95h-56q-36 -1 -52 -32q-4 -9 -4 -16v-230q0 -21 26 -38q15 -10 32 -10h54v-95h-54q-85 0 -131 75q-22 36 -22 66zM205 575v79h78v57h101v-57h64v-79h-64v-575h-101v575h-78z" />
    <glyph glyph-name="Emacron" unicode="&#x112;" horiz-adv-x="444" 
d="M66 766v66h316v-66h-316zM41 0v700h364v-110h-252v-186h158v-112h-158v-181h252v-111h-364z" />
    <glyph glyph-name="emacron" unicode="&#x113;" horiz-adv-x="475" 
d="M79 614v66h316v-66h-316zM38 151v254q2 49 45 95q53 53 128 54v-100q-39 0 -59 -35q-7 -12 -7 -22v-60h190v59q0 42 -46 55q-13 4 -26 4v99q71 0 126 -49q46 -44 47 -99v-172h-291v-83q0 -26 29 -43q18 -10 39 -10v-98q-93 0 -147 75q-28 41 -28 76zM263 0v99q58 0 80 49
q3 7 5 13l89 -32q-18 -68 -81 -105q-43 -24 -93 -24z" />
    <glyph glyph-name="Edotaccent" unicode="&#x116;" horiz-adv-x="444" 
d="M162 828q0 40 34 57q14 6 28 6q39 0 56 -35q6 -14 6 -28q0 -40 -35 -56q-13 -6 -27 -6q-40 0 -56 35q-6 13 -6 27zM41 0v700h364v-110h-252v-186h158v-112h-158v-181h252v-111h-364z" />
    <glyph glyph-name="edotaccent" unicode="&#x117;" horiz-adv-x="475" 
d="M175 676q0 40 34 57q14 6 28 6q39 0 56 -35q6 -14 6 -28q0 -40 -35 -56q-13 -6 -27 -6q-40 0 -56 35q-6 13 -6 27zM38 151v254q2 49 45 95q53 53 128 54v-100q-39 0 -59 -35q-7 -12 -7 -22v-60h190v59q0 42 -46 55q-13 4 -26 4v99q71 0 126 -49q46 -44 47 -99v-172h-291
v-83q0 -26 29 -43q18 -10 39 -10v-98q-93 0 -147 75q-28 41 -28 76zM263 0v99q58 0 80 49q3 7 5 13l89 -32q-18 -68 -81 -105q-43 -24 -93 -24z" />
    <glyph glyph-name="Eogonek" unicode="&#x118;" horiz-adv-x="444" 
d="M421 -191v75q-64 0 -79 49q-4 13 -4 27h-77q0 -83 61 -124q40 -27 99 -27zM41 0v700h364v-110h-252v-186h158v-112h-158v-181h252v-111h-364z" />
    <glyph glyph-name="eogonek" unicode="&#x119;" horiz-adv-x="475" 
d="M362 -191v75q-64 0 -79 49q-4 13 -4 27h-77q0 -83 61 -124q40 -27 99 -27zM38 151v254q2 49 45 95q53 53 128 54v-100q-39 0 -59 -35q-7 -12 -7 -22v-60h190v59q0 42 -46 55q-13 4 -26 4v99q71 0 126 -49q46 -44 47 -99v-172h-291v-83q0 -26 29 -43q18 -10 39 -10v-98
q-93 0 -147 75q-28 41 -28 76zM263 0v99q58 0 80 49q3 7 5 13l89 -32q-18 -68 -81 -105q-43 -24 -93 -24z" />
    <glyph glyph-name="Ecaron" unicode="&#x11a;" horiz-adv-x="444" 
d="M120 918h68l35 -73l36 73h69l-77 -152h-56zM41 0v700h364v-110h-252v-186h158v-112h-158v-181h252v-111h-364z" />
    <glyph glyph-name="ecaron" unicode="&#x11b;" horiz-adv-x="475" 
d="M133 766h68l35 -73l36 73h69l-77 -152h-56zM38 151v254q2 49 45 95q53 53 128 54v-100q-39 0 -59 -35q-7 -12 -7 -22v-60h190v59q0 42 -46 55q-13 4 -26 4v99q71 0 126 -49q46 -44 47 -99v-172h-291v-83q0 -26 29 -43q18 -10 39 -10v-98q-93 0 -147 75q-28 41 -28 76z
M263 0v99q58 0 80 49q3 7 5 13l89 -32q-18 -68 -81 -105q-43 -24 -93 -24z" />
    <glyph glyph-name="Gbreve" unicode="&#x11e;" horiz-adv-x="509" 
d="M174 852h55q0 -24 22 -31q6 -1 10 -1q24 0 31 22q1 6 1 10h55q0 -46 -40 -72q-22 -14 -47 -14q-49 0 -75 43q-12 21 -12 43zM39 192q0 -112 99 -168q51 -29 98 -29v111q-25 0 -54 22q-31 26 -32 64v316q0 41 34 68q23 17 52 18v111q-109 0 -167 -94q-26 -44 -30 -87v-332
zM287 -5q64 1 127 62q59 60 60 119v177h-187v-103h74v-60q0 -44 -46 -73q-17 -11 -28 -11v-111zM287 594q37 -1 61 -35q14 -22 16 -51v-32l110 40q0 77 -64 137q-57 52 -123 52v-111z" />
    <glyph glyph-name="gbreve" unicode="&#x11f;" horiz-adv-x="449" 
d="M131 706h55q0 -24 22 -31q6 -1 10 -1q24 0 31 22q1 6 1 10h55q0 -46 -40 -72q-22 -14 -47 -14q-49 0 -75 43q-12 21 -12 43zM23 -187l25 98h193q47 2 64 39q4 8 4 14v60q-40 -18 -66 -19v99q44 0 61 34q5 10 5 19v250q0 27 -31 44q-17 9 -35 9v99q35 0 66 -19v19h103
v-595q0 -43 -39 -90q-51 -60 -125 -61h-225zM33 155v256q1 47 42 93q50 54 125 55v-99q-43 0 -61 -36q-5 -9 -5 -16v-252q0 -26 29 -42q17 -9 37 -9v-100q-93 1 -143 79q-24 38 -24 71z" />
    <glyph glyph-name="uni0122" unicode="&#x122;" horiz-adv-x="509" 
d="M185 -218l37 152h101l-37 -152h-101zM39 192q0 -112 99 -168q51 -29 98 -29v111q-25 0 -54 22q-31 26 -32 64v316q0 41 34 68q23 17 52 18v111q-109 0 -167 -94q-26 -44 -30 -87v-332zM287 -5q64 1 127 62q59 60 60 119v177h-187v-103h74v-60q0 -44 -46 -73
q-17 -11 -28 -11v-111zM287 594q37 -1 61 -35q14 -22 16 -51v-32l110 40q0 77 -64 137q-57 52 -123 52v-111z" />
    <glyph glyph-name="uni0123" unicode="&#x123;" horiz-adv-x="449" 
d="M230 620l37 152h102l-66 -152h-73zM23 -187l25 98h193q47 2 64 39q4 8 4 14v60q-40 -18 -66 -19v99q44 0 61 34q5 10 5 19v250q0 27 -31 44q-17 9 -35 9v99q35 0 66 -19v19h103v-595q0 -43 -39 -90q-51 -60 -125 -61h-225zM33 155v256q1 47 42 93q50 54 125 55v-99
q-43 0 -61 -36q-5 -9 -5 -16v-252q0 -26 29 -42q17 -9 37 -9v-100q-93 1 -143 79q-24 38 -24 71z" />
    <glyph glyph-name="Imacron" unicode="&#x12a;" horiz-adv-x="196" 
d="M-60 766v66h316v-66h-316zM42 0v700h112v-700h-112z" />
    <glyph glyph-name="imacron" unicode="&#x12b;" horiz-adv-x="174" 
d="M-71 614v66h316v-66h-316zM38 0v516h98v-516h-98z" />
    <glyph glyph-name="Iogonek" unicode="&#x12e;" horiz-adv-x="196" 
d="M220 -189q-112 0 -148 88q-12 30 -12 63h77q0 -62 60 -74q12 -2 23 -2v-75zM42 0v700h112v-700h-112z" />
    <glyph glyph-name="iogonek" unicode="&#x12f;" horiz-adv-x="214" 
d="M230 -190q-112 0 -148 88q-12 30 -12 63h77q0 -62 60 -74q12 -2 23 -2v-75zM48 631q0 37 33 53q13 6 26 6q38 0 54 -33q6 -13 6 -26q0 -36 -34 -52q-13 -6 -26 -6q-36 0 -53 32q-6 12 -6 26zM55 0v533h107v-533h-107z" />
    <glyph glyph-name="Idotaccent" unicode="&#x130;" horiz-adv-x="196" 
d="M36 828q0 40 34 57q14 6 28 6q39 0 56 -35q6 -14 6 -28q0 -40 -35 -56q-13 -6 -27 -6q-40 0 -56 35q-6 13 -6 27zM42 0v700h112v-700h-112z" />
    <glyph glyph-name="dotlessi" unicode="&#x131;" horiz-adv-x="174" 
d="M38 0v516h98v-516h-98z" />
    <glyph glyph-name="uni0136" unicode="&#x136;" horiz-adv-x="489" 
d="M172 -213l37 152h101l-37 -152h-101zM41 0v700h112v-700h-112zM195 341l160 359h113l-160 -359l164 -341h-112z" />
    <glyph glyph-name="uni0137" unicode="&#x137;" horiz-adv-x="488" 
d="M170 -213l37 152h101l-37 -152h-101zM41 0v711h110v-711h-110zM178 279l167 275h122l-170 -275l171 -279h-121z" />
    <glyph glyph-name="Lacute" unicode="&#x139;" horiz-adv-x="434" 
d="M61 766l37 152h102l-66 -152h-73zM41 0v700h112v-590h264v-110h-376z" />
    <glyph glyph-name="lacute" unicode="&#x13a;" horiz-adv-x="198" 
d="M62 802l37 152h102l-66 -152h-73zM42 0v711h114v-711h-114z" />
    <glyph glyph-name="uni013B" unicode="&#x13b;" horiz-adv-x="434" 
d="M158 -213l37 152h101l-37 -152h-101zM41 0v700h112v-590h264v-110h-376z" />
    <glyph glyph-name="uni013C" unicode="&#x13c;" horiz-adv-x="198" 
d="M21 -219l37 152h101l-37 -152h-101zM53 0v711h114v-711h-114z" />
    <glyph glyph-name="Lcaron" unicode="&#x13d;" horiz-adv-x="434" 
d="M236 553l37 152h101l-37 -152h-101zM41 0v700h112v-590h264v-110h-376z" />
    <glyph glyph-name="lcaron" unicode="&#x13e;" horiz-adv-x="325" 
d="M192 589l37 152h101l-37 -152h-101zM34 0v711h114v-711h-114z" />
    <glyph glyph-name="Lslash" unicode="&#x141;" horiz-adv-x="500" 
d="M33 293l96 74v333h112v-246l75 59l58 -76l-133 -103v-224h264v-110h-376v247l-37 -29z" />
    <glyph glyph-name="lslash" unicode="&#x142;" horiz-adv-x="424" 
d="M168 -6h114v365l103 80l-59 75l-44 -34v224h-114v-313l-109 -85l59 -75l50 39v-276z" />
    <glyph glyph-name="Nacute" unicode="&#x143;" horiz-adv-x="529" 
d="M228 766l37 152h102l-66 -152h-73zM42 0v522h8l104 -167v-355h-112zM42 628v72h93l352 -565v-135h-54zM375 408v292h112v-459h-8z" />
    <glyph glyph-name="nacute" unicode="&#x144;" 
d="M202 617l37 152h102l-66 -152h-73zM38 0v404q0 48 44 95q54 56 134 57v-106q-46 0 -64 -36q-6 -12 -6 -23v-391h-108zM260 450v106q95 0 149 -77q29 -40 29 -75v-404h-108v391q0 30 -29 48q-18 11 -41 11z" />
    <glyph glyph-name="uni0145" unicode="&#x145;" horiz-adv-x="529" 
d="M192 -213l37 152h101l-37 -152h-101zM42 0v522h8l104 -167v-355h-112zM42 628v72h93l352 -565v-135h-54zM375 408v292h112v-459h-8z" />
    <glyph glyph-name="uni0146" unicode="&#x146;" 
d="M166 -213l37 152h101l-37 -152h-101zM38 0v404q0 48 44 95q54 56 134 57v-106q-46 0 -64 -36q-6 -12 -6 -23v-391h-108zM260 450v106q95 0 149 -77q29 -40 29 -75v-404h-108v391q0 30 -29 48q-18 11 -41 11z" />
    <glyph glyph-name="Ncaron" unicode="&#x147;" horiz-adv-x="529" 
d="M161 918h68l35 -73l36 73h69l-77 -152h-56zM42 0v522h8l104 -167v-355h-112zM42 628v72h93l352 -565v-135h-54zM375 408v292h112v-459h-8z" />
    <glyph glyph-name="ncaron" unicode="&#x148;" 
d="M134 769h68l35 -73l36 73h69l-77 -152h-56zM38 0v404q0 48 44 95q54 56 134 57v-106q-46 0 -64 -36q-6 -12 -6 -23v-391h-108zM260 450v106q95 0 149 -77q29 -40 29 -75v-404h-108v391q0 30 -29 48q-18 11 -41 11z" />
    <glyph glyph-name="Omacron" unicode="&#x14c;" horiz-adv-x="525" 
d="M104 766v66h316v-66h-316zM39 195v329q0 53 45 108q60 72 152 73v-111q-52 -1 -78 -56q-8 -18 -8 -30v-313q0 -54 56 -80q17 -8 29 -8v-112q-57 0 -114 41q-81 60 -82 159zM290 -5v112q26 0 54 24q30 27 31 64v313q0 30 -26 58q-25 27 -59 28v111q101 0 162 -87
q35 -50 35 -94v-329q0 -111 -99 -170q-52 -30 -98 -30z" />
    <glyph glyph-name="omacron" unicode="&#x14d;" horiz-adv-x="466" 
d="M78 614v66h316v-66h-316zM38 151v253q0 49 44 95q52 55 131 55v-103q-52 0 -67 -43q-3 -9 -3 -18v-225q0 -38 35 -55q16 -8 36 -8v-103q-97 0 -150 78q-26 39 -26 74zM258 -1v103q48 0 63 41q4 11 4 20v227q0 42 -39 56q-13 5 -29 5v103q94 0 145 -76q26 -39 26 -74v-253
q0 -49 -42 -96q-51 -55 -128 -56z" />
    <glyph glyph-name="Ohungarumlaut" unicode="&#x150;" horiz-adv-x="525" 
d="M304 766l37 152h102l-66 -152h-73zM165 766l37 152h102l-66 -152h-73zM39 195v329q0 53 45 108q60 72 152 73v-111q-52 -1 -78 -56q-8 -18 -8 -30v-313q0 -54 56 -80q17 -8 29 -8v-112q-57 0 -114 41q-81 60 -82 159zM290 -5v112q26 0 54 24q30 27 31 64v313q0 30 -26 58
q-25 27 -59 28v111q101 0 162 -87q35 -50 35 -94v-329q0 -111 -99 -170q-52 -30 -98 -30z" />
    <glyph glyph-name="ohungarumlaut" unicode="&#x151;" horiz-adv-x="466" 
d="M277 614l37 152h102l-66 -152h-73zM138 614l37 152h102l-66 -152h-73zM38 151v253q0 49 44 95q52 55 131 55v-103q-52 0 -67 -43q-3 -9 -3 -18v-225q0 -38 35 -55q16 -8 36 -8v-103q-97 0 -150 78q-26 39 -26 74zM258 -1v103q48 0 63 41q4 11 4 20v227q0 42 -39 56
q-13 5 -29 5v103q94 0 145 -76q26 -39 26 -74v-253q0 -49 -42 -96q-51 -55 -128 -56z" />
    <glyph glyph-name="OE" unicode="&#x152;" horiz-adv-x="636" 
d="M11 199v315q0 91 76 144q60 42 146 42v-111q-91 -1 -108 -62q-3 -12 -3 -24v-304q1 -87 110 -87v-112q-111 0 -172 64q-49 52 -49 135zM285 0v112h49v477h-49v111h413v-110h-252v-186h158v-112h-158v-181h252v-111h-413z" />
    <glyph glyph-name="oe" unicode="&#x153;" horiz-adv-x="696" 
d="M346 47q53 -47 135 -47q127 0 173 85q8 17 13 35l-81 30q-17 -62 -107 -63q-54 0 -79 34q-11 16 -11 33v65h277v159q0 61 -63 105q-48 33 -98 33v-92q38 0 59 -31q10 -15 10 -31v-49h-185v49q1 34 33 52q17 9 35 9v93q-68 -1 -112 -46q-45 46 -113 46v-95q53 0 64 -43
q2 -8 2 -16v-211q0 -35 -32 -52q-15 -8 -34 -8v-92q70 1 114 48zM27 141q0 -43 39 -87q49 -54 125 -55v92q-47 0 -63 40q-4 11 -4 22v210q0 41 39 54q13 4 28 4v95q-92 0 -141 -74q-23 -35 -23 -66v-235z" />
    <glyph glyph-name="Racute" unicode="&#x154;" horiz-adv-x="506" 
d="M190 766l37 152h102l-66 -152h-73zM42 0v700h112v-700h-112zM205 295v100h56q87 0 96 83q1 9 1 17q0 84 -76 99q-14 2 -29 2h-48v104h61q133 -3 179 -99q19 -40 19 -92q-1 -111 -68 -161q52 -30 66 -107q2 -13 3 -24l17 -217h-104l-15 178q-8 84 -45 106q-22 11 -55 11
h-58z" />
    <glyph glyph-name="racute" unicode="&#x155;" horiz-adv-x="324" 
d="M157 614l37 152h102l-66 -152h-73zM42 0v554h108v-69q28 44 84 63q26 9 51 9h26l-25 -105q-59 -1 -103 -57q-33 -43 -33 -89v-306h-108z" />
    <glyph glyph-name="uni0156" unicode="&#x156;" horiz-adv-x="506" 
d="M188 -213l37 152h101l-37 -152h-101zM42 0v700h112v-700h-112zM205 295v100h56q87 0 96 83q1 9 1 17q0 84 -76 99q-14 2 -29 2h-48v104h61q133 -3 179 -99q19 -40 19 -92q-1 -111 -68 -161q52 -30 66 -107q2 -13 3 -24l17 -217h-104l-15 178q-8 84 -45 106q-22 11 -55 11
h-58z" />
    <glyph glyph-name="uni0157" unicode="&#x157;" horiz-adv-x="324" 
d="M8 -213l37 152h101l-37 -152h-101zM42 0v554h108v-69q28 44 84 63q26 9 51 9h26l-25 -105q-59 -1 -103 -57q-33 -43 -33 -89v-306h-108z" />
    <glyph glyph-name="Rcaron" unicode="&#x158;" horiz-adv-x="506" 
d="M110 918h68l35 -73l36 73h69l-77 -152h-56zM42 0v700h112v-700h-112zM205 295v100h56q87 0 96 83q1 9 1 17q0 84 -76 99q-14 2 -29 2h-48v104h61q133 -3 179 -99q19 -40 19 -92q-1 -111 -68 -161q52 -30 66 -107q2 -13 3 -24l17 -217h-104l-15 178q-8 84 -45 106
q-22 11 -55 11h-58z" />
    <glyph glyph-name="rcaron" unicode="&#x159;" horiz-adv-x="324" 
d="M73 766h68l35 -73l36 73h69l-77 -152h-56zM42 0v554h108v-69q28 44 84 63q26 9 51 9h26l-25 -105q-59 -1 -103 -57q-33 -43 -33 -89v-306h-108z" />
    <glyph glyph-name="Sacute" unicode="&#x15a;" horiz-adv-x="487" 
d="M194 766l37 152h102l-66 -152h-73zM23 158l101 36q6 -65 71 -90l12 -4v-103q-86 0 -146 74q-37 47 -38 87zM31 510q0 109 94 164q44 25 82 26v-105q-31 -5 -54 -36q-15 -22 -15 -47q0 -52 75 -83q18 -7 56 -19q48 -15 67 -24q87 -43 113 -102q15 -35 15 -77
q0 -88 -68 -153q-61 -57 -137 -57v103q38 2 68 36q25 30 25 69q0 61 -85 92q-18 7 -56 18q-42 12 -57 19q-84 37 -108 95q-15 35 -15 81zM259 595v105q86 0 144 -74q31 -40 33 -73l-103 -34q-4 30 -22.5 49t-34.5 23z" />
    <glyph glyph-name="sacute" unicode="&#x15b;" horiz-adv-x="443" 
d="M179 615l37 152h102l-66 -152h-73zM20 146l99 18q0 -39 41 -59q18 -9 35 -9v-101q-106 0 -153 75q-22 36 -22 76zM25 400q0 92 85 137q41 21 82 21v-99q-48 0 -64 -38q-4 -11 -4 -21q0 -30 52 -53q44 -18 134 -39q69 -14 98 -71q15 -31 15 -68q0 -99 -80 -146
q-46 -28 -105 -28v100q40 0 66 27q16 19 16 42q0 35 -78 59q-16 5 -50 14q-51 12 -72 20q-74 33 -90 97q-5 21 -5 46zM237 459v99q88 0 142 -65q34 -42 34 -88l-99 -17q0 51 -55 67q-12 4 -22 4z" />
    <glyph glyph-name="uni015E" unicode="&#x15e;" horiz-adv-x="487" 
d="M112 -191v75q64 0 79 49q4 13 4 27h77q0 -83 -61 -124q-40 -27 -99 -27zM23 158l101 36q6 -65 71 -90l12 -4v-103q-86 0 -146 74q-37 47 -38 87zM31 510q0 109 94 164q44 25 82 26v-105q-31 -5 -54 -36q-15 -22 -15 -47q0 -52 75 -83q18 -7 56 -19q48 -15 67 -24
q87 -43 113 -102q15 -35 15 -77q0 -88 -68 -153q-61 -57 -137 -57v103q38 2 68 36q25 30 25 69q0 61 -85 92q-18 7 -56 18q-42 12 -57 19q-84 37 -108 95q-15 35 -15 81zM259 595v105q86 0 144 -74q31 -40 33 -73l-103 -34q-4 30 -22.5 49t-34.5 23z" />
    <glyph glyph-name="uni015F" unicode="&#x15f;" horiz-adv-x="443" 
d="M125 -191v75q64 0 79 49q4 13 4 27h77q0 -83 -61 -124q-40 -27 -99 -27zM20 146l99 18q0 -39 41 -59q18 -9 35 -9v-101q-106 0 -153 75q-22 36 -22 76zM25 400q0 92 85 137q41 21 82 21v-99q-48 0 -64 -38q-4 -11 -4 -21q0 -30 52 -53q44 -18 134 -39q69 -14 98 -71
q15 -31 15 -68q0 -99 -80 -146q-46 -28 -105 -28v100q40 0 66 27q16 19 16 42q0 35 -78 59q-16 5 -50 14q-51 12 -72 20q-74 33 -90 97q-5 21 -5 46zM237 459v99q88 0 142 -65q34 -42 34 -88l-99 -17q0 51 -55 67q-12 4 -22 4z" />
    <glyph glyph-name="Scaron" unicode="&#x160;" horiz-adv-x="487" 
d="M118 918h68l35 -73l36 73h69l-77 -152h-56zM16 158l101 36q6 -65 71 -90l12 -4v-103q-86 0 -146 74q-37 47 -38 87zM24 510q0 109 94 164q44 25 82 26v-105q-31 -5 -54 -36q-15 -22 -15 -47q0 -52 75 -83q18 -7 56 -19q48 -15 67 -24q87 -43 113 -102q15 -35 15 -77
q0 -88 -68 -153q-61 -57 -137 -57v103q38 2 68 36q25 30 25 69q0 61 -85 92q-18 7 -56 18q-42 12 -57 19q-84 37 -108 95q-15 35 -15 81zM252 595v105q86 0 144 -74q31 -40 33 -73l-103 -34q-4 30 -22.5 49t-35.5 23z" />
    <glyph glyph-name="scaron" unicode="&#x161;" horiz-adv-x="443" 
d="M112 767h68l35 -73l36 73h69l-77 -152h-56zM21 146l99 18q0 -39 41 -59q18 -9 35 -9v-101q-106 0 -153 75q-22 36 -22 76zM26 400q0 92 85 137q41 21 82 21v-99q-48 0 -64 -38q-4 -11 -4 -21q0 -30 52 -53q44 -18 134 -39q69 -14 98 -71q15 -31 15 -68q0 -99 -80 -146
q-46 -28 -105 -28v100q40 0 66 27q16 19 16 42q0 35 -78 59q-16 5 -50 14q-51 12 -72 20q-74 33 -90 97q-5 21 -5 46zM238 459v99q88 0 142 -65q34 -42 34 -88l-99 -17q0 51 -55 67q-12 4 -22 4z" />
    <glyph glyph-name="uni0162" unicode="&#x162;" horiz-adv-x="466" 
d="M110 -191v75q64 0 79 49q4 13 4 27h77q0 -83 -61 -124q-40 -27 -99 -27zM16 591v109h433v-109h-160v-591h-112v591h-161z" />
    <glyph glyph-name="uni0163" unicode="&#x163;" horiz-adv-x="303" 
d="M135 -190v75q64 0 79 49q4 13 4 27h77q0 -83 -61 -124q-40 -27 -99 -27zM16 448v103h68v160h106v-160h66v-104h-66l1 -277q2 -60 60 -61h21l24 -109h-47q-127 0 -155 97q-10 35 -10 83v268h-68z" />
    <glyph glyph-name="Tcaron" unicode="&#x164;" horiz-adv-x="466" 
d="M128 918h68l35 -73l36 73h69l-77 -152h-56zM16 591v109h433v-109h-160v-591h-112v591h-161z" />
    <glyph glyph-name="tcaron" unicode="&#x165;" horiz-adv-x="458" 
d="M235 591l37 152h101l-37 -152h-101zM16 448v103h68v160h106v-160h66v-104h-66l1 -277q2 -60 60 -61h21l24 -109h-47q-127 0 -155 97q-10 35 -10 83v268h-68z" />
    <glyph glyph-name="Umacron" unicode="&#x16a;" horiz-adv-x="516" 
d="M98 766v66h316v-66h-316zM34 193v507h112v-507q1 -56 61 -80q15 -6 25 -6v-112q-57 0 -115 40q-82 59 -83 158zM284 -5v112q26 0 54 22q31 26 32 64v507h111v-507q0 -113 -100 -169q-51 -29 -97 -29z" />
    <glyph glyph-name="umacron" unicode="&#x16b;" 
d="M80 614v66h316v-66h-316zM38 147v407h108v-395q0 -32 32 -49q17 -9 38 -9v-106q-97 0 -151 76q-27 39 -27 76zM260 -5v106q50 0 66 39q4 10 4 19v395h108v-407q0 -47 -42 -93q-55 -58 -136 -59z" />
    <glyph glyph-name="Uring" unicode="&#x16e;" horiz-adv-x="516" 
d="M168 862q0 48 42 75q22 13 46 13q48 0 75 -42q13 -22 13 -46q0 -48 -42 -75q-22 -13 -46 -13q-48 0 -75 42q-13 22 -13 46zM224 862q0 -24 22 -31q6 -1 10 -1q24 0 31 22q1 6 1 10q0 24 -22 31q-6 1 -10 1q-24 0 -31 -22q-1 -6 -1 -10zM34 193v507h112v-507q1 -56 61 -80
q15 -6 25 -6v-112q-57 0 -115 40q-82 59 -83 158zM284 -5v112q26 0 54 22q31 26 32 64v507h111v-507q0 -113 -100 -169q-51 -29 -97 -29z" />
    <glyph glyph-name="uring" unicode="&#x16f;" 
d="M150 710q0 48 42 75q22 13 46 13q48 0 75 -42q13 -22 13 -46q0 -48 -42 -75q-22 -13 -46 -13q-48 0 -75 42q-13 22 -13 46zM206 710q0 -24 22 -31q6 -1 10 -1q24 0 31 22q1 6 1 10q0 24 -22 31q-6 1 -10 1q-24 0 -31 -22q-1 -6 -1 -10zM38 147v407h108v-395q0 -32 32 -49
q17 -9 38 -9v-106q-97 0 -151 76q-27 39 -27 76zM260 -5v106q50 0 66 39q4 10 4 19v395h108v-407q0 -47 -42 -93q-55 -58 -136 -59z" />
    <glyph glyph-name="Uhungarumlaut" unicode="&#x170;" horiz-adv-x="516" 
d="M306 766l37 152h102l-66 -152h-73zM167 766l37 152h102l-66 -152h-73zM34 193v507h112v-507q1 -56 61 -80q15 -6 25 -6v-112q-57 0 -115 40q-82 59 -83 158zM284 -5v112q26 0 54 22q31 26 32 64v507h111v-507q0 -113 -100 -169q-51 -29 -97 -29z" />
    <glyph glyph-name="uhungarumlaut" unicode="&#x171;" 
d="M277 614l37 152h102l-66 -152h-73zM138 614l37 152h102l-66 -152h-73zM38 147v407h108v-395q0 -32 32 -49q17 -9 38 -9v-106q-97 0 -151 76q-27 39 -27 76zM260 -5v106q50 0 66 39q4 10 4 19v395h108v-407q0 -47 -42 -93q-55 -58 -136 -59z" />
    <glyph glyph-name="Uogonek" unicode="&#x172;" horiz-adv-x="516" 
d="M378 -191q-112 0 -148 88q-12 30 -12 63h77q0 -62 60 -74q12 -2 23 -2v-75zM34 193v507h112v-507q1 -56 61 -80q15 -6 25 -6v-112q-57 0 -115 40q-82 59 -83 158zM284 -5v112q26 0 54 22q31 26 32 64v507h111v-507q0 -113 -100 -169q-51 -29 -97 -29z" />
    <glyph glyph-name="uogonek" unicode="&#x173;" 
d="M361 -191q-112 0 -148 88q-12 30 -12 63h77q0 -62 60 -74q12 -2 23 -2v-75zM38 147v407h108v-395q0 -32 32 -49q17 -9 38 -9v-106q-97 0 -151 76q-27 39 -27 76zM260 -5v106q50 0 66 39q4 10 4 19v395h108v-407q0 -47 -42 -93q-55 -58 -136 -59z" />
    <glyph glyph-name="Ydieresis" unicode="&#x178;" horiz-adv-x="461" 
d="M89 827q0 38 34 55q13 7 27 7q39 0 55 -36q6 -13 6 -26q0 -39 -34 -55q-13 -6 -27 -6q-39 0 -55 35q-6 13 -6 26zM239 827q0 38 34 55q13 7 27 7q39 0 55 -36q6 -13 6 -26q0 -39 -34 -55q-13 -6 -27 -6q-39 0 -55 35q-6 13 -6 26zM17 700h116l146 -447v-253h-115v252z
M256 505l73 195h115l-128 -375h-8z" />
    <glyph glyph-name="Zacute" unicode="&#x179;" horiz-adv-x="432" 
d="M177 766l37 152h102l-66 -152h-73zM33 0v110l243 480h-243v110h366v-107l-243 -480h243v-113h-366z" />
    <glyph glyph-name="zacute" unicode="&#x17a;" horiz-adv-x="377" 
d="M152 614l37 152h102l-66 -152h-73zM30 0v104l197 346h-197v104h317v-102l-193 -348h193v-104h-317z" />
    <glyph glyph-name="Zdotaccent" unicode="&#x17b;" horiz-adv-x="432" 
d="M151 828q0 40 34 57q14 6 28 6q39 0 56 -35q6 -14 6 -28q0 -40 -35 -56q-13 -6 -27 -6q-40 0 -56 35q-6 13 -6 27zM33 0v110l243 480h-243v110h366v-107l-243 -480h243v-113h-366z" />
    <glyph glyph-name="zdotaccent" unicode="&#x17c;" horiz-adv-x="377" 
d="M127 676q0 40 34 57q14 6 28 6q39 0 56 -35q6 -14 6 -28q0 -40 -35 -56q-13 -6 -27 -6q-40 0 -56 35q-6 13 -6 27zM30 0v104l197 346h-197v104h317v-102l-193 -348h193v-104h-317z" />
    <glyph glyph-name="Zcaron" unicode="&#x17d;" horiz-adv-x="432" 
d="M109 918h68l35 -73l36 73h69l-77 -152h-56zM33 0v110l243 480h-243v110h366v-107l-243 -480h243v-113h-366z" />
    <glyph glyph-name="zcaron" unicode="&#x17e;" horiz-adv-x="377" 
d="M85 766h68l35 -73l36 73h69l-77 -152h-56zM30 0v104l197 346h-197v104h317v-102l-193 -348h193v-104h-317z" />
    <glyph glyph-name="florin" unicode="&#x192;" horiz-adv-x="382" 
d="M26 -168l22 86h48q38 0 44 36q1 5 1 8v449h-63v93h63v43q0 51 41 98q46 50 113 51h61l-22 -94h-31q-54 -1 -63 -45q-1 -6 -1 -12v-42l66 1v-93h-66v-441q0 -82 -61 -118q-35 -20 -84 -20h-68z" />
    <glyph glyph-name="uni0218" unicode="&#x218;" horiz-adv-x="487" 
d="M159 -216l37 152h101l-37 -152h-101zM23 158l101 36q6 -65 71 -90l12 -4v-103q-86 0 -146 74q-37 47 -38 87zM31 510q0 109 94 164q44 25 82 26v-105q-31 -5 -54 -36q-15 -22 -15 -47q0 -52 75 -83q18 -7 56 -19q48 -15 67 -24q87 -43 113 -102q15 -35 15 -77
q0 -88 -68 -153q-61 -57 -137 -57v103q38 2 68 36q25 30 25 69q0 61 -85 92q-18 7 -56 18q-42 12 -57 19q-84 37 -108 95q-15 35 -15 81zM259 595v105q86 0 144 -74q31 -40 33 -73l-103 -34q-4 30 -22.5 49t-34.5 23z" />
    <glyph glyph-name="uni0219" unicode="&#x219;" horiz-adv-x="443" 
d="M140 -218l37 152h101l-37 -152h-101zM20 146l99 18q0 -39 41 -59q18 -9 35 -9v-101q-106 0 -153 75q-22 36 -22 76zM25 400q0 92 85 137q41 21 82 21v-99q-48 0 -64 -38q-4 -11 -4 -21q0 -30 52 -53q44 -18 134 -39q69 -14 98 -71q15 -31 15 -68q0 -99 -80 -146
q-46 -28 -105 -28v100q40 0 66 27q16 19 16 42q0 35 -78 59q-16 5 -50 14q-51 12 -72 20q-74 33 -90 97q-5 21 -5 46zM237 459v99q88 0 142 -65q34 -42 34 -88l-99 -17q0 51 -55 67q-12 4 -22 4z" />
    <glyph glyph-name="uni021A" unicode="&#x21a;" horiz-adv-x="466" 
d="M147 -213l37 152h101l-37 -152h-101zM16 591v109h433v-109h-160v-591h-112v591h-161z" />
    <glyph glyph-name="uni021B" unicode="&#x21b;" horiz-adv-x="303" 
d="M173 -213l37 152h101l-37 -152h-101zM16 448v103h68v160h106v-160h66v-104h-66l1 -277q2 -60 60 -61h21l24 -109h-47q-127 0 -155 97q-10 35 -10 83v268h-68z" />
    <glyph glyph-name="circumflex" unicode="&#x2c6;" horiz-adv-x="270" 
d="M31 514l75 152h56l77 -152h-69l-36 73l-35 -73h-68z" />
    <glyph glyph-name="caron" unicode="&#x2c7;" horiz-adv-x="270" 
d="M31 666h68l35 -73l36 73h69l-77 -152h-56z" />
    <glyph glyph-name="uni02C9" unicode="&#x2c9;" horiz-adv-x="416" 
d="M50 522v66h316v-66h-316z" />
    <glyph glyph-name="breve" unicode="&#x2d8;" horiz-adv-x="244" 
d="M35 526h55q0 -24 22 -31q6 -1 10 -1q24 0 31 22q1 6 1 10h55q0 -46 -40 -72q-22 -14 -47 -14q-49 0 -75 43q-12 20 -12 43z" />
    <glyph glyph-name="dotaccent" unicode="&#x2d9;" horiz-adv-x="202" 
d="M39 678q0 40 34 57q14 6 28 6q39 0 56 -35q6 -14 6 -28q0 -40 -35 -56q-13 -6 -27 -6q-40 0 -56 35q-6 13 -6 27z" />
    <glyph glyph-name="ring" unicode="&#x2da;" horiz-adv-x="244" 
d="M34 526q0 48 42 75q22 13 46 13q48 0 75 -42q13 -22 13 -46q0 -48 -42 -75q-22 -13 -46 -13q-48 0 -75 42q-13 22 -13 46zM90 526q0 -24 22 -31q6 -1 10 -1q24 0 31 22q1 6 1 10q0 24 -22 31q-6 1 -10 1q-24 0 -31 -22q-1 -6 -1 -10z" />
    <glyph glyph-name="ogonek" unicode="&#x2db;" horiz-adv-x="219" 
d="M106 -191q-112 0 -148 88q-12 30 -12 63h77q0 -62 60 -74q12 -2 23 -2v-75z" />
    <glyph glyph-name="tilde" unicode="&#x2dc;" horiz-adv-x="333" 
d="M26 113v84q39 22 70 22q25 0 71 -23q35 -18 60 -18q35 1 80 28v-83q-46 -28 -84 -28q-27 0 -74 23q-34 17 -57 17q-31 -1 -66 -22z" />
    <glyph glyph-name="hungarumlaut" unicode="&#x2dd;" horiz-adv-x="329" 
d="M189 605l37 152h102l-66 -152h-73zM50 605l37 152h102l-66 -152h-73z" />
    <glyph glyph-name="pi" unicode="&#x3c0;" horiz-adv-x="501" 
d="M13 415v103h475v-103h-68v-273q8 -52 54 -55v-91q-100 0 -136 73q-14 29 -14 64v282h-144v-416h-99v416h-68z" />
    <glyph glyph-name="tml_Anusvara" unicode="&#xb82;" horiz-adv-x="228" 
d="M73 851q0 -28 26 -39q8 -3 16 -3q28 0 39 26q3 8 3 16q0 28 -26 39q-8 3 -16 3q-28 0 -39 -26q-3 -8 -3 -16zM31 851q0 37 38 66q24 18 46 18q37 0 66 -38q18 -24 18 -46q0 -37 -38 -66q-24 -18 -46 -18q-37 0 -66 38q-18 24 -18 46z" />
    <glyph glyph-name="tml_Visarga" unicode="&#xb83;" horiz-adv-x="775" 
d="M149 223q58 0 90 -48q17 -27 17 -58q0 -58 -49 -89q-26 -17 -58 -17q-57 0 -88 47q-17 28 -17 59q0 58 49 89q26 17 56 17zM384 601q58 0 89 -49q16 -26 16 -57q0 -59 -48 -89q-26 -17 -57 -17q-58 0 -89 49q-17 26 -17 57q0 58 49 89q26 17 57 17zM621 227q58 0 89 -49
q17 -26 17 -57q0 -58 -49 -89q-26 -17 -57 -17q-58 0 -89 49q-17 26 -17 57q0 58 49 89q26 17 57 17z" />
    <glyph glyph-name="tml_A" unicode="&#xb85;" horiz-adv-x="1018" 
d="M376 459h-99l8 -38q30 -101 125 -125q26 -7 56 -7q84 0 137 54q29 31 32 66l-69 73q0 -70 -62 -89q-19 -6 -38 -6q-54 0 -79 39q-10 15 -11 33zM277 515h101q0 22 33 47q47 35 121 35q174 -2 175 -201v-137h-250v-97h250v-94q0 -73 -60 -92q-16 -5 -34 -5h-154v-98h162
q103 0 154 82q31 50 31 112v95h61v-269h98v685h-98v-319h-62v134q0 195 -126 267q-62 35 -147 35q-139 0 -213 -80q-42 -47 -42 -100zM53 72q0 -103 78 -160q55 -39 125 -39h148v98h-141q-62 0 -93 42q-19 25 -19 59q0 67 69 85q16 4 29 4h154v99h-136q-129 0 -185 -83
q-29 -45 -29 -105z" />
    <glyph glyph-name="tml_Aa" unicode="&#xb86;" horiz-adv-x="1242" 
d="M376 459h-99l8 -38q30 -101 125 -125q26 -7 56 -7q84 0 137 54q29 31 32 66l-69 73q0 -70 -62 -89q-19 -6 -38 -6q-54 0 -79 39q-10 15 -11 33zM277 515h101q0 22 33 47q47 35 121 35q174 -2 175 -201v-137h-250v-97h250v-94q0 -73 -60 -92q-16 -5 -34 -5h-154v-98h162
q103 0 154 82q31 50 31 112v95h61v-269h98v685h-98v-319h-62v134q0 195 -126 267q-62 35 -147 35q-139 0 -213 -80q-42 -47 -42 -100zM53 72q0 -103 78 -160q55 -39 125 -39h148v98h-141q-62 0 -93 42q-19 25 -19 59q0 67 69 85q16 4 29 4h154v99h-136q-129 0 -185 -83
q-29 -45 -29 -105zM683 -148v-98h287q179 0 208 127q6 29 6 65v75q0 132 -89 160q-31 9 -78 9v-98q48 0 59 -17q10 -16 10 -54v-77q0 -68 -41 -84q-20 -7 -54 -7z" />
    <glyph glyph-name="tml_I" unicode="&#xb87;" horiz-adv-x="1161" 
d="M513 -177v97h-41q-100 52 -135 158l-106 -2q33 -92 99 -156h-63q-62 0 -93 42q-19 25 -19 59q0 67 68 86q16 4 29 4h260v99h-206q-20 82 -20 160q0 202 103 313q86 89 221 91v99q-207 -1 -324 -154q-105 -138 -107 -358q0 -68 15 -161q-100 -27 -129 -117q-9 -29 -9 -62
q0 -103 78 -160q55 -39 125 -39zM569 -178h150q102 0 154 82q31 51 31 113v95q96 0 105 -73q1 -7 1 -14q-2 -85 -95 -97l-46 -97q120 -15 192 63q45 51 45 108v34q0 133 -126 164q-35 8 -77 8h-336v-96h237v-95q0 -70 -56 -91q-17 -6 -37 -6h-142v-98zM375 465h101
q0 31 35 62q46 40 119 40q124 0 161 -122q14 -44 14 -100v-98h98v95q0 177 -101 264q-70 60 -172 60q-126 0 -201 -78q-54 -56 -54 -123zM375 409l8 -38q30 -102 125 -126q26 -7 56 -7q84 0 137 54q29 31 32 66l-69 73q0 -66 -60 -87q-19 -7 -40 -7q-62 0 -83 41
q-7 15 -7 31h-99zM660 773q186 0 261 -105q69 -98 74 -340q1 -26 1 -54l101 -2q0 331 -102 468q-108 130 -335 133v-100z" />
    <glyph glyph-name="tml_Ii" unicode="&#xb88;" horiz-adv-x="616" 
d="M453 249q0 -35 32 -51q13 -6 26 -6q35 0 52 32q6 12 6 25q0 35 -31 52q-14 7 -27 7q-36 0 -52 -33q-6 -13 -6 -26zM178 250q0 -34 31 -51q13 -6 26 -6q36 0 52 32q6 12 6 25q0 36 -32 53q-13 6 -26 6q-35 0 -51 -33q-6 -13 -6 -26zM329 0h98v497h142v98h-305v-98h65v-497
zM45 1h98v496h67v98h-165v-594z" />
    <glyph glyph-name="tml_U" unicode="&#xb89;" horiz-adv-x="1038" 
d="M147 520q1 66 61 96q35 18 85 18q121 0 167 -115q18 -46 18 -89h95q0 185 -121 260q-67 40 -159 40q-114 0 -189 -77q-58 -60 -58 -133h101zM259 0h754v91h-754v-91zM57 91q0 -56 11 -72q15 -19 48 -19h89v91h-49v64l204 1q211 6 214 179v48h-94v-44q0 -62 -30 -80
q-29 -17 -112 -18h-208q-58 0 -69 -48q-4 -16 -4 -37v-65zM146 472h-101q0 -128 96 -161q38 -12 88 -12q86 0 136 57q27 33 30 73l-71 68q-2 -98 -96 -99q-54 0 -75 42q-7 15 -7 32z" />
    <glyph glyph-name="tml_Uu" unicode="&#xb8a;" horiz-adv-x="1420" 
d="M147 520q1 66 61 96q35 18 85 18q121 0 167 -115q18 -46 18 -89h95q0 185 -121 260q-67 40 -159 40q-114 0 -189 -77q-58 -60 -58 -133h101zM259 0h1107v91h-1107v-91zM57 91q0 -56 11 -72q15 -19 48 -19h89v91h-49v64l204 1q211 6 214 179v48h-94v-44q0 -62 -30 -80
q-29 -17 -112 -18h-208q-58 0 -69 -48q-4 -16 -4 -37v-65zM146 472h-101q0 -128 96 -161q38 -12 88 -12q86 0 136 57q27 33 30 73l-71 68q-2 -98 -96 -99q-54 0 -75 42q-7 15 -7 32zM831 149q74 1 116 57q22 31 22 62q-1 47 -1 57q0 58 -50 93q-37 26 -86 26v-83
q35 -1 48 -38q5 -12 5 -26q1 -48 -36 -62q-9 -3 -18 -3v-83zM644 325v-58q0 -54 50 -90q39 -28 90 -28v83q-44 0 -54 44q-2 10 -2 21q0 45 37 60q10 3 19 4v83q-23 0 -51 -10q10 78 69 108q24 12 50 12h3l1 83h-2q-112 0 -173 -100q-37 -60 -37 -122v-86v-4zM902 555h2
q51 0 83 -45q21 -30 22 -70v-6v-5l1 -280h85l-4 289q2 102 45 115q8 2 16 2v83h-16q-65 -1 -98 -56q-52 56 -135 56h-1v-83zM1200 555h38v-406h83v406h60v83h-181v-83z" />
    <glyph glyph-name="tml_E" unicode="&#xb8e;" horiz-adv-x="731" 
d="M53 177q0 -96 67 -146q43 -30 98 -30v98q-42 0 -59 43q-7 18 -7 40q0 63 48 77q9 2 18 2v99q-30 0 -58 -11q17 106 92 138q26 10 55 10v99q-143 0 -212 -133q-42 -80 -42 -176v-66v-7v-37zM273 1q75 0 127 62q36 44 36 92v58q0 101 -86 134q-34 13 -77 13v-99
q63 -2 64 -79q1 -62 -41 -79q-12 -4 -23 -4v-98zM498 0h98v496h108v99h-342v-99h136v-496z" />
    <glyph glyph-name="tml_Ee" unicode="&#xb8f;" horiz-adv-x="731" 
d="M53 177q0 -96 67 -146q43 -30 98 -30v98q-42 0 -59 43q-7 18 -7 40q0 63 48 77q9 2 18 2v99q-30 0 -58 -11q17 106 92 138q26 10 55 10v99q-143 0 -212 -133q-42 -80 -42 -176v-66v-7v-37zM273 1q75 0 127 62q36 44 36 92v58q0 101 -86 134q-34 13 -77 13v-99
q63 -2 64 -79q1 -62 -41 -79q-12 -4 -23 -4v-98zM362 496h136v-469l-166 -203h117l148 177l1 495h106v99h-342v-99z" />
    <glyph glyph-name="tml_Ai" unicode="&#xb90;" horiz-adv-x="943" 
d="M277 -180v98q-88 0 -113 73q-9 25 -9 55q0 78 48 109q20 13 43 13h37v99h-30q-124 0 -174 -98q-22 -44 -22 -92v-70q0 -78 69 -135q65 -52 151 -52zM331 -180q124 0 165 32q13 11 20 25q22 -57 133 -57v99q-78 0 -86 64q-1 9 -1 17v118h-98v-119q0 -60 -57 -74
q-28 -7 -76 -7v-98zM34 527h102q0 85 133 91h17q173 -2 178 -211v-68h98v125q0 105 81 128l8 2v99q-89 -8 -143 -78q-2 -3 -3 -4q-74 96 -216 96q-145 0 -216 -83q-39 -46 -39 -97zM707 169q93 0 143 72q38 57 39 146v86q0 130 -91 189q-42 27 -93 31v-99q59 -8 78 -70
q7 -23 7 -51v-75q0 -87 -44 -118q-18 -12 -39 -12v-99zM223 301q84 0 137 54q29 31 32 66l-69 73q0 -71 -63 -90q-18 -5 -37 -5q-56 0 -80 42q-8 15 -9 29h-100q0 -30 21 -73q50 -95 168 -96zM703 -180q99 0 150 79q29 46 29 98v121h-99v-121q0 -57 -50 -73q-14 -5 -30 -5
v-99zM338 168l308 1v98h-308v-99z" />
    <glyph glyph-name="tml_O" unicode="&#xb92;" horiz-adv-x="873" 
d="M468 597q133 0 215 -90q51 -57 52 -109v-211q-1 -23 -18 -38.5t-41 -19t-48 0.5t-40.5 19.5t-16.5 36.5v164h-99v-325q0 -78 92 -122q72 -35 177 -35v99q-131 -2 -163 50q-7 12 -8 26q82 -29 165 -1q84 29 97 100q2 11 2 23v233q0 72 -57 150q-92 125 -255 144
q-27 3 -54 3v-98zM39 184q0 -53 48 -103q52 -51 118 -52v99q-43 0 -59 44q-7 17 -7 38q0 66 49 78q9 2 17 2v99q-24 0 -52 -9q15 125 112 181q63 36 150 36v98q-222 0 -320 -171q-56 -97 -56 -214v-62v-5v-59zM260 29q75 0 126 63q37 45 37 93v57q0 60 -55 107
q-48 40 -108 40v-99q62 -2 64 -79q1 -62 -41 -79q-12 -4 -23 -4v-99zM188 -124q31 -91 121 -122q85 -30 165 10q56 28 82 81l-85 49q-28 -54 -88 -56q-57 -1 -90 46q-5 8 -9 16z" />
    <glyph glyph-name="tml_Oo" unicode="&#xb93;" horiz-adv-x="873" 
d="M468 597q133 0 215 -90q51 -57 52 -109v-211q-1 -23 -18 -38.5t-41 -19t-48 0.5t-40.5 19.5t-16.5 36.5v164h-99v-325q0 -78 92 -122q72 -35 177 -35v99q-131 -2 -163 50q-7 12 -8 26q82 -29 165 -1q84 29 97 100q2 11 2 23v233q0 72 -57 150q-92 125 -255 144
q-27 3 -54 3v-98zM206 -141q0 -80 62 -127q44 -32 103 -33q98 -1 173 91q19 24 31 47l-89 52q-16 -30 -23 -40q-40 -56 -97 -50q-43 4 -57 38q-4 10 -4 21q0 45 43 58q12 4 27 4v99q-128 0 -160 -102q-9 -27 -9 -58zM39 184q0 -53 48 -103q52 -51 118 -52v99q-43 0 -59 44
q-7 17 -7 38q0 66 49 78q9 2 17 2v99q-24 0 -52 -9q15 125 112 181q63 36 150 36v98q-222 0 -320 -171q-56 -97 -56 -214v-62v-5v-59zM260 29q75 0 126 63q37 45 37 93v57q0 60 -55 107q-48 40 -108 40v-99q62 -2 64 -79q1 -62 -41 -79q-12 -4 -23 -4v-99z" />
    <glyph glyph-name="tml_Au" unicode="&#xb94;" horiz-adv-x="1826" 
d="M914 156q0 -57 50 -107q50 -49 115 -49v98q-42 0 -59 44q-7 17 -7 38q0 57 43 75q12 5 23 5v97q-26 0 -60 -11q10 96 74 138q32 21 68 21v97q-126 0 -197 -114q-50 -79 -50 -171v-99v-6v-56zM1134 0q82 0 131 68q30 42 29 89v58q0 54 -52 100q-49 42 -108 42v-97
q58 -2 60 -79q-4 -79 -60 -83v-98zM1215 505q74 0 112 -69q20 -39 21 -84v-17v-12l1 -323h101l-3 339q2 137 47 159q13 6 28 6v98q-97 -1 -138 -77q-66 76 -169 77v-97zM1616 0h98v504h74v98h-212v-98h40v-504zM468 597q133 0 215 -90q51 -57 52 -109v-211q-1 -23 -18 -38.5
t-41 -19t-48 0.5t-40.5 19.5t-16.5 36.5v164h-99v-325q0 -78 92 -122q72 -35 177 -35v99q-131 -2 -163 50q-7 12 -8 26q82 -29 165 -1q84 29 97 100q2 11 2 23v233q0 72 -57 150q-92 125 -255 144q-27 3 -54 3v-98zM39 184q0 -53 48 -103q52 -51 118 -52v99q-43 0 -59 44
q-7 17 -7 38q0 66 49 78q9 2 17 2v99q-24 0 -52 -9q15 125 112 181q63 36 150 36v98q-222 0 -320 -171q-56 -97 -56 -214v-62v-5v-59zM260 29q75 0 126 63q37 45 37 93v57q0 60 -55 107q-48 40 -108 40v-99q62 -2 64 -79q1 -62 -41 -79q-12 -4 -23 -4v-99zM188 -124
q31 -91 121 -122q85 -30 165 10q56 28 82 81l-85 49q-28 -54 -88 -56q-57 -1 -90 46q-5 8 -9 16z" />
    <glyph glyph-name="tml_Ka" unicode="&#xb95;" horiz-adv-x="821" 
d="M51 221h101q0 48 56 54q9 1 17 1h207v-88q0 -84 -81 -98q-14 -2 -28 -2v-99q148 0 192 116q15 40 15 86v85h61q66 0 74 -53q2 -10 2 -21h99q0 115 -62 148q-39 21 -115 21h-59v124h132v100h-281v-100h51v-124h-157l1 124h51v100h-151v-227q-124 -19 -125 -147zM269 -11
v99q-90 0 -111 45q-8 19 -9 44h-98q1 -134 119 -174q43 -14 99 -14zM550 -11q213 1 216 167l-101 1q-1 -32 -37 -55q-31 -20 -77 -20z" />
    <glyph glyph-name="tml_Nga" unicode="&#xb99;" horiz-adv-x="879" 
d="M739 0h98v595h-98v-595zM268 0h418v98h-80q1 6 1 15v116q0 93 -104 118q-30 7 -65 7v-99q52 0 63 -12q7 -10 7 -28v-76q0 -29 -21 -36q-16 -5 -47 -5h-172v-98zM286 138h98v359h109v98h-449v-4v-591h98v497h144v-359z" />
    <glyph glyph-name="tml_Ca" unicode="&#xb9a;" horiz-adv-x="722" 
d="M264 -1v98q-126 1 -127 65h-97q0 -130 149 -157q34 -6 75 -6zM317 -1q171 0 197 144q4 23 4 48v82h102v98h-102v124h147v96h-295v-96h50v-124h-157l1 124h52v96h-152v-230q-98 -28 -120 -109q-5 -20 -5 -42h99q0 50 56 60q19 3 44 3h182v-86q0 -84 -89 -90h-14v-98z" />
    <glyph glyph-name="tml_Ja" unicode="&#xb9c;" horiz-adv-x="931" 
d="M280 -180v98q-88 0 -113 73q-9 25 -9 55q0 78 47 110q20 13 44 13h468q99 0 145 85q28 53 29 133v77q0 130 -90 189q-41 27 -93 31v-99q59 -8 78 -71q6 -23 6 -50v-52q-1 -81 -13 -105q-20 -38 -78 -39h-445q-108 0 -164 -88q-32 -50 -32 -103v-62q0 -77 67 -137
q66 -58 153 -58zM42 471q0 -58 50 -112q50 -51 108 -52v98q-31 8 -49 43q-10 22 -10 46q0 59 46 87q20 11 40 11q48 0 73 -41q14 -23 14 -52q0 -53 -42 -84q-10 -6 -18 -9v-99q61 0 115 67q42 52 42 97v28q0 39 -15 73q70 -51 71 -143v-109h98v135q0 105 81 128l8 2v99
q-90 -9 -145 -80q-74 92 -214 92q-176 0 -233 -124q-8 -19 -13 -39q-5 -16 -6 -31q-1 -8 -1 -20v-10v-1zM341 -80v-99q104 0 156 61q24 28 26 59q5 82 28 95q10 4 25 4h69v100h-57q-107 0 -145 -78q-15 -30 -16 -69q-2 -59 -45 -69q-16 -4 -41 -4zM600 -79v-98q197 0 255 70
q30 36 30 91q0 101 -96 140q-42 16 -90 16v-100q87 -4 88 -54q1 -62 -141 -65h-46z" />
    <glyph glyph-name="tml_Nya" unicode="&#xb9e;" horiz-adv-x="1071" 
d="M277 177q0 -96 67 -146q43 -30 98 -30v98q-41 0 -58 42q-8 19 -8 41q0 63 48 77q9 2 18 2v99q-30 0 -58 -11q17 106 92 138q26 10 55 10v99q-143 0 -212 -133q-42 -80 -42 -176v-66v-7v-37zM497 1q76 0 127 62q37 44 36 92v58q0 101 -86 134q-34 13 -77 13v-99
q63 -2 65 -79q0 -63 -44 -79q-10 -4 -21 -4v-98zM722 0h98v496h108v99h-342v-99h136v-496zM244 -195h287v98h-277q-95 0 -105 74q-1 9 -1 20v396q0 92 79 103q11 2 22 2v99q-104 0 -159 -71q-40 -52 -40 -131v-396q0 -127 97 -174q43 -20 97 -20zM586 -97v-99h237
q182 0 204 144q3 22 3 47v159q0 153 -135 167q-16 2 -34 2v-98q49 0 61 -18q10 -16 10 -53l-1 -159q0 -68 -38 -84q-20 -8 -51 -8h-256z" />
    <glyph glyph-name="tml_Tta" unicode="&#xb9f;" horiz-adv-x="630" 
d="M46 0h536v98h-536v-98zM46 153h99v443h-99v-443z" />
    <glyph glyph-name="tml_Nna" unicode="&#xba3;" horiz-adv-x="1402" 
d="M39 163q0 -89 53 -137q34 -30 80 -30v98q-34 2 -34 70v125q-1 172 116 202q30 8 68 8v99q-226 0 -272 -202q-11 -49 -11 -107v-126zM199 358q52 0 61 -43q2 -12 2 -25v-127q-1 -68 -35 -69v-98q86 0 118 83q15 38 15 84v127q-1 143 -90 144q-43 -4 -64 -44q-8 -17 -7 -32
zM411 164q0 -89 53 -137q34 -30 80 -30v98q-35 1 -35 70v124q1 115 60 167q65 -50 65 -162v-130q-1 -68 -37 -69v-98q87 0 120 84q15 37 15 83v136q-1 123 -58 196q29 3 58 3v99q-89 -1 -158 -30q-75 30 -198 30v-99q55 0 97 -7q-62 -76 -62 -205v-123zM786 500q37 0 62 -4
q-64 -77 -64 -208v-123q0 -89 53 -137q34 -30 80 -30v98q-35 1 -35 70v124q1 120 65 170q59 -48 59 -166v-129q-1 -68 -35 -69v-98q84 0 118 81q16 39 16 86v136q0 123 -52 197q34 2 51 2v98q-85 -1 -148 -26q-65 26 -170 26v-98zM1168 1h98v498h97v99h-204v-98h9v-499z" />
    <glyph glyph-name="tml_Ta" unicode="&#xba4;" horiz-adv-x="762" 
d="M56 -292h103q0 86 29 102q11 6 28 6h304q138 0 178 110q12 34 12 72v153h-98l-1 -152q-2 -84 -92 -85h-289q-131 0 -163 -111q-11 -40 -11 -95zM39 159q0 -113 120 -145q44 -12 99 -12v99q-74 0 -95 13q-21 14 -25 45h-99zM39 210h97q0 55 58 64q16 2 41 2l185 -1v-85
q-2 -88 -109 -89v-99q159 0 197 121q10 33 10 71v81h35q56 -6 59 -70h98q0 133 -92 160q-31 9 -77 9h-23v123h132v98h-281v-98h51v-123h-157l1 123h51v98h-151v-230q-98 -24 -120 -110q-5 -22 -5 -45z" />
    <glyph glyph-name="tml_Na" unicode="&#xba8;" horiz-adv-x="674" 
d="M467 277q36 0 46 -16q9 -17 9 -55l-1 -181q0 -82 -41 -110q-16 -10 -34 -10h-231q-139 0 -168 -119q-8 -35 -8 -79h102q0 85 35 97q9 3 19 3h252q127 0 163 133q11 41 11 85v181q0 145 -107 165q-21 4 -47 4v-98zM72 0h98v497h45v98h-143v-595zM313 0h101l-1 497h141v98
h-274v-98h34z" />
    <glyph glyph-name="tml_Nnna" unicode="&#xba9;" horiz-adv-x="1030" 
d="M412 154q0 -89 53 -137q34 -30 80 -30v98q-35 1 -35 70v138q1 116 60 168q65 -50 65 -163v-144q-1 -68 -36 -69v-98q88 0 120 85q14 36 14 82v150q-1 126 -61 200q27 3 53 3v99q-82 -1 -152 -32q-75 31 -195 31v-98q59 0 97 -8q-63 -79 -63 -208v-137zM40 153
q0 -88 53 -136q35 -31 82 -31v98q-33 0 -36 58v12l-1 139q0 176 123 207q28 7 63 7v98q-188 0 -254 -146q-30 -69 -30 -166v-140zM200 361q52 0 62 -42q2 -12 2 -26v-139q-1 -68 -36 -69v-99q87 0 120 84q14 38 14 84v139q-1 143 -90 144q-43 -4 -64 -44q-9 -17 -8 -32z
M778 507h18v-507h98v506h96v99h-212v-98z" />
    <glyph glyph-name="tml_Pa" unicode="&#xbaa;" horiz-adv-x="538" 
d="M297 1h193v594h-99v-496h-94v-98zM48 1h193v98h-95v496h-98v-594z" />
    <glyph glyph-name="tml_Ma" unicode="&#xbae;" horiz-adv-x="645" 
d="M447 0q91 0 130 80q23 48 23 117v237q0 146 -115 168q-18 3 -38 3v-98q55 -1 55 -73v-250q-2 -84 -55 -85v-99zM39 0h354v99h-51v335q2 71 51 73v98q-126 0 -146 -123q-3 -23 -3 -48v-335h-106v496h-99v-595z" />
    <glyph glyph-name="tml_Ya" unicode="&#xbaf;" horiz-adv-x="701" 
d="M517 0h146v595h-99v-470q-2 -28 -34 -29h-13v-96zM39 140q0 -49 43 -94q44 -45 99 -46h6v96h-6q-31 0 -41 33q-2 8 -2 16v450h-99v-455zM241 0h6q55 1 69 34l4 -34h144v96h-17q-29 2 -30 31v468h-98v-455q-9 -40 -72 -44h-6v-96z" />
    <glyph glyph-name="tml_Ra" unicode="&#xbb0;" horiz-adv-x="573" 
d="M152 -177h117l151 177l2 497h112v98h-275v-98h62v-468zM39 0h99v497h67v98h-166v-595z" />
    <glyph glyph-name="tml_Rra" unicode="&#xbb1;" horiz-adv-x="722" 
d="M39 -295h99q0 95 50 109q12 3 28 3h271q130 1 168 134q14 50 14 113v411q0 56 -47 95q-43 36 -106 36v-98q53 -2 54 -48v-408q0 -119 -74 -134q-12 -3 -27 -3h-254q-140 0 -168 -127q-8 -37 -8 -83zM70 0l100 1l-2 462q0 37 33 43q6 1 11 1v99q-92 0 -128 -72
q-14 -28 -14 -55v-479zM265 507q49 -2 50 -52l2 -454h98l-2 455q1 51 52 52v98q-64 -1 -100 -34q-35 34 -100 34v-99z" />
    <glyph glyph-name="tml_La" unicode="&#xbb2;" horiz-adv-x="875" 
d="M260 0q82 0 130 68q29 43 29 90v58q0 56 -52 101q-48 42 -107 42v-98q58 -2 60 -79q-1 -83 -60 -84v-98zM39 157q0 -57 49 -107q51 -49 117 -50v98q-42 0 -59 45q-7 18 -7 38q0 57 42 75q12 5 24 5v98q-26 0 -60 -11q9 96 71 139q31 21 65 21v98q-122 0 -192 -115
q-50 -81 -50 -174v-97v1v-8v-56zM335 508q89 0 120 -83q10 -27 11 -57l1 -210q0 -80 57 -126q42 -32 100 -32v99q-38 0 -54 34q-5 12 -5 25v207q0 93 -57 163q-64 77 -173 78v-98zM663 594l1 -99q61 0 71 -42q3 -13 3 -31v-262q0 -45 -38 -58q-11 -3 -23 -3v-99q97 0 140 77
q20 38 20 83v264q0 140 -111 164q-28 6 -63 6z" />
    <glyph glyph-name="tml_Lla" unicode="&#xbb3;" horiz-adv-x="953" 
d="M41 157q0 -58 50 -108q50 -49 115 -49v98q-42 0 -59 45q-7 18 -7 38q0 57 43 75q12 5 23 5v98q-26 0 -60 -11q10 96 74 138q32 21 68 21v98q-125 0 -197 -114q-50 -80 -50 -172v-99v-7v-56zM261 0q82 0 131 68q30 43 29 90v58q0 55 -52 101q-48 42 -108 42v-98
q58 -2 60 -79t-51 -83q-5 -1 -9 -1v-98zM342 507q74 0 112 -69q20 -39 21 -84v-17v-12l1 -325h101l-3 341q2 137 47 159q13 6 28 6v99q-97 -1 -138 -78q-66 78 -169 78v-98zM743 0h98v506h74v99h-212v-99h40v-506z" />
    <glyph glyph-name="tml_Llla" unicode="&#xbb4;" horiz-adv-x="645" 
d="M447 0q88 0 129 77q25 48 25 120v237q0 151 -124 169q-15 2 -30 2v-98q55 0 55 -72v-1v-250q-2 -84 -55 -85v-99zM40 0h204q0 -145 183 -145h3l108 -1v100q-133 0 -154 4q-38 6 -42 35v7h51v99h-51v335q2 72 51 73v98q-120 0 -144 -112q-5 -27 -5 -59v-335h-106v496h-98
v-595zM63 -67q0 -82 62 -121q70 -44 164 1q21 10 40 23q-48 6 -74 44q-6 9 -8 17q-21 -20 -53 -9q-31 12 -33 45h-98z" />
    <glyph glyph-name="tml_Va" unicode="&#xbb5;" horiz-adv-x="850" 
d="M261 0q82 0 131 68q30 43 29 90v58q0 55 -52 101q-48 42 -108 42v-98q49 0 59 -55q2 -12 2 -25q0 -73 -51 -82q-5 -1 -10 -1v-98zM40 157q0 -57 49 -107q51 -49 117 -50v98q-43 0 -59 44q-7 18 -7 39q0 65 48 78q9 2 18 2v98q-30 0 -58 -11q6 96 71 138q33 21 71 21v98
q-159 0 -221 -145q-29 -69 -29 -156v-84v-7v-56zM341 507q83 0 124 -68q23 -38 24 -85v-228q0 -24 -34 -26q-5 -1 -11 -1v-99h212v99h-70v256q-1 99 -64 171q-70 79 -181 79v-98zM711 0h100v595h-100v-595z" />
    <glyph glyph-name="tml_Sha" unicode="&#xbb6;" horiz-adv-x="946" 
d="M47 158q0 -85 49 -128q34 -30 85 -30h17v100q-52 2 -53 59v436h-98v-437zM252 0h20q85 0 120 86q14 35 14 70v341h124v-339q0 -85 50 -129q33 -29 83 -29h17v100q-51 2 -52 59v338h162v-339q0 -45 -39 -56q-8 -2 -17 -2v-100h19q83 0 119 82q16 37 16 74v439h-580v-438
q0 -44 -38 -55q-9 -2 -18 -2v-100z" />
    <glyph glyph-name="tml_Ssa" unicode="&#xbb7;" horiz-adv-x="1258" 
d="M261 0q82 0 131 68q30 43 29 90v58q0 55 -52 101q-48 42 -108 42v-98q49 0 59 -55q2 -12 2 -25q0 -73 -51 -82q-5 -1 -10 -1v-98zM40 157q0 -57 49 -107q51 -49 117 -50v98q-43 0 -59 44q-7 18 -7 39q0 65 48 78q9 2 18 2v98q-30 0 -58 -11q6 96 71 138q33 21 71 21v98
q-159 0 -221 -145q-29 -69 -29 -156v-84v-7v-56zM340 507q83 0 124 -68q23 -38 24 -85v-228q0 -23 -32 -26q-6 -1 -13 -1v-99h393v99h-250v256q-1 98 -65 171q-69 79 -181 79v-98zM667 334q0 -142 102 -169q29 -7 67 -7v97q-47 0 -60 25q-10 19 -10 53v94q0 73 51 81
q9 1 19 1v98q-135 0 -162 -106q-7 -31 -7 -68v-99zM1112 0h82v256h-136v157q-1 193 -169 194v-98q41 0 54 -17q17 -22 17 -79v-157h-71v-98h71v-10h98v10h54v-59h-54v12h-98v-12h-71v-98h71v-179h98v178h54z" />
    <glyph glyph-name="tml_Sa" unicode="&#xbb8;" horiz-adv-x="1181" 
d="M707 507q51 0 62 -47q4 -21 5 -59v-251q0 -81 56 -123q38 -27 94 -27v100q-42 0 -51 37q-1 7 -1 14v252q-1 118 -45 163q-41 40 -120 40v-99zM978 0q112 0 151 92q15 35 15 76v258q0 130 -94 159q-33 11 -79 11v-99q61 0 71 -42q3 -13 3 -31v-256q0 -47 -38 -63
q-14 -5 -29 -5v-100zM51 157q0 -81 64 -127q44 -30 102 -30v98q-42 0 -59 45q-7 18 -7 38q0 57 42 75q12 5 24 5v98q-26 0 -60 -11q10 96 74 138q32 21 68 21v98q-125 0 -197 -114q-51 -80 -51 -172v-99v-7v-56zM272 0q82 0 130 68q29 43 29 90v58q0 56 -52 101
q-48 42 -107 42v-98q58 -2 60 -79q-1 -83 -60 -84v-98zM353 507q74 0 112 -69q20 -39 21 -84v-15v-14l1 -325h101l-3 346q1 116 23 142q15 18 45 18v99q-93 -1 -134 -75q-64 74 -166 75v-98z" />
    <glyph glyph-name="tml_Ha" unicode="&#xbb9;" horiz-adv-x="1381" 
d="M1217 284h99v189q-1 59 -50 98q-41 33 -103 33v-98q53 -2 54 -48v-174zM347 500q87 0 127 -67q20 -35 21 -79v-228q0 -23 -32 -26q-6 -1 -13 -1v-99h212v99h-69v256q-1 114 -75 183q-66 61 -171 61v-99zM912 505q49 -2 50 -48l1 -458l99 1l-3 457q1 48 52 49v98
q-63 -1 -99 -34q-35 34 -100 34v-99zM46 157q0 -58 51 -107q50 -50 116 -50v98q-42 0 -60 43q-7 19 -7 40q0 57 43 75q12 5 24 5v98q-28 0 -58 -10q9 95 73 133q31 18 66 18v99q-160 0 -221 -157q-27 -71 -27 -154v-68v1v-8v-56zM268 0q82 0 130 68q29 43 29 90v58
q0 56 -52 101q-48 42 -107 42v-98q58 -2 60 -79q-7 -79 -60 -84v-98zM716 0h100l-1 461q5 41 43 44v99q-92 0 -128 -72q-14 -28 -14 -55v-477zM1316 231h-99l1 -161q0 -129 -57 -155q-20 -9 -46 -9h-833q-120 0 -157 -71q-23 -46 -23 -130h98q0 92 39 106q10 4 23 4h873
q145 0 174 158q7 42 7 95v163z" />
    <glyph glyph-name="tml_MatraAa" unicode="&#xbbe;" horiz-adv-x="545" 
d="M329 0h98v497h84v98h-246v-98h64v-497zM45 0h99v497h68v98h-167v-595z" />
    <glyph glyph-name="tml_MatraI" unicode="&#xbbf;" horiz-adv-x="333" 
d="M73 689q104 -2 105 -110v-510h98v513q-2 205 -203 206v-99zM-176 580h99q2 109 96 110v98q-165 0 -191 -154q-4 -26 -4 -54z" />
    <glyph glyph-name="tml_MatraIi" unicode="&#xbc0;" horiz-adv-x="394" 
d="M126 411l125 11q-96 71 -129 184q-29 100 10 160q26 38 74 42q67 -2 68 -53q0 -29 -26 -41q-9 -4 -18 -4q-36 0 -43 30q-1 4 -1 8l-58 -68q4 -22 40 -45q35 -23 71 -23q60 0 101 52q32 41 32 92q0 109 -101 141q-31 9 -65 10q-108 0 -162 -98q-51 -92 -27 -212
q25 -116 109 -186z" />
    <glyph glyph-name="tml_MatraU" unicode="&#xbc1;" horiz-adv-x="557" 
d="M39 586h280q87 0 99 -39q2 -8 2 -18q0 -27 -25 -39q-10 -5 -21 -5q-37 0 -45 34q-1 6 -1 11h-98q0 -67 52 -112q37 -31 79 -31h24q52 0 94 44q39 42 39 99v9q0 123 -136 142q-27 3 -59 3h-284v-98z" />
    <glyph glyph-name="tml_MatraUu" unicode="&#xbc2;" horiz-adv-x="748" 
d="M54 586h280q86 0 97 -39q3 -8 3 -18q0 -28 -25 -40q-10 -4 -20 -4q-37 0 -45 33q-2 7 -2 12h-98q0 -66 53 -112q37 -31 79 -31h24q52 0 94 44q38 42 38 99v9q0 118 -124 140q-30 5 -67 5q0 73 75 93q22 6 46 6q72 0 106 -41q16 -20 16 -46v-324q-2 -65 -68 -66h-59v-77
h59q139 0 163 103q4 19 4 40v324q0 93 -79 146q-59 39 -142 39q-116 0 -178 -77q-39 -51 -41 -120h-189v-98z" />
    <glyph glyph-name="tml_MatraE" unicode="&#xbc6;" horiz-adv-x="633" 
d="M270 0q82 0 131 68q30 43 29 90v58q0 55 -52 101q-48 42 -108 42v-98q58 -2 60 -79t-51 -83q-5 -1 -9 -1v-98zM50 157q0 -58 50 -108q50 -49 115 -49v98q-42 0 -59 45q-7 18 -7 38q0 57 43 75q12 5 23 5v98q-33 0 -66 -14v106q0 144 125 156q11 1 22 1v98
q-153 0 -215 -118q-31 -60 -31 -137v-294zM350 608q135 -1 135 -157v-461h98v461q0 140 -86 209q-59 46 -147 46v-98z" />
    <glyph glyph-name="tml_MatraEe" unicode="&#xbc7;" horiz-adv-x="621" 
d="M413 376q82 0 130 68q29 43 29 90v57q0 55 -51 101q-48 43 -108 43v-99q58 -2 60 -79q-4 -79 -60 -83v-98zM193 533q0 -58 50 -108q50 -49 115 -49v98q-42 0 -59 44q-7 17 -7 38q0 57 43 75q12 5 23 5v99h-4q-101 0 -184 -44q-118 -64 -119 -195v-271q0 -154 156 -212
q69 -25 144 -25h5h2v98q-42 0 -59 44q-7 17 -7 38q0 57 43 75q12 5 23 5v99q-60 0 -111 -39q-54 -42 -54 -107v-56v-4q-44 41 -45 97v254q1 62 45 98v-1v-56zM413 -12q82 0 130 68q29 43 29 90v57q0 55 -51 101q-48 43 -108 43v-99q58 -2 60 -79q-4 -79 -60 -83v-98z" />
    <glyph glyph-name="tml_MatraAi" unicode="&#xbc8;" horiz-adv-x="1043" 
d="M423 157q0 -87 55 -135q38 -33 90 -33v99q-39 0 -46 53q-1 8 -1 17v132q1 124 70 176q79 -50 79 -171v-138q-2 -68 -48 -69v-99q95 0 130 85q16 37 16 83v144q-1 129 -68 204q32 2 48 2v99q-84 -1 -156 -31q-79 30 -203 30v-98q58 0 101 -7q-67 -82 -67 -212v-131z
M40 156q0 -88 56 -135q38 -32 90 -32v98q-34 0 -44 43q-3 13 -3 27l-1 133q0 176 126 209q32 8 71 8v98q-174 0 -249 -121q-46 -76 -46 -194v-134zM224 361q62 -2 63 -73v-132q-3 -66 -48 -68v-99q93 0 129 82q17 38 17 85v132q-1 148 -90 149q-43 -4 -64 -44q-8 -17 -7 -32
zM802 498q51 -18 77 -89q17 -47 17 -106v-141q-2 -68 -55 -69v-98q100 0 138 85q16 37 16 82v141q0 154 -83 238q-50 51 -110 55v-98z" />
    <glyph glyph-name="tml_MatraO" unicode="&#xbca;" horiz-adv-x="1161" 
d="M279 10q82 0 130 68q29 43 29 90v58q0 56 -52 101q-48 42 -107 42v-98q58 -2 60 -79t-51 -83q-5 -1 -9 -1v-98zM58 167q0 -57 49 -107q51 -49 117 -50v98q-42 0 -59 45q-7 18 -7 38q0 57 43 75q12 5 23 5v98q-34 0 -67 -14v106q0 146 130 156q9 1 18 1v98
q-154 0 -216 -119q-31 -60 -31 -136v-243v-51zM359 618q135 -1 135 -157v-461h98v461q0 140 -86 209q-59 46 -147 46v-98zM946 0h99v497h84v98h-247v-98h64v-497zM663 0h98v497h68v98h-166v-595z" />
    <glyph glyph-name="tml_MatraOo" unicode="&#xbcb;" horiz-adv-x="1166" 
d="M950 0h98v497h84v98h-246v-98h64v-497zM666 0h99v497h68v98h-167v-595zM413 376q82 0 130 68q29 43 29 90v57q0 55 -51 101q-48 43 -108 43v-99q58 -2 60 -79q-4 -79 -60 -83v-98zM193 533q0 -58 50 -108q50 -49 115 -49v98q-42 0 -59 44q-7 17 -7 38q0 57 43 75
q12 5 23 5v99h-4q-101 0 -184 -44q-118 -64 -119 -195v-271q0 -154 156 -212q69 -25 144 -25h5h2v98q-42 0 -59 44q-7 17 -7 38q0 57 43 75q12 5 23 5v99q-60 0 -111 -39q-54 -42 -54 -107v-56v-4q-44 41 -45 97v254q1 62 45 98v-1v-56zM413 -12q82 0 130 68q29 43 29 90v57
q0 55 -51 101q-48 43 -108 43v-99q58 -2 60 -79q-4 -79 -60 -83v-98z" />
    <glyph glyph-name="tml_MatraAu" unicode="&#xbcc;" horiz-adv-x="1577" 
d="M277 12q83 0 131 68q29 43 29 90v58q0 55 -52 101q-48 42 -108 42v-98q59 -2 60 -79q2 -77 -51 -83q-5 -1 -9 -1v-98zM57 169q0 -58 50 -108q50 -48 115 -49v98q-40 0 -58 42q-8 19 -8 41q0 57 43 75q12 5 23 5v98q-33 0 -66 -14v106q0 144 125 156q11 1 22 1v98
q-153 0 -215 -118q-31 -60 -31 -137v-243v-51zM357 620q135 -1 135 -157v-461h99v461q0 139 -85 208q-60 47 -149 47v-98zM661 159q0 -57 49 -107q51 -49 117 -50v98q-42 0 -59 45q-7 18 -7 38q0 57 43 75q12 5 23 5v98q-27 0 -59 -11q10 97 75 139q31 20 66 20v98
q-125 0 -197 -114q-51 -80 -51 -172v-99v1v-8v-56zM882 2q82 0 130 68q29 43 29 90v58q0 56 -52 101q-48 42 -107 42v-98q58 -2 60 -79q-1 -83 -60 -84v-98zM963 509q72 0 111 -68q21 -39 22 -85v-17v-12l1 -325h101l-3 342q2 133 45 157q13 7 30 7v99q-97 -1 -138 -78
q-66 78 -169 78v-98zM1364 2h98v506h74v99h-212v-99h40v-506z" />
    <glyph glyph-name="tml_Virama" unicode="&#xbcd;" horiz-adv-x="0" 
d="M-62 727q0 -40 34 -58q15 -8 30 -8q38 0 57 36q7 14 7 30q0 40 -34 58q-15 8 -30 8q-39 0 -57 -36q-7 -14 -7 -30z" />
    <glyph glyph-name="tml_Om" unicode="&#xbd0;" horiz-adv-x="1196" 
d="M313 -591h269v98h-259q-81 0 -96 56q-4 16 -4 38v129q0 74 26 93q17 12 46 12v98q-131 0 -162 -124q-9 -35 -9 -78v-128q0 -133 100 -177q40 -17 89 -17zM646 -493v-99h214q182 0 204 144q3 22 3 47v90q0 113 -64 141q-33 14 -105 14v-99q47 0 55 -4q16 -10 16 -52
l-1 -90q0 -68 -38 -84q-20 -8 -51 -8h-233zM524 52q0 -28 26 -40q8 -3 17 -3q29 0 39 27q3 8 3 16q0 28 -26 39q-8 3 -16 3q-28 0 -39 -25q-4 -9 -4 -17zM654 -433q80 0 109 43q27 41 27 124v69q0 129 -94 147q-17 3 -37 3v-63q47 0 57 -42q4 -18 4 -45v-82q-2 -94 -66 -95
v-59zM347 -433h265v59h-45v159q0 72 14 90q13 15 37 15v63q-88 0 -110 -70q-11 -34 -11 -98v-159h-80v310h-70v-369zM279 389v-99q62 -2 64 -79q1 -62 -41 -79q-12 -4 -23 -4v-99q75 0 126 63q37 45 37 93v57q0 60 -55 107q-48 40 -108 40zM224 389q-25 0 -53 -9
q9 119 106 168q94 47 304 49v98q-352 0 -461 -146q-62 -84 -62 -239v-62v-5v-59q0 -53 48 -103q52 -51 118 -52v99q-42 0 -60 42q-7 19 -7 40q0 65 49 78q9 2 18 2v99zM1136 165v233q0 250 -342 289q-67 8 -146 8v-98q344 0 383 -153q5 -22 5 -46v-211q-1 -23 -18 -38.5
t-40.5 -19t-47.5 0.5t-40.5 19.5t-16.5 36.5v164h-99v-325q0 -78 92 -122q72 -35 177 -35v99q-131 -2 -163 50q-7 12 -8 26q82 -29 165 -1q84 29 97 100q2 11 2 23z" />
    <glyph glyph-name="tml_AuLengthmark" unicode="&#xbd7;" horiz-adv-x="953" 
d="M41 157q0 -58 50 -108q50 -49 115 -49v98q-42 0 -59 45q-7 18 -7 38q0 57 43 75q12 5 23 5v98q-26 0 -60 -11q10 96 74 138q32 21 68 21v98q-125 0 -197 -114q-50 -80 -50 -172v-99v-7v-56zM261 0q82 0 131 68q30 43 29 90v58q0 55 -52 101q-48 42 -108 42v-98
q58 -2 60 -79t-51 -83q-5 -1 -9 -1v-98zM342 507q74 0 112 -69q20 -39 21 -84v-17v-12l1 -325h101l-3 341q2 137 47 159q13 6 28 6v99q-97 -1 -138 -78q-66 78 -169 78v-98zM743 0h98v506h74v99h-212v-99h40v-506z" />
    <glyph glyph-name="tml_Zero" unicode="&#xbe6;" horiz-adv-x="594" 
d="M316 645v-92q127 0 132 -216v-22q-1 -233 -132 -234v-98q130 0 194 128q42 86 42 204q0 169 -79 260q-61 70 -157 70zM271 645q-140 0 -201 -141q-35 -82 -35 -189q0 -178 85 -269q61 -63 151 -63v98q-132 2 -132 234q0 206 97 233q17 5 35 5v92z" />
    <glyph glyph-name="tml_One" unicode="&#xbe7;" horiz-adv-x="821" 
d="M51 221h101q0 48 56 54q9 1 17 1h207v-88q0 -84 -81 -98q-14 -2 -28 -2v-99q148 0 192 116q15 40 15 86v85h61q66 0 74 -53q2 -10 2 -21h99q0 115 -62 148q-39 21 -115 21h-59v124h132v100h-281v-100h51v-124h-157l1 124h51v100h-151v-227q-124 -19 -125 -147zM269 -11
v99q-90 0 -111 45q-8 19 -9 44h-98q1 -134 119 -174q43 -14 99 -14zM550 -11q213 1 216 167l-101 1q-1 -32 -37 -55q-31 -20 -77 -20z" />
    <glyph glyph-name="tml_Two" unicode="&#xbe8;" horiz-adv-x="983" 
d="M39 472q0 -111 87 -161q46 -26 101 -26q79 0 134 64q56 69 39 155h-98q14 -48 -15 -89q-24 -31 -61 -32q-54 0 -77 43q-11 20 -11 44q-1 64 55 101q42 27 99 27q136 0 172 -98q11 -31 11 -70h99q0 148 -108 219q-72 47 -174 47q-135 0 -206 -89q-47 -59 -47 -135zM95 0
h849v98h-528q141 113 156 249q2 15 2 29h-99q0 -93 -80 -171q-109 -106 -295 -107h-5v-98z" />
    <glyph glyph-name="tml_Three" unicode="&#xbe9;" horiz-adv-x="734" 
d="M255 0h438v98h-80q1 5 1 13v118q0 94 -106 118q-30 7 -63 7v-99q51 0 62 -12q8 -9 8 -26v-79q0 -30 -24 -36q-16 -4 -52 -4h-184v-98zM293 177h98v320h109v98h-449v-4v-591h99v497h143v-320z" />
    <glyph glyph-name="tml_Four" unicode="&#xbea;" horiz-adv-x="884" 
d="M311 -1q159 0 197 121q10 33 10 71v82h322l1 214h-99v-116h-224v124h147v100h-295v-100h50v-124h-157l1 124h52v100h-152v-234q-89 -26 -116 -98q-9 -25 -9 -51v-51q0 -82 73 -127q57 -34 146 -35v99q-78 0 -100 22q-21 21 -21 68q0 68 54 81q19 4 47 4h182v-86
q-2 -88 -109 -89v-99z" />
    <glyph glyph-name="tml_Five" unicode="&#xbeb;" horiz-adv-x="991" 
d="M46 41q0 -124 78 -188q51 -41 116 -41h260v98h-249q-80 0 -101 81q-5 23 -5 49v247q0 102 79 114q11 2 22 2l-1 98q-100 0 -155 -67q-44 -54 -44 -142v-251zM555 -90v-98l181 -1q105 0 159 79q28 41 28 84v236q0 127 -114 147q-22 4 -49 4v-97q57 0 63 -61q1 -9 1 -18
v-152q0 -75 -41 -107q-21 -16 -48 -16h-180zM323 1h98v496h80v98h-178v-594zM605 1h99l2 496h112v98h-263v-98h50v-496z" />
    <glyph glyph-name="tml_Six" unicode="&#xbec;" horiz-adv-x="1066" 
d="M311 -1q159 0 197 121q10 33 10 71v82h149v-271h98l1 271h106v-271h98l1 271h56v98h-509v124h147v100h-295v-100h50v-124h-157l1 124h52v100h-152v-234q-89 -26 -116 -98q-9 -25 -9 -51v-51q0 -82 73 -127q57 -34 146 -35v99q-78 0 -100 22q-21 21 -21 68q0 68 54 81
q19 4 47 4h182v-86q-2 -88 -109 -89v-99z" />
    <glyph glyph-name="tml_Seven" unicode="&#xbed;" horiz-adv-x="731" 
d="M53 177q0 -96 68 -146q43 -30 98 -30v98q-43 0 -60 43q-7 18 -7 40q0 64 49 77q9 2 18 2v99q-30 0 -58 -11q15 105 90 137q26 11 56 11v99q-143 0 -212 -133q-42 -80 -42 -176v-66v-7v-37zM274 1q76 0 127 63q36 44 36 91v58q0 100 -85 134q-35 13 -78 13v-99
q62 -2 64 -79q0 -62 -42 -79q-11 -4 -22 -4v-98zM498 0h99v496h108v99h-343v-99h136v-496z" />
    <glyph glyph-name="tml_Eight" unicode="&#xbee;" horiz-adv-x="1018" 
d="M383 459h-99l8 -38q30 -101 125 -125q26 -7 56 -7q84 0 137 54q29 31 32 66l-69 73q0 -71 -63 -90q-18 -5 -37 -5q-54 0 -79 39q-10 15 -11 33zM284 515h101q0 22 33 47q47 35 121 35q174 -2 175 -201v-137h-250v-97h250v-94q0 -73 -60 -92q-16 -5 -34 -5h-154v-98h162
q103 0 154 82q31 50 31 112v95h61v-269h99v685h-99v-319h-62v134q0 195 -126 267q-62 35 -147 35q-139 0 -213 -80q-42 -47 -42 -100zM60 72q0 -103 78 -160q55 -39 125 -39h148v98h-141q-62 0 -93 42q-19 25 -19 59q0 67 69 85q16 4 29 4h154v99h-136q-129 0 -185 -83
q-29 -45 -29 -105z" />
    <glyph glyph-name="tml_Nine" unicode="&#xbef;" horiz-adv-x="968" 
d="M311 -1q159 0 197 121q10 33 10 71v82h198q74 0 95 -23q16 -16 16 -46q0 -43 -40 -54q-9 -2 -16 -2q-41 0 -55 33q-4 11 -4 24h-98q0 -74 57 -122q41 -33 87 -33h24q52 0 97 42q47 46 47 112v11q0 127 -129 150q-34 6 -78 6h-201v124h147v100h-295v-100h50v-124h-157
l1 124h52v100h-152v-234q-89 -26 -116 -98q-9 -25 -9 -51v-51q0 -82 73 -127q57 -34 146 -35v99q-78 0 -100 22q-21 21 -21 68q0 68 54 81q19 4 47 4h182v-86q-2 -88 -109 -89v-99z" />
    <glyph glyph-name="tml_Ten" unicode="&#xbf0;" horiz-adv-x="711" 
d="M505 0q106 0 140 91q9 27 10 54v450l-101 134h-102l104 -138v-443q0 -39 -34 -50q-8 -2 -17 -2v-96zM49 146q0 -84 62 -124q35 -22 80 -22v96q-43 2 -44 50v449h-98v-449zM245 0q58 0 80 13q13 9 24 23q22 -32 67 -35q12 -1 35 -1v96q-51 2 -52 51v448h-97v-448
q-4 -50 -57 -51v-96z" />
    <glyph glyph-name="tml_Hundred" unicode="&#xbf1;" horiz-adv-x="821" 
d="M581 0h99v507h103v99h-296v-99h94v-507zM39 0h101l-3 464q2 42 42 43v99q-94 0 -128 -72q-12 -27 -12 -55v-479zM234 507q48 -2 49 -42l3 -465h98l-2 466q5 41 51 42v98q-66 -1 -99 -33q-37 33 -100 33v-99z" />
    <glyph glyph-name="tml_Thousand" unicode="&#xbf2;" horiz-adv-x="1084" 
d="M683 -61q96 0 126 88q10 31 10 69v177h128v98h-429v124h147v100h-295v-100h50v-124h-157l1 124h52v100h-152v-234q-89 -26 -116 -98q-9 -25 -9 -51v-51q0 -82 73 -127q57 -34 146 -35v99q-78 0 -100 22q-21 21 -21 68q0 68 54 81q19 4 47 4h182v-86q-2 -88 -109 -89v-99
q159 0 197 121q10 33 10 71v82h224v-173q-5 -79 -60 -83q-25 0 -40 21q-8 11 -8 27q0 36 33 48q8 3 16 3v77q-81 0 -113 -67q-13 -27 -13 -57q0 -74 55 -110q31 -20 71 -20zM619 -258h77q2 60 20 72q13 8 37 8h96q148 0 186 115q11 35 11 79q0 130 -108 172q-42 16 -93 16
v-78q91 0 115 -66q7 -20 7 -44q0 -87 -75 -110q-21 -6 -43 -6h-95q-134 -2 -135 -158z" />
    <glyph glyph-name="tml_Day" unicode="&#xbf3;" horiz-adv-x="959" 
d="M260 0q83 0 131 68q29 43 29 90v58q0 72 -62 114q-44 29 -98 29v-98q51 0 60 -59q1 -10 1 -21q0 -73 -51 -82q-5 -1 -10 -1v-98zM39 157q0 -78 59 -123q45 -34 107 -34v98q-41 0 -59 43q-7 18 -7 40q0 65 48 78q9 2 18 2v98q-30 0 -58 -11q6 95 70 138q33 21 72 21v98
q-159 0 -221 -145q-29 -69 -29 -156v-84v-7v-56zM340 507q83 0 124 -68q23 -38 24 -85v-228q0 -23 -32 -26q-6 -1 -13 -1v-99h477v99h-334v256q-1 98 -65 171q-69 79 -181 79v-98z" />
    <glyph glyph-name="tml_Month" unicode="&#xbf4;" horiz-adv-x="1052" 
d="M1027 634v85q-55 2 -64 11q-9 10 -9 39v95q-4 202 -208 204q-124 0 -169 -106q-19 -45 -19 -102h84q2 121 104 122q107 0 121 -93q2 -12 2 -25v-95q2 -134 158 -135zM830 691q-2 148 -164 149h-233v-97h229q82 -1 83 -53q0 -24 -21 -39q-13 -8 -27 -8q-38 0 -49 34
q-2 7 -2 14h-84q0 -77 68 -111q30 -15 63 -15q72 0 112 51q25 33 25 75zM342 614q-31 64 -2 102q17 22 50 27v98q-106 -4 -144 -87q-31 -68 0 -141q13 -31 35 -52q-37 -43 -37 -127v-335h-107v496h-98v-595h354v99h-51v335q2 72 51 73v98q-26 0 -48 -6zM447 0q91 0 130 80
q23 48 23 117v237q0 146 -115 168q-18 3 -38 3v-98q55 -1 55 -73v-250q-2 -84 -55 -85v-99z" />
    <glyph glyph-name="tml_Year" unicode="&#xbf5;" horiz-adv-x="1689" 
d="M51 17q0 -136 95 -184q39 -19 87 -19h525v98h-512q-75 0 -90 56q-6 21 -6 48v542q2 104 89 105h519v99h-520q-94 0 -146 -65q-41 -52 -41 -135v-545zM517 507q83 0 124 -68q22 -38 23 -85v-228q0 -23 -31 -26q-6 -1 -13 -1v-99h244v99h-102v256q-1 99 -64 171
q-70 79 -181 79v-98zM811 -88v-98h525q102 0 149 78q24 39 24 84v170q0 98 -96 137q-28 11 -57 14v-102q43 0 53 -47q2 -13 2 -26v-116q0 -69 -34 -86q-17 -8 -42 -8h-524zM216 157q0 -57 49 -107q51 -49 117 -50v98q-43 0 -60 44q-7 18 -7 39q0 63 48 77q10 3 19 3v98
q-30 0 -58 -11q6 96 71 138q33 21 71 21v98q-159 0 -221 -145q-29 -69 -29 -156v-84v-7v-56zM436 0q83 0 131 68q30 43 29 90v58q0 55 -52 101q-48 42 -108 42v-98q51 0 60 -57q2 -11 2 -23q0 -71 -49 -82q-7 -1 -13 -1v-98zM811 663h565q59 0 78 -48q5 -11 11 -34
q13 -46 27 -64h101q-15 15 -34 81q-25 86 -60 120q-46 44 -124 44h-564v-99zM919 0h98v497h68v98h-166v-595zM1203 0h98v497h84v98h-247v-98h65v-497z" />
    <glyph glyph-name="tml_Debit" unicode="&#xbf6;" horiz-adv-x="672" 
d="M244 -180v-78q129 0 150 101q4 20 5 44h234v494h-98v-417h-135v523h-98v-337q-9 -51 -57 -54v-96q48 0 57 1v-37h-123q-109 0 -134 -63q-6 -16 -6 -34v-25q1 -79 99 -96q20 -4 40 -4h13v78h-13q-33 0 -40 25q-6 25 18 37q10 5 23 5h122q-3 -55 -36 -65q-10 -2 -21 -2z
M48 146q0 -81 59 -122q36 -24 84 -24v96q-43 2 -44 50v449h-99v-449z" />
    <glyph glyph-name="tml_Credit" unicode="&#xbf7;" horiz-adv-x="1107" 
d="M810 279q51 0 70 -50q6 -16 7 -32v-127q0 -3 -3.5 -5.5t-6.5 -3.5t-8 -2l-5 -1v-57h118v57h-39v139q-1 69 -49 110q-35 29 -84 29v-57zM39 156q0 -53 48 -103q52 -51 118 -52v98q-42 0 -59 43q-7 18 -7 40q0 65 49 77q9 2 17 2v99q-30 0 -58 -11q15 102 86 135
q28 13 60 13v99q-141 0 -211 -131q-43 -82 -43 -178v-66v1v-8v-58zM260 1q76 0 127 63q36 44 36 91v58q0 60 -55 107q-48 40 -108 40v-99q62 -2 64 -79q1 -62 -41 -79q-12 -4 -23 -4v-98zM763 0q54 0 80 48q10 20 10 39v33q0 33 -35 60q-26 20 -55 20v-57q26 0 33 -29
q1 -7 1 -14q-2 -41 -34 -43v-57zM642 125v-3v-38q0 -34 33 -62q26 -22 57 -22v57q-25 0 -31 28q-2 8 -2 15q0 36 27 42q3 1 6 1v57q-11 0 -28 -5q1 64 53 80q12 4 24 4v57q-108 0 -133 -110q-3 -16 -5 -33h-60v303h101v99h-336v-99h137v-496h98v137h59v-12zM1012 1h56v329
h-56v-329z" />
    <glyph glyph-name="tml_Above" unicode="&#xbf8;" horiz-adv-x="1524" 
d="M552 0q83 0 131 68q30 43 29 90v58q0 55 -52 101q-48 42 -108 42v-98q51 0 60 -59q1 -10 1 -21q0 -73 -51 -82q-5 -1 -10 -1v-98zM331 157q0 -57 49 -107q51 -49 117 -50v98q-43 0 -59 44q-7 18 -7 39q0 65 48 78q9 2 18 2v98h-57q9 89 73 129q32 19 68 19v98
q-158 0 -220 -143q-20 -47 -27 -103h-33q-153 0 -221 -85q-41 -53 -41 -132v-155q0 -64 54 -106q36 -29 77 -29v78q-24 0 -41 24q-11 17 -11 40q0 47 39 60q7 2 13 2v78q-25 0 -52 -12v19q2 140 183 141h30v-62v-7v-56zM631 507q83 0 124 -68q23 -38 24 -85v-228
q0 -23 -32 -26q-6 -1 -13 -1v-99h393v99h-250v256q-1 98 -65 171q-69 79 -181 79v-98zM958 334q0 -142 102 -169q29 -7 67 -7v97q-47 0 -60 25q-10 19 -10 53v94q0 73 51 81q9 1 19 1v98q-135 0 -162 -106q-7 -31 -7 -68v-99zM1403 0h83v256h-136v157q-1 193 -170 194v-98
q41 0 54 -17q17 -22 17 -79v-157h-71v-98h71v-10h99v10h53v-59h-53v12h-99v-12h-71v-98h71v-179h99v178h53zM202 56q31 0 46 -29q8 -15 8 -33q0 -54 -43 -63q-6 -1 -11 -1v-78q72 0 110 60q22 34 22 73v22q0 48 -44 90q-39 37 -88 37v-78z" />
    <glyph glyph-name="tml_Rupee" unicode="&#xbf9;" horiz-adv-x="1116" 
d="M1092 774v85q-55 2 -64 11t-9 38v96q-4 202 -208 204q-124 0 -169 -106q-19 -45 -19 -102h84q2 121 104 122q107 0 121 -93q2 -12 2 -25v-95q2 -134 158 -135zM895 831q-2 148 -164 149h-233v-97h229q82 -1 83 -53q0 -24 -21 -40q-13 -8 -27 -8q-38 0 -49 34q-2 8 -2 15
h-85q0 -77 69 -111q31 -15 63 -15q72 0 112 51q25 33 25 75zM39 30q0 -135 97 -185q43 -21 97 -21l225 -1v98h-211q-85 0 -103 62q-6 20 -6 46v551q0 60 32 79q22 12 59 12h192h2l-2 11l-1 78h-16q-29 66 6 102q17 16 45 21v98q-107 -4 -144 -88q-28 -64 -3 -133h-93
q-165 0 -175 -155q-1 -10 -1 -21v-554zM512 -79v-98l178 -1q106 0 159 79q27 41 27 84v236q0 118 -129 146q-17 3 -34 5v-98q39 0 56 -35q8 -18 8 -42v-174q-2 -101 -86 -102h-179zM558 1h100l2 493h111v101h-259v-101h46v-493zM276 1h100v493h83v101h-183v-594z" />
    <glyph glyph-name="tml_Number" unicode="&#xbfa;" horiz-adv-x="1088" 
d="M460 277q36 0 46 -16q10 -17 10 -55l-1 -181q0 -82 -42 -110q-15 -10 -34 -10h-230q-135 0 -166 -111q-10 -37 -10 -87h102q0 85 35 97q9 3 19 3h251q127 0 163 133q11 41 11 85v181q0 145 -107 165q-21 4 -47 4v-98zM65 0h99v497h45v98h-144v-595zM307 0h101l-1 497h140
v98h-164q-28 59 -1 97q17 22 51 28v98q-107 -4 -144 -87q-29 -66 -3 -136h-13v-98h35zM873 668q-2 147 -165 148h-232v-96h228q83 -1 84 -53q0 -24 -21 -39q-13 -9 -28 -9q-36 0 -48 33q-3 8 -3 16h-84q0 -77 68 -111q30 -15 63 -15q73 0 113 52q25 32 25 74zM1070 611v84
q-55 2 -65 12q-8 10 -8 38v96q-2 203 -209 204q-124 0 -169 -106q-19 -45 -19 -102h85q2 121 103 122q110 0 122 -94q2 -12 2 -24v-95q2 -134 158 -135z" />
    <glyph glyph-name="zwnj" unicode="&#x200c;" horiz-adv-x="161" 
 />
    <glyph glyph-name="endash" unicode="&#x2013;" horiz-adv-x="532" 
d="M26 243v101h480v-101h-480z" />
    <glyph glyph-name="emdash" unicode="&#x2014;" horiz-adv-x="906" 
d="M26 243v101h854v-101h-854z" />
    <glyph glyph-name="quoteleft" unicode="&#x2018;" horiz-adv-x="168" 
d="M33 465v271h102v-271h-102z" />
    <glyph glyph-name="quoteright" unicode="&#x2019;" horiz-adv-x="168" 
d="M33 465v271h102v-271h-102z" />
    <glyph glyph-name="quotesinglbase" unicode="&#x201a;" horiz-adv-x="168" 
d="M33 465v271h102v-271h-102z" />
    <glyph glyph-name="quotedblleft" unicode="&#x201c;" horiz-adv-x="322" 
d="M33 465v271h102v-271h-102zM188 465v271h102v-271h-102z" />
    <glyph glyph-name="quotedblright" unicode="&#x201d;" horiz-adv-x="322" 
d="M33 465v271h102v-271h-102zM188 465v271h102v-271h-102z" />
    <glyph glyph-name="quotedblbase" unicode="&#x201e;" horiz-adv-x="321" 
d="M164 -23l37 152h101l-37 -152h-101zM13 -23l37 152h101l-37 -152h-101z" />
    <glyph glyph-name="dagger" unicode="&#x2020;" horiz-adv-x="453" 
d="M26 462v102h145v200h111v-200h145v-102h-145v-518h-111v518h-145z" />
    <glyph glyph-name="daggerdbl" unicode="&#x2021;" horiz-adv-x="453" 
d="M26 143v102h145v218h-145v102h145v199h112v-199h144v-102h-144v-218h144v-102h-144v-199h-112v199h-145z" />
    <glyph glyph-name="bullet" unicode="&#x2022;" horiz-adv-x="352" 
d="M52 344q0 67 54 104q32 22 70 22q66 0 103 -54q21 -33 21 -72q0 -66 -53 -103q-32 -21 -71 -21q-65 0 -102 53q-22 32 -22 71z" />
    <glyph glyph-name="ellipsis" unicode="&#x2026;" horiz-adv-x="624" 
d="M36 40q0 37 33 54q14 7 28 7q37 0 53 -34q7 -13 7 -27q0 -39 -34 -55q-13 -6 -26 -6q-39 0 -55 35q-6 13 -6 26zM252 40q0 37 33 54q13 7 27 7q37 0 54 -34q7 -13 7 -27q0 -39 -35 -55q-13 -6 -26 -6q-37 0 -53 33q-7 14 -7 28zM467 40q0 37 33 54q13 7 27 7q37 0 54 -34
q7 -13 7 -27q0 -39 -35 -55q-13 -6 -26 -6q-37 0 -53 33q-7 14 -7 28z" />
    <glyph glyph-name="perthousand" unicode="&#x2030;" horiz-adv-x="897" 
d="M121 352v63q-40 10 -40 107v16q1 93 40 101v63q-68 -2 -92 -82q-12 -39 -12 -93q0 -147 79 -171q12 -4 25 -4zM150 352q62 0 89 72q15 42 15 103q0 149 -81 172q-12 3 -23 3v-63q40 -9 40 -101v-16q-1 -98 -40 -107v-63zM488 0v63q-40 10 -40 107v16q1 93 40 101v63
q-68 -2 -92 -82q-12 -39 -12 -93q0 -147 79 -171q12 -4 25 -4zM517 0q62 0 89 72q15 42 15 103q0 149 -81 172q-12 3 -23 3v-63q40 -9 40 -101v-16q-1 -98 -40 -107v-63zM747 0v63q-41 10 -41 107v16q1 93 41 101v63q-71 -2 -95 -87q-10 -38 -10 -88q0 -149 81 -172
q12 -3 24 -3zM775 0q62 0 89 70q16 42 16 105q0 147 -81 171q-12 4 -24 4v-63q39 -9 41 -101v-16q-1 -98 -41 -107v-63zM72 0h69l427 700h-64z" />
    <glyph glyph-name="guilsinglleft" unicode="&#x2039;" horiz-adv-x="338" 
d="M41 292l131 208h124l-131 -208l131 -213h-124z" />
    <glyph glyph-name="guilsinglright" unicode="&#x203a;" horiz-adv-x="338" 
d="M41 79l131 213l-131 208h125l131 -208l-131 -213h-125z" />
    <glyph glyph-name="fraction" unicode="&#x2044;" horiz-adv-x="533" 
d="M18 -1l432 702h65l-427 -702h-70z" />
    <glyph glyph-name="Euro" unicode="&#x20ac;" horiz-adv-x="546" 
d="M50 265v52h46v60h-46v52h46v73q0 82 59 143q54 53 126 55v-110q-53 0 -71 -49q-5 -15 -5 -30v-82h203v-53h-203v-59h203v-52h-203v-69q0 -60 44 -80q15 -6 32 -6v-110q-98 4 -152 85q-30 46 -33 97v83h-46zM337 0v110q36 2 58 34q11 17 15 38q0 1 0.5 4.5t1 8t1 9.5
t0.5 9v7v3l106 -38q0 -71 -62 -131q-56 -53 -120 -54zM337 590v110q91 -1 145 -72q37 -50 37 -113l-107 -39q0 41 -2 47q-12 53 -58 65q-9 2 -15 2z" />
    <glyph glyph-name="uni2113" unicode="&#x2113;" horiz-adv-x="193" 
d="M48 185v514h105v-514q1 -62 53 -77q9 -3 16 -3v-111q-62 0 -113 45q-61 54 -61 146z" />
    <glyph glyph-name="trademark" unicode="&#x2122;" horiz-adv-x="420" 
d="M26 660v40h137v-40h-48v-176h-41v176h-48zM186 484v148h3l37 -88v-60h-40zM186 676v24h32l61 -147l40 91h5v-86l-32 -74h-26zM337 484v216h40v-216h-40z" />
    <glyph glyph-name="uni2126" unicode="&#x2126;" horiz-adv-x="458" 
d="M27 0v55h57q-41 42 -42 88v235q0 48 42 91q49 49 122 49v-95q-51 0 -64 -41q-3 -8 -3 -17v-209q0 -37 34 -53q15 -7 33 -7v-96h-179zM257 0v96q52 0 64 43q2 9 2 17v209q0 33 -31 50q-16 8 -35 8v95q93 0 140 -73q23 -35 23 -67v-235q0 -42 -38 -85l-3 -3h56v-55h-178z
" />
    <glyph glyph-name="estimated" unicode="&#x212e;" horiz-adv-x="531" 
d="M231 -2q-91 0 -152 70q-49 57 -49 132v303q0 92 71 153q57 49 130 49v-110q-56 -4 -79 -59q-11 -26 -11 -60v-91h235v91q0 85 -58 111q-16 7 -32 8v110q90 0 151 -69q50 -59 50 -133v-228h-346v-47q0 -88 60 -112q15 -6 30 -7v-111zM286 -2v111q49 2 76 44q11 16 14 36
l110 -28q-10 -81 -86 -129q-53 -34 -114 -34z" />
    <glyph glyph-name="partialdiff" unicode="&#x2202;" horiz-adv-x="420" 
d="M28 141v235q0 46 42 89q49 51 122 51v-95q-49 0 -64 -45q-3 -10 -3 -20v-202q0 -36 33 -52q16 -8 34 -8v-95q-92 0 -141 74q-23 36 -23 68zM70 658v56q221 0 288 -115q34 -61 34 -155v-303q0 -47 -41 -91q-47 -50 -118 -51v95q46 0 60 42q4 10 4 20v203q0 45 -39 58
q-12 4 -25 4v95q36 0 61 -16q0 100 -108 139q-51 19 -116 19z" />
    <glyph glyph-name="uni2206" unicode="&#x2206;" horiz-adv-x="597" 
d="M66 0l154 587h9l44 -164l-85 -323h219l-158 602h97l185 -702h-465z" />
    <glyph glyph-name="product" unicode="&#x220f;" horiz-adv-x="512" 
d="M22 592v106h468v-106h-48v-732h-103v732h-166v-732h-103v732h-48z" />
    <glyph glyph-name="summation" unicode="&#x2211;" horiz-adv-x="642" 
d="M262 590l-77 102v9h343v-111h-266zM30 -140v117l240 327l-240 320v77h84l298 -400l-242 -323h358v-118h-498z" />
    <glyph glyph-name="minus" unicode="&#x2212;" horiz-adv-x="416" 
d="M47 243v101h316v-101h-316z" />
    <glyph glyph-name="uni2215" unicode="&#x2215;" horiz-adv-x="533" 
d="M18 -1l432 702h65l-427 -702h-70z" />
    <glyph glyph-name="uni2219" unicode="&#x2219;" horiz-adv-x="250" 
d="M33 429q0 40 35 58q14 7 29 7q40 0 58 -36q7 -14 7 -29q0 -40 -36 -58q-14 -7 -29 -7q-38 0 -56 34q-8 15 -8 31z" />
    <glyph glyph-name="radical" unicode="&#x221a;" horiz-adv-x="616" 
d="M6 513l193 72l161 -398l134 632h112l-172 -820h-114l-189 464l-96 -34z" />
    <glyph glyph-name="infinity" unicode="&#x221e;" horiz-adv-x="798" 
d="M235 0v95q36 1 49 25l65 141l-64 136q-13 24 -50 25v95q79 0 122 -55q8 -10 13 -21l32 -71l31 70q26 54 92 71q21 5 43 5v-94q-37 -1 -50 -25l-64 -136l65 -140q14 -25 49 -26v-95q-85 0 -127 68q-2 5 -4 8l-35 78l-36 -79q-36 -67 -114 -74q-8 -1 -17 -1zM194 0
q-92 0 -141 74q-23 36 -23 68v235q0 46 42 89q49 51 122 51v-95q-50 0 -64 -41q-3 -9 -3 -17v-209q0 -37 34 -53q15 -7 33 -7v-95zM609 -1v95q44 0 61 38q5 11 5 21v210q0 41 -38 55q-13 4 -28 4v94q89 0 136 -72q24 -36 24 -68v-235q0 -46 -40 -90q-48 -51 -120 -52z" />
    <glyph glyph-name="integral" unicode="&#x222b;" horiz-adv-x="325" 
d="M22 -141q20 -5 50 16q54 37 55 122v628q0 113 87 164q46 27 89 23v-54q-22 6 -52 -14q-51 -35 -52 -119v-628q0 -113 -85 -167q-47 -29 -92 -25v54z" />
    <glyph glyph-name="approxequal" unicode="&#x2248;" horiz-adv-x="568" 
d="M50 192v105q61 35 113 35q43 0 109 -35q65 -35 103 -38h12q58 1 131 45v-103q-76 -46 -137 -46q-47 0 -116 37q-72 34 -108 36q-52 -1 -107 -36zM50 402v105q61 35 113 35q43 0 109 -35q65 -35 103 -38h12q58 1 131 45v-103q-76 -46 -137 -46q-47 0 -116 37
q-72 34 -108 36q-52 -1 -107 -36z" />
    <glyph glyph-name="notequal" unicode="&#x2260;" horiz-adv-x="418" 
d="M66 -75h102l54 231h146v102h-122l16 67h106v102h-82l56 237h-101l-56 -237h-135v-102h111l-16 -67h-95v-102h71z" />
    <glyph glyph-name="lessequal" unicode="&#x2264;" horiz-adv-x="457" 
d="M423 151l-397 183v51l397 182v-102l-245 -106l245 -107v-101zM29 15v87h398v-87h-398z" />
    <glyph glyph-name="greaterequal" unicode="&#x2265;" horiz-adv-x="457" 
d="M30 151v102l244 107l-244 106v101l397 -182v-50zM29 15v87h398v-87h-398z" />
    <glyph glyph-name="lozenge" unicode="&#x25ca;" horiz-adv-x="418" 
d="M-3 352l184 354h54l183 -354l-184 -354h-55zM101 352l104 -214l111 214l-110 214z" />
    <glyph glyph-name="dottedcircle" unicode="&#x25cc;" horiz-adv-x="636" 
d="M154 484q0 32 29 44q9 4 19 4q32 0 44 -30q4 -8 4 -18q0 -33 -29 -45q-10 -4 -19 -4q-32 0 -44 30q-4 10 -4 19zM68 398q0 32 30 44q8 4 18 4q33 0 45 -29q4 -9 4 -19q0 -32 -30 -44q-10 -4 -19 -4q-32 0 -44 29q-4 10 -4 19zM154 72q0 33 29 45q10 4 19 4q32 0 44 -30
q4 -10 4 -19q0 -32 -29 -44q-9 -4 -19 -4q-32 0 -44 30q-4 8 -4 18zM68 158q0 32 30 44q8 4 18 4q33 0 45 -29q4 -9 4 -19q0 -32 -30 -44q-10 -4 -19 -4q-32 0 -44 29q-4 10 -4 19zM394 72q0 33 29 45q10 4 19 4q32 0 44 -30q4 -10 4 -19q0 -32 -29 -44q-9 -4 -19 -4
q-32 0 -44 30q-4 8 -4 18zM479 158q0 32 30 44q10 4 19 4q32 0 44 -29q4 -9 4 -19q0 -32 -30 -44q-9 -4 -18 -4q-33 0 -45 29q-4 9 -4 19zM479 398q0 32 30 44q10 4 19 4q32 0 44 -29q4 -9 4 -19q0 -32 -30 -44q-8 -4 -18 -4q-33 0 -45 29q-4 9 -4 19zM394 484q0 32 29 44
q9 4 19 4q32 0 44 -30q4 -8 4 -18q0 -33 -29 -45q-10 -4 -19 -4q-32 0 -44 30q-4 10 -4 19zM512 278q0 32 29 44q10 4 19 4q32 0 44 -29q4 -10 4 -19q0 -32 -29 -44q-10 -4 -19 -4q-32 0 -44 29q-4 10 -4 19zM274 40q0 32 29 44q10 4 19 4q32 0 44 -29q4 -10 4 -19
q0 -32 -29 -44q-10 -4 -19 -4q-32 0 -44 29q-4 10 -4 19zM36 278q0 32 29 44q10 4 19 4q32 0 44 -29q4 -10 4 -19q0 -32 -29 -44q-10 -4 -19 -4q-32 0 -44 29q-4 10 -4 19zM274 516q0 32 29 44q10 4 19 4q32 0 44 -29q4 -10 4 -19q0 -32 -29 -44q-10 -4 -19 -4q-32 0 -44 29
q-4 10 -4 19z" />
    <glyph glyph-name="uni5713" unicode="&#x5713;" horiz-adv-x="843" 
d="M50 488v210h39v-86h12v-38h-12v-86h-39zM117 574v38h13v86h39v-210h-39v86h-13zM198 488v210h39v-210h-39zM252 608l34 90h39l-34 -90l35 -120h-39zM348 158l101 36q8 -65 72 -90l11 -4v-147h-59v56q-69 24 -107 93q-17 31 -18 56zM356 510q0 106 92 161q13 8 25 13v66
h59v-155q-31 -5 -54 -36q-15 -22 -15 -47q1 -50 69 -77v-120q-35 11 -53 19q-84 37 -108 95q-15 35 -15 81zM584 -47v147q38 2 68 36q25 30 25 69q0 57 -78 87q-7 2 -15 5v117q46 -13 77 -28q87 -43 113 -102q15 -35 15 -77q0 -88 -69 -152q-35 -32 -77 -47v-55h-59z
M584 595v155h59v-64q67 -26 105 -98q10 -21 13 -35l-104 -34q-5 30 -23.5 49t-33.5 23z" />
    <glyph glyph-name="mooniak" horiz-adv-x="952" 
d="M687 635q0 60 50 94q29 20 64 20q60 0 94 -49q21 -30 21 -65q0 -60 -50 -94q-30 -20 -65 -20q-60 0 -94 50q-20 29 -20 64zM28 392q0 131 92 223q93 92 222 92q131 0 223 -93t92 -222t-92 -221q-93 -93 -223 -93t-222 92q-92 93 -92 222z" />
    <glyph glyph-name="quotedbl.alt" horiz-adv-x="322" 
d="M33 476v224h102v-224h-102zM188 476v224h101v-224h-101z" />
    <glyph glyph-name="tml_CI" horiz-adv-x="881" 
d="M277 -1v98q-126 1 -127 65h-98q0 -131 151 -157q34 -6 74 -6zM330 -1q171 0 197 144q4 23 4 48v82h102v98h-102v124h147v96h-148q8 99 77 105v98q-130 0 -165 -124q-9 -37 -10 -79h-50v-96h51v-124h-158l1 124h52v96h-151v-230q-98 -28 -120 -109q-5 -20 -5 -42h99
q0 50 56 60q19 3 44 3h182v-86q0 -84 -89 -90h-14v-98zM661 696q79 -2 80 -108v-589h99v592q0 122 -75 174q-43 29 -104 29v-98z" />
    <glyph glyph-name="tml_CI.alt" horiz-adv-x="942" 
d="M281 -1v98q-125 1 -126 65h-98q0 -130 149 -157q34 -6 75 -6zM334 -1q173 0 198 145q4 23 4 47v82h102v98h-102v124h147v96h-296v-96h50v-124h-157l1 124h52v96h-151v-230q-7 -2 -26 -8q-17 70 -16 125h-26h-52h-26l10 -88q11 -66 27 -110q-16 -33 -16 -70h98q0 50 58 60
q19 3 43 3h181v-86q0 -81 -81 -89q-11 -1 -22 -1v-98zM42 542l103 -1q25 156 217 194q36 7 76 9v98q-176 0 -293 -103q-95 -86 -103 -197zM492 744q154 0 237 -90q74 -81 74 -222v-412h99v415q-1 249 -180 351q-98 56 -230 56v-98z" />
    <glyph glyph-name="tml_CIi" horiz-adv-x="810" 
d="M265 -1v98q-126 1 -127 64h-98q0 -127 144 -155q37 -7 81 -7zM318 -1q171 0 197 144q4 23 4 48v82h102v98h-102v101h2v23h145v96h-145v3q-59 124 -8 197q32 45 85 46q66 0 78 -48q1 -6 1 -11q0 -38 -31 -48q-8 -2 -14 -2q-29 0 -39 24q-2 6 -2 11l-58 -68q12 -26 51 -44
q24 -12 45 -12q86 0 123 70q33 63 6 130q-31 74 -116 88q-17 3 -34 3q-119 0 -178 -89q-56 -83 -28 -193q7 -28 19 -53v-4h-51v-96h51v-124h-158l1 124h52v96h-151v-230q-94 -25 -118 -103q-7 -23 -7 -48h99q0 50 56 60q19 3 44 3h182v-86q0 -80 -79 -89q-12 -1 -24 -1v-98z
" />
    <glyph glyph-name="tml_CIi.alt" horiz-adv-x="798" 
d="M286 -1v98q-126 1 -127 65h-97q0 -130 149 -157q34 -6 75 -6zM339 -1q171 0 197 144q4 23 4 48v82h102v98h-102v124h147v96h-295v-96h50v-124h-157l1 124h52v96h-152v-230q-2 -1 -7 -2q-5 -2 -7 -2q-70 253 40 379q33 36 77 58q121 60 244 45q26 -3 50 -10q58 -16 68 -57
q2 -9 1 -18q-5 -39 -38 -45h-11q-26 2 -36 27q-2 7 -2 13l-49 -76q38 -51 108 -58q71 -5 111 58q25 40 24 87q-2 86 -80 137q-43 28 -100 37q-181 28 -326 -46q-7 -4 -13 -7q-118 -64 -168 -201q-61 -170 15 -384q-26 -38 -26 -86h99q0 50 56 60q19 3 44 3h182v-86
q0 -81 -81 -89q-11 -1 -22 -1v-98z" />
    <glyph glyph-name="tml_CU" horiz-adv-x="779" 
d="M40 209h99q3 56 70 63q13 1 30 1h177v-86q-2 -88 -104 -89v-99q154 0 192 121q10 33 10 71v82h15v98h-15v126h151v98h-294v-98h45v-126h-153l1 126h53v98h-152v-234q-91 -26 -117 -101q-8 -25 -8 -51zM259 -1v99q-95 0 -114 43q-5 13 -6 29h-99q0 -118 110 -155
q47 -16 109 -16zM615 0h99v273h41v98h-176v-98h36v-273z" />
    <glyph glyph-name="tml_CUu" horiz-adv-x="1203" 
d="M559 -208v98h-306q-75 0 -90 95q-3 20 -3 43v240q2 104 89 105l-1 98q-92 0 -144 -62q-43 -53 -43 -137v-243q0 -164 96 -216q38 -20 86 -20zM614 -208l364 -1q100 0 149 75q25 38 25 78v121q0 107 -72 136q-34 13 -91 14v-98q51 0 61 -39q3 -12 3 -27v-71q0 -50 -38 -77
q-18 -13 -38 -13h-363v-98zM536 -1q161 0 198 123q10 32 10 69v82h99v-273h98v273h58v92h-255v132h163v98h-312v-98h51v-132h-158l1 132h52v98h-151v-238q-104 -20 -120 -107q-4 -21 -4 -46h97q2 68 101 69h182v-86q-2 -88 -110 -89v-99zM483 -1v99q-80 0 -102 22
q-15 17 -17 45h-99q0 -110 104 -148q48 -18 114 -18z" />
    <glyph glyph-name="tml_HI" horiz-adv-x="1587" 
d="M1229 284h99v189q-2 61 -52 100q-1 2 -2 2v11q0 71 18 91q15 15 43 15v99q-112 0 -143 -85q-15 -40 -17 -102v-98q53 -2 54 -48v-174zM359 500q87 0 127 -67q20 -35 21 -79v-228q0 -23 -32 -26q-6 -1 -13 -1v-99h212v99h-69v256q-1 114 -75 183q-66 61 -171 61v-99z
M924 505q49 -2 50 -48l1 -458l99 1l-3 457q1 48 52 49v98q-63 -1 -99 -34q-35 34 -100 34v-99zM58 157q0 -58 51 -107q50 -50 116 -50v98q-42 0 -59 45q-7 18 -7 38q0 57 42 75q12 5 24 5v98q-28 0 -58 -10q9 95 73 133q31 18 66 18v99q-160 0 -221 -157q-27 -71 -27 -154
v-68v1v-8v-56zM280 0q82 0 130 68q29 43 29 90v58q0 56 -52 101q-48 42 -107 42v-98q58 -2 60 -79q-1 -83 -60 -84v-98zM728 0h100l-1 461q5 41 43 44v99q-92 0 -128 -72q-14 -28 -14 -55v-477zM1328 231h-99l1 -161q0 -129 -57 -155q-20 -9 -46 -9h-833q-120 0 -157 -71
q-23 -46 -23 -130h98q0 92 39 106q10 4 23 4h873q145 0 174 158q7 42 7 95v163zM1389 791v-99q48 0 57 -42q3 -18 3 -65v-584h98v587q0 145 -74 185q-35 18 -84 18z" />
    <glyph glyph-name="tml_HIi" horiz-adv-x="1416" 
d="M1223 284h99v189q-2 64 -54 101q-1 2 -2 2q-61 147 -3 224q33 41 83 42q66 0 78 -47q1 -6 1 -11q0 -38 -31 -48q-8 -2 -14 -2q-29 0 -39 23q-2 6 -2 11l-58 -67q12 -26 51 -44q24 -12 45 -12q86 0 123 70q33 63 6 130q-31 74 -116 88q-17 3 -34 3q-123 0 -181 -92
q-60 -95 -21 -231q6 -22 15 -43v-64q53 -2 54 -48v-174zM354 500q86 0 126 -67q20 -35 21 -79v-228q0 -23 -31 -26q-6 -1 -13 -1v-99h212v99h-70v256q-1 114 -75 183q-67 61 -170 61v-99zM918 505q49 -2 50 -48l1 -458l99 1l-3 457q1 48 52 49v98q-63 -1 -99 -34
q-35 34 -100 34v-99zM53 157q0 -57 49 -107q51 -49 117 -50v98q-42 0 -59 45q-7 18 -7 38q0 57 43 75q12 5 23 5v98q-28 0 -58 -10q9 95 74 133q30 18 66 18v99q-160 0 -221 -157q-27 -71 -27 -154v-68v-7v-56zM274 0q82 0 130 68q29 43 29 90v58q0 56 -52 101
q-48 42 -107 42v-98q58 -2 60 -79t-51 -83q-5 -1 -9 -1v-98zM722 0h100v461q2 43 42 44v99q-92 0 -128 -72q-14 -28 -14 -55v-477zM1322 231h-98v-161q1 -131 -59 -156q-19 -8 -44 -8h-833q-120 0 -157 -71q-23 -46 -23 -130h99q0 91 36 106q10 4 25 4h873q145 0 174 158
q7 42 7 95v163z" />
    <glyph glyph-name="tml_HU" horiz-adv-x="1733" 
d="M1217 284h99v189q0 15 -5 33h188q87 -1 98 -43q2 -9 2 -17q0 -28 -25 -40q-10 -4 -20 -4q-37 0 -45 33q-2 6 -2 12h-98q0 -66 53 -112q37 -31 79 -31h24q52 0 94 44q38 42 38 99v9q0 139 -166 148q-13 1 -26 1h-342v-99q53 -2 54 -48v-174zM347 500q87 0 127 -67
q20 -35 21 -79v-228q0 -23 -32 -26q-6 -1 -13 -1v-99h212v99h-69v256q-1 114 -75 183q-66 61 -171 61v-99zM912 505q49 -2 50 -48l1 -458l99 1l-3 457q1 48 52 49v98q-63 -1 -99 -34q-35 34 -100 34v-99zM46 157q0 -58 51 -107q50 -50 116 -50v98q-42 0 -60 43q-7 19 -7 40
q0 57 43 75q12 5 24 5v98q-28 0 -58 -10q9 95 73 133q31 18 66 18v99q-160 0 -221 -157q-27 -71 -27 -154v-68v1v-8v-56zM268 0q82 0 130 68q29 43 29 90v58q0 56 -52 101q-48 42 -107 42v-98q58 -2 60 -79q-7 -79 -60 -84v-98zM716 0h100l-1 461q5 41 43 44v99
q-92 0 -128 -72q-14 -28 -14 -55v-477zM1316 231h-99l1 -161q0 -129 -57 -155q-20 -9 -46 -9h-833q-120 0 -157 -71q-23 -46 -23 -130h98q0 92 39 106q10 4 23 4h873q145 0 174 158q7 42 7 95v163z" />
    <glyph glyph-name="tml_HUu" horiz-adv-x="1871" 
d="M347 500q87 0 127 -67q20 -35 21 -79v-228q0 -23 -32 -26q-6 -1 -13 -1v-99h212v99h-69v256q-1 114 -75 183q-66 61 -171 61v-99zM912 505q49 -2 50 -48l1 -458l99 1l-3 457q1 48 52 49v98q-63 -1 -99 -34q-35 34 -100 34v-99zM46 157q0 -58 51 -107q50 -50 116 -50v98
q-42 0 -60 43q-7 19 -7 40q0 57 43 75q12 5 24 5v98q-28 0 -58 -10q9 95 73 133q31 18 66 18v99q-160 0 -221 -157q-27 -71 -27 -154v-68v1v-8v-56zM268 0q82 0 130 68q29 43 29 90v58q0 56 -52 101q-48 42 -107 42v-98q58 -2 60 -79q-7 -79 -60 -84v-98zM716 0h100l-1 461
q5 41 43 44v99q-92 0 -128 -72q-14 -28 -14 -55v-477zM1316 231h-99l1 -161q0 -129 -57 -155q-20 -9 -46 -9h-833q-120 0 -157 -71q-23 -46 -23 -130h98q0 92 39 106q10 4 23 4h873q145 0 174 158q7 42 7 95v163zM1391 604h-228v-98q53 -2 54 -48v-174h99v189q0 15 -5 33
h170q85 0 97 -38q3 -9 3 -19q0 -28 -25 -40q-10 -4 -20 -4q-37 0 -45 34q-1 6 -1 11h-99q0 -66 53 -112q37 -31 79 -31h24q52 0 94 44q39 42 39 99v9q0 123 -136 142q-27 3 -59 3h4q0 77 77 97q21 5 43 5q75 0 108 -41q15 -20 15 -45v-324q-2 -65 -69 -66h-59v-77h59
q149 0 166 115q2 14 2 28v324q0 93 -79 145q-59 40 -143 40q-115 0 -176 -77q-42 -53 -42 -124z" />
    <glyph glyph-name="tml_JI" horiz-adv-x="1090" 
d="M278 -180v98q-88 0 -113 73q-9 25 -9 55q0 78 47 110q20 13 44 13h468q99 0 145 85q28 53 29 133v77q0 162 -126 206q-18 6 -38 10q4 72 54 92q15 6 32 6v98q-123 0 -167 -105q-16 -41 -18 -90q-77 -15 -121 -75q-74 90 -212 90q-176 0 -233 -124q-8 -19 -13 -39
q-5 -16 -6 -31q-1 -8 -1 -20v-10v-1q0 -58 50 -112q50 -51 108 -52v98q-31 8 -49 43q-10 22 -10 46q0 59 46 87q20 11 40 11q48 0 73 -41q14 -23 14 -52q0 -53 -42 -84q-10 -6 -18 -9v-99q61 0 115 67q42 52 42 97v28q0 39 -15 73q70 -51 71 -143v-109h98v135q0 116 88 129
q10 1 20 1q118 -2 119 -121v-52q-1 -81 -13 -105q-20 -38 -78 -39l-445 -1q-108 0 -164 -87q-32 -50 -32 -103v-62q0 -77 67 -137q66 -58 153 -58zM339 -80v-99q104 0 156 61q24 28 26 59q4 83 29 95q9 4 24 4h69v100h-57q-107 0 -145 -78q-15 -30 -16 -69q-2 -59 -45 -69
q-16 -4 -41 -4zM598 -79v-98q197 0 255 70q30 36 30 91q0 101 -96 140q-42 16 -90 16v-100q87 -4 88 -54q1 -62 -141 -65h-46zM865 778q64 0 82 -66q5 -19 5 -42v-650h98v653q0 119 -75 172q-45 31 -110 31v-98z" />
    <glyph glyph-name="tml_JIi" horiz-adv-x="1016" 
d="M278 -180v98q-88 0 -113 73q-9 25 -9 55q0 78 47 110q20 13 44 13h468q99 0 145 85q28 53 29 133v77q0 162 -126 206q-18 6 -38 10q-57 122 -5 194q33 44 85 45q66 0 78 -47q1 -6 1 -11q0 -38 -31 -48q-8 -2 -14 -2q-29 0 -39 23q-2 6 -2 11l-58 -67q12 -26 51 -44
q24 -12 45 -12q86 0 123 70q33 63 6 130q-31 74 -116 88q-17 3 -34 3q-120 0 -179 -89q-56 -84 -26 -195q6 -25 17 -48q-78 -15 -122 -75q-74 90 -212 90q-176 0 -233 -124q-8 -19 -13 -39q-5 -16 -6 -31q-1 -8 -1 -20v-10v-1q0 -58 50 -112q50 -51 108 -52v98q-31 8 -49 43
q-10 22 -10 46q0 59 46 87q20 11 40 11q48 0 73 -41q14 -23 14 -52q0 -53 -42 -84q-10 -6 -18 -9v-99q61 0 115 67q42 52 42 97v28q0 39 -15 73q70 -51 71 -143v-109h98v135q0 116 88 129q10 1 20 1q118 -2 119 -121v-52q-1 -81 -13 -105q-20 -38 -78 -39l-445 -1
q-108 0 -164 -87q-32 -50 -32 -103v-62q0 -77 67 -137q66 -58 153 -58zM339 -80v-99q104 0 156 61q24 28 26 59q4 83 29 95q9 4 24 4h69v100h-57q-107 0 -145 -78q-15 -30 -16 -69q-2 -59 -45 -69q-16 -4 -41 -4zM598 -79v-98q197 0 255 70q30 36 30 91q0 101 -96 140
q-42 16 -90 16v-100q87 -4 88 -54q1 -62 -141 -65h-46z" />
    <glyph glyph-name="tml_JU" horiz-adv-x="1283" 
d="M272 -180v98q-88 0 -113 73q-9 25 -9 55q0 78 47 110q20 13 44 13h469q99 0 145 85q28 53 29 133v77q0 70 -28 120h188q88 0 98 -44q2 -7 2 -15q0 -28 -25 -40q-10 -4 -20 -4q-37 0 -45 34q-1 6 -1 11h-99q0 -66 53 -112q37 -31 79 -31h24q52 0 94 44q39 42 39 99v9
q0 137 -166 148q-15 1 -29 1h-342v-1q-3 1 -6 1v-99q59 -8 78 -71q6 -23 6 -50v-52q-1 -81 -13 -105q-20 -38 -78 -39h-445q-108 0 -164 -88q-32 -50 -32 -103v-62q0 -77 67 -137q66 -58 153 -58zM34 471q0 -58 50 -112q50 -51 108 -52v98q-31 8 -49 43q-10 22 -10 46
q0 59 46 87q20 11 40 11q48 0 73 -41q14 -23 14 -52q0 -54 -41 -84q-10 -7 -19 -9v-99q61 0 115 67q42 52 42 97v28q0 39 -15 73q70 -51 71 -143v-109h98v135q0 105 81 128l8 2v99q-90 -9 -145 -80q-74 92 -214 92q-178 0 -234 -128q-7 -18 -12 -36q-5 -16 -6 -30
q-1 -8 -1 -20v-10v-1zM333 -80v-99q104 0 156 61q24 28 26 59q5 82 28 95q10 4 25 4h70v100h-57q-105 0 -145 -75q-16 -32 -17 -72q-2 -59 -45 -69q-16 -4 -41 -4zM593 -79v-98q197 0 255 70q30 36 30 91q0 101 -96 140q-42 16 -90 16v-100q86 -4 87 -54q1 -62 -142 -65h-44
z" />
    <glyph glyph-name="tml_JUu" horiz-adv-x="1428" 
d="M272 -180v98q-88 0 -113 73q-9 25 -9 55q0 78 47 110q20 13 44 13h469q99 0 145 85q28 53 29 133v77q0 69 -29 122h184q87 0 99 -39q2 -8 2 -18q0 -29 -26 -40q-9 -4 -20 -4q-35 0 -44 33q-2 6 -2 12h-98q0 -66 53 -112q37 -31 79 -31h24q52 0 94 44q38 42 38 99v9
q0 120 -129 140q-28 5 -62 5q0 73 75 93q22 6 45 6q73 0 107 -41q16 -21 16 -46v-324q-2 -65 -69 -66h-59v-77h59q145 0 164 110q3 16 3 33v324q0 93 -79 146q-59 39 -142 39q-117 0 -178 -78q-39 -51 -40 -119h-243v-1q-3 1 -6 1v-99q59 -8 78 -71q6 -23 6 -50v-52
q-1 -81 -13 -105q-20 -38 -78 -39h-445q-108 0 -164 -88q-32 -50 -32 -103v-62q0 -77 67 -137q66 -58 153 -58zM34 471q0 -58 50 -112q50 -51 108 -52v98q-31 8 -49 43q-10 22 -10 46q0 59 46 87q20 11 40 11q48 0 73 -41q14 -23 14 -52q0 -54 -41 -84q-10 -7 -19 -9v-99
q61 0 115 67q42 52 42 97v28q0 39 -15 73q70 -51 71 -143v-109h98v135q0 105 81 128l8 2v99q-90 -9 -145 -80q-74 92 -214 92q-178 0 -234 -128q-7 -18 -12 -36q-5 -16 -6 -30q-1 -8 -1 -20v-10v-1zM333 -80v-99q104 0 156 61q24 28 26 59q5 82 28 95q10 4 25 4h70v100h-57
q-105 0 -145 -75q-16 -32 -17 -72q-2 -59 -45 -69q-16 -4 -41 -4zM593 -79v-98q197 0 255 70q30 36 30 91q0 101 -96 140q-42 16 -90 16v-100q86 -4 87 -54q1 -62 -142 -65h-44z" />
    <glyph glyph-name="tml_KI" horiz-adv-x="960" 
d="M32 220h100q0 48 56 54q9 1 17 1h207v-88q0 -87 -86 -99q-11 -1 -23 -1v-99q148 0 193 115q15 40 15 87v85h60q67 0 76 -53q1 -9 1 -20h99q0 114 -62 148q-40 20 -116 20h-58v124h132v100h-132q3 92 94 103q11 1 24 1v98q-153 0 -200 -116q-16 -39 -17 -86h-51v-100h51
v-124h-157l1 124h51v100h-150v-227q-124 -19 -125 -147zM249 -12v99q-89 0 -110 45q-8 18 -9 44h-98q1 -133 116 -173q44 -15 101 -15zM530 -12q213 2 216 168h-100q-3 -34 -39 -56q-31 -19 -76 -19zM683 698q130 -1 131 -111v-587h98v590q0 124 -94 176q-54 30 -135 30v-98
z" />
    <glyph glyph-name="tml_KI.alt" horiz-adv-x="986" 
d="M48 221h100q0 48 56 54q9 1 17 1h207v-88q0 -87 -86 -99q-11 -1 -23 -1v-99q148 0 193 115q15 40 15 87v85h60q66 0 75 -52q2 -10 2 -22h99q0 114 -61 148q-40 21 -117 21h-58v124h132v100h-282v-100h51v-124h-157l1 124h51v100h-150v-227q-3 0 -7 -1q-6 -1 -8 -1
q-70 227 91 324q82 48 200 54v98q-171 1 -286 -94q-130 -107 -123 -286q3 -72 30 -151q-22 -35 -22 -90zM265 -11v99q-89 0 -110 45q-8 18 -9 44h-98q1 -138 124 -176q41 -12 93 -12zM546 -11q213 1 216 167l-100 1q-3 -34 -39 -56q-31 -19 -76 -19zM503 744q147 0 240 -73
q105 -84 105 -245v-406h99v409q-1 238 -182 346q-113 67 -262 67v-98z" />
    <glyph glyph-name="tml_KIi" horiz-adv-x="810" 
d="M41 221h101q0 48 56 54q9 1 17 1h207v-88q0 -84 -81 -98q-14 -2 -28 -2v-99q148 0 192 116q15 40 15 86v85h61q66 0 74 -53q2 -10 2 -21h99q0 114 -61 148q-40 21 -117 21h-58v103h1v21h131v100h-131v1q-59 124 -7 197q32 44 85 45q65 0 77 -46q2 -7 2 -12q0 -38 -31 -48
q-8 -2 -14 -2q-30 0 -40 24q-2 5 -2 10l-58 -67q12 -25 50 -44q25 -12 47 -12q86 0 123 70q33 63 5 130q-30 74 -115 88q-17 3 -34 3q-120 0 -179 -89q-56 -83 -28 -193q7 -28 19 -53v-2h-50v-100h50v-21h1v-103h-157l1 124h51v100h-151v-227q-124 -19 -125 -147zM259 -11
v99q-90 0 -111 45q-8 19 -9 44h-98q1 -134 119 -174q43 -14 99 -14zM540 -11q213 1 216 167l-101 1q-1 -32 -37 -55q-31 -20 -77 -20z" />
    <glyph glyph-name="tml_KIi.alt" horiz-adv-x="849" 
d="M55 221h100q0 48 56 54q9 1 17 1h208v-88q0 -86 -83 -98q-13 -2 -27 -2v-99q148 0 193 115q15 40 15 87v85h60q66 0 75 -52q2 -10 2 -22h99q0 114 -61 148q-40 21 -117 21h-58v124h132v100h-282v-100h52v-124h-158l1 124h51v100h-150v-227l-18 -3q-71 254 40 380
q32 37 77 59q117 57 238 45q29 -4 56 -11q58 -16 68 -56q2 -9 1 -18q-5 -40 -38 -46h-11q-27 2 -36 28q-2 7 -2 12l-49 -76q39 -52 108 -57q70 -6 111 57q25 40 24 87q-2 85 -79 136q-43 29 -101 38q-182 28 -328 -46q-6 -3 -11 -6q-120 -65 -169 -204q-58 -169 15 -378
q-21 -36 -21 -88zM272 -11v99q-89 0 -110 45q-8 18 -9 44h-98q1 -138 124 -176q41 -12 93 -12zM553 -11q213 1 216 167l-100 1q-1 -32 -37 -55q-31 -20 -78 -20z" />
    <glyph glyph-name="tml_KSsI" horiz-adv-x="1946" 
d="M892 434q98 0 133 -75q14 -31 15 -69v-164q0 -23 -32 -26q-6 -1 -13 -1v-99h393v99h-250v192q-1 110 -74 179q-66 62 -172 62v-98zM813 0q83 0 131 68q30 43 29 90v58q0 55 -52 101q-48 42 -108 42v-98q51 0 60 -59q1 -10 1 -21q0 -73 -51 -82q-5 -1 -10 -1v-98zM311 -6
q161 0 198 123q10 32 10 69v74h73v-40v-7v-56q0 -57 49 -107q51 -49 117 -50v98q-43 0 -59 44q-7 18 -7 39q0 65 48 78q9 2 18 2v98q-18 0 -35 -4q9 47 61 68q27 11 58 11v98q-147 0 -215 -124q-13 -24 -21 -50h-87v212h147v101h-296v-101h51v-212h-158l1 212h52v101h-151
v-323q-89 -24 -116 -94q-9 -24 -9 -49v-50q0 -82 73 -127q57 -33 145 -34v99q-77 0 -99 20q-21 20 -21 68q0 63 53 75q19 4 48 4h182v-78q-2 -88 -110 -89v-99zM1665 722q142 -1 143 -125v-597h98v598q0 125 -88 183q-60 39 -153 39v-98zM1664 0h83v256h-136v157
q0 163 -119 189l-14 2q6 117 133 118v98q-165 0 -215 -126q-15 -40 -17 -87q-120 -6 -149 -95q-11 -33 -11 -79v-99q0 -141 101 -168q29 -8 69 -8v97q-47 0 -61 24q-10 19 -10 54v94q0 74 60 81q8 1 16 1h40q77 -3 78 -96v-157h-70v-98h70v-10h99v10h53v-59h-53v12h-99v-12
h-70v-98h70v-179h99v178h53z" />
    <glyph glyph-name="tml_KSsIi" horiz-adv-x="1787" 
d="M892 434q98 0 133 -75q14 -31 15 -69v-164q0 -23 -32 -26q-6 -1 -13 -1v-99h393v99h-250v192q-1 110 -74 179q-66 62 -172 62v-98zM813 0q83 0 131 68q30 43 29 90v58q0 55 -52 101q-48 42 -108 42v-98q51 0 60 -59q1 -10 1 -21q0 -73 -51 -82q-5 -1 -10 -1v-98zM311 -6
q161 0 198 123q10 32 10 69v74h73v-40v-7v-56q0 -57 49 -107q51 -49 117 -50v98q-43 0 -59 44q-7 18 -7 39q0 65 48 78q9 2 18 2v98q-18 0 -35 -4q9 47 61 68q27 11 58 11v98q-147 0 -215 -124q-13 -24 -21 -50h-87v212h147v101h-296v-101h51v-212h-158l1 212h52v101h-151
v-323q-89 -24 -116 -94q-9 -24 -9 -49v-50q0 -82 73 -127q57 -33 145 -34v99q-77 0 -99 20q-21 20 -21 68q0 63 53 75q19 4 48 4h182v-78q-2 -88 -110 -89v-99zM1664 0h83v256h-136v157q0 164 -123 189q-12 3 -24 4q-58 122 -7 196q33 44 86 45q65 0 77 -47q2 -6 2 -12
q0 -38 -31 -48q-8 -2 -14 -2q-29 0 -40 25q-2 5 -2 10l-58 -68q12 -25 50 -44q25 -12 47 -12q86 0 123 70q33 63 5 130q-30 74 -115 88q-17 3 -34 3q-120 0 -180 -89q-56 -83 -26 -194q7 -27 18 -51q-112 -10 -137 -100q-9 -32 -9 -73v-99q0 -141 101 -168q29 -8 69 -8v97
q-47 0 -61 24q-10 19 -10 54v94q0 73 58 81q9 1 20 1h40q45 -1 58 -17q18 -22 18 -79v-157h-70v-98h70v-10h99v10h53v-59h-53v12h-99v-12h-70v-98h70v-179h99v178h53z" />
    <glyph glyph-name="tml_KSsU" horiz-adv-x="2000" 
d="M892 434q98 0 133 -75q14 -31 15 -69v-164q0 -23 -32 -26q-6 -1 -13 -1v-99h393v99h-250v192q-1 110 -74 179q-66 62 -172 62v-98zM1219 334q0 -141 101 -168q29 -8 69 -8v97q-47 0 -61 24q-10 19 -10 54v94q0 72 51 81q9 1 20 1v98q-134 0 -162 -103q-8 -31 -8 -71v-99z
M813 0q83 0 131 68q30 43 29 90v58q0 55 -52 101q-48 42 -108 42v-98q51 0 60 -59q1 -10 1 -21q0 -73 -51 -82q-5 -1 -10 -1v-98zM311 -6q161 0 198 123q10 32 10 69v74h73v-40v-7v-56q0 -57 49 -107q51 -49 117 -50v98q-43 0 -59 44q-7 18 -7 39q0 65 48 78q9 2 18 2v98
q-18 0 -35 -4q9 47 61 68q27 11 58 11v98q-147 0 -215 -124q-13 -24 -21 -50h-87v212h147v101h-296v-101h51v-212h-158l1 212h52v101h-151v-323q-89 -24 -116 -94q-9 -24 -9 -49v-50q0 -82 73 -127q57 -33 145 -34v99q-77 0 -99 20q-21 20 -21 68q0 63 53 75q19 4 48 4h182
v-78q-2 -88 -110 -89v-99zM1664 0h83v256h-136v157q0 56 -14 96h164q83 0 97 -35q3 -9 3 -21q0 -28 -25 -40q-10 -4 -20 -4q-37 0 -45 34q-1 6 -1 11h-99q0 -66 53 -112q37 -31 79 -31h24q52 0 94 44q39 42 39 99v9q0 123 -136 142q-27 3 -59 3h-323v-99q40 0 53 -17
q17 -23 17 -79v-157h-70v-98h70v-10h99v10h53v-59h-53v12h-99v-12h-70v-98h70v-179h99v178h53z" />
    <glyph glyph-name="tml_KSsUu" horiz-adv-x="2212" 
d="M914 434q98 0 133 -76q13 -31 14 -68v-164q0 -23 -31 -26q-6 -1 -13 -1v-99h393v99h-251v192q-1 112 -74 180q-67 62 -171 62v-99zM1240 334q0 -141 101 -168q29 -8 69 -8v98q-46 0 -60 22q-11 19 -11 56v93q0 72 51 81q9 1 20 1v98q-134 0 -162 -103q-8 -31 -8 -71v-99z
M835 0q82 0 130 68q29 43 29 90v58q0 56 -52 101q-48 42 -107 42v-98q49 0 58 -57q2 -11 2 -23q0 -69 -45 -80q-8 -2 -15 -2v-99zM333 -6q159 0 197 121q10 33 10 71v74h74v-40v-7v-56q0 -57 49 -107q51 -49 117 -50v99q-43 0 -60 44q-6 18 -6 38q0 68 52 79q7 1 14 1v98
q-19 0 -36 -4q10 47 60 68q27 11 59 11v99q-147 0 -215 -125q-13 -24 -21 -50h-87v213h147v100h-295v-100h50v-213h-157l1 213h52v100h-152v-323q-92 -25 -118 -98q-7 -22 -7 -45v-50q0 -83 74 -127q57 -33 145 -34v99q-78 0 -100 21q-21 21 -21 68q0 62 53 74q19 4 48 4
h182v-78q-2 -88 -109 -89v-99zM1685 0h83v257h-136v156q0 57 -14 97h170q86 0 97 -39q3 -8 3 -18q0 -28 -25 -40q-10 -4 -20 -4q-37 0 -45 33q-2 7 -2 12h-98q0 -66 53 -112q37 -31 79 -31h24q52 0 94 44q38 42 38 99v9q0 118 -124 140q-30 5 -67 5q0 73 75 93q22 6 46 6
q72 0 106 -41q16 -20 16 -46v-324q-2 -65 -68 -66h-59v-77h59q139 0 163 103q4 18 4 40v324q0 93 -79 146q-59 39 -142 39q-116 0 -178 -77q-39 -51 -41 -120h-233v-1h-1v-98q41 0 55 -18q16 -23 16 -78v-156h-71v-99h71v-10h98v10h53v-58h-53v12h-98v-12h-71v-99h71v-179
h98v178h53z" />
    <glyph glyph-name="tml_KSsa" horiz-adv-x="1787" 
d="M892 434q98 0 133 -75q14 -31 15 -69v-164q0 -23 -32 -26q-6 -1 -13 -1v-99h393v99h-250v192q-1 110 -74 179q-66 62 -172 62v-98zM1219 334q0 -141 101 -168q29 -8 69 -8v97q-47 0 -61 24q-10 19 -10 54v94q0 72 51 81q9 1 20 1v98q-134 0 -162 -103q-8 -31 -8 -71v-99z
M813 0q83 0 131 68q30 43 29 90v58q0 55 -52 101q-48 42 -108 42v-98q51 0 60 -59q1 -10 1 -21q0 -73 -51 -82q-5 -1 -10 -1v-98zM311 -6q161 0 198 123q10 32 10 69v74h73v-40v-7v-56q0 -57 49 -107q51 -49 117 -50v98q-43 0 -59 44q-7 18 -7 39q0 65 48 78q9 2 18 2v98
q-18 0 -35 -4q9 47 61 68q27 11 58 11v98q-147 0 -215 -124q-13 -24 -21 -50h-87v212h147v101h-296v-101h51v-212h-158l1 212h52v101h-151v-323q-89 -24 -116 -94q-9 -24 -9 -49v-50q0 -82 73 -127q57 -33 145 -34v99q-77 0 -99 20q-21 20 -21 68q0 63 53 75q19 4 48 4h182
v-78q-2 -88 -110 -89v-99zM1664 0h83v256h-136v157q-1 193 -169 194v-98q40 0 53 -17q17 -23 17 -79v-157h-70v-98h70v-10h99v10h53v-59h-53v12h-99v-12h-70v-98h70v-179h99v178h53z" />
    <glyph glyph-name="tml_KU" horiz-adv-x="984" 
d="M341 157h-103q0 -102 100 -139q50 -19 119 -19v99q-114 2 -116 59zM337 202q3 58 62 68q16 2 38 2h182v-85q-2 -88 -109 -89v-99q157 0 197 119q11 33 11 73v306h143v98h-292v-98h50v-126h-157l1 126h51v98h-151v-235q-86 -24 -114 -94q-11 -26 -11 -54v-10h99zM45 -1
q0 -105 69 -166q46 -40 102 -40h205v98h-189q-62 0 -81 77q-7 26 -7 55v268q0 61 28 82q23 16 61 16l-1 98q-107 0 -156 -73q-31 -48 -31 -118v-297zM474 -109v-98h286q101 0 151 74q25 39 25 81v271q0 112 -120 143q-22 6 -44 8v-98q43 -2 59 -40q7 -16 7 -38v-184
q0 -95 -54 -115q-12 -4 -25 -4h-285z" />
    <glyph glyph-name="tml_KUu" horiz-adv-x="1555" 
d="M593 273h203q65 0 78 -42q6 -19 6 -50q0 -67 -36 -93q-11 -8 -23 -8q-46 0 -51 132q-1 13 -1 24h-83q0 -157 56 -206q32 -27 82 -28q80 -1 117 71q23 44 23 109q0 153 -113 182q-24 6 -51 6h-207v-97zM1161 -1v85q-55 2 -64 11q-8 10 -8 39v258q-2 203 -209 204
q-130 0 -172 -108q-16 -42 -16 -93h85q2 114 103 115q110 0 122 -94q2 -12 2 -24v-321q0 -40 11 -50q20 -21 135 -22h11zM258 98q-78 0 -101 22q-20 21 -20 68q0 68 54 81q19 4 47 4h182v-86q-2 -88 -109 -89v-99q159 0 197 121q10 33 10 71v82h28v98h-28v126h124v98h-272
v-98h50v-126h-158l1 126h53v98h-152v-234q-89 -26 -116 -98q-9 -25 -9 -51v-51q0 -83 72 -127q57 -35 147 -35v99zM1206 0h315v84h-315v-84z" />
    <glyph glyph-name="tml_LAi" horiz-adv-x="1195" 
d="M653 505q90 0 120 -84q10 -27 11 -57v-209q0 -79 57 -125q41 -33 101 -33v99q-40 0 -54 35q-5 12 -5 24v206q-1 96 -59 166q-64 75 -171 76v-98zM981 591l1 -99q61 0 71 -42q3 -13 3 -31v-262q0 -46 -39 -58q-11 -3 -22 -3v-99q97 0 140 77q20 38 20 83v264
q0 140 -111 164q-28 6 -63 6zM357 154q0 -16 6 -36q-55 -42 -124 -35q-64 7 -78 54q-11 40 23 95l221 340q54 96 20 194q-31 92 -121 128q-44 17 -95 17q-101 0 -146.5 -77t-9 -154t134.5 -77q56 0 85 39q9 12 13 25l-59 68q-2 -28 -30 -34q-6 -1 -12 -1q-34 0 -43 35
q-2 9 -2 17q0 30 29 47q21 12 50 12q67 0 100 -49q50 -72 -24 -189q-2 -3 -3 -5l-195 -285q-75 -111 -33 -203q33 -73 121 -95q113 -29 233 46q2 1 3 2q47 -36 101 -36v98q-40 0 -58 42q-8 19 -8 41q0 55 41 74q13 6 25 6v98q-25 0 -59 -11q9 96 71 139q30 21 65 21v98
q-122 0 -192 -115q-50 -81 -50 -174v-98v-6v-56zM577 -3q83 0 131 68q30 43 29 90v58q0 55 -52 101q-48 42 -108 42v-98q59 -2 60 -80q2 -75 -50 -82q-5 -1 -10 -1v-98z" />
    <glyph glyph-name="tml_LI" horiz-adv-x="1050" 
d="M677 0q97 0 140 77q20 38 20 83v264q0 138 -90 161q-23 6 -51 6q-12 0 -16 26q-6 44 30 69q26 16 64 16v98q-125 0 -170 -95q-33 -69 -10 -142q19 -60 61 -67q4 -1 9 -1q61 0 71 -42q3 -13 3 -31v-262q0 -45 -38 -58q-11 -3 -23 -3v-99zM335 508q89 0 120 -83
q10 -27 11 -57l1 -210q0 -80 57 -126q42 -32 100 -32v99q-38 0 -54 34q-5 12 -5 25v207q0 93 -57 163q-64 77 -173 78v-98zM205 0v98q-42 0 -59 45q-7 18 -7 38q0 57 42 75q12 5 24 5v98q-26 0 -60 -11q9 96 71 139q31 21 65 21v98q-122 0 -192 -115q-50 -81 -50 -174v-97v1
v-8v-56q0 -57 49 -107q51 -49 117 -50zM260 0q82 0 130 68q29 43 29 90v58q0 56 -52 101q-48 42 -107 42v-98q58 -2 60 -79q-1 -83 -60 -84v-98zM828 701q83 -2 84 -112v-589h99v592q0 132 -83 183q-42 25 -100 25v-99z" />
    <glyph glyph-name="tml_LIi" horiz-adv-x="1016" 
d="M746 570q-64 21 -76 87q-12 62 28 110q39 43 101 40q58 0 78 -40q5 -11 5 -21q0 -37 -29 -48q-8 -3 -15 -3q-34 0 -41 27q-1 4 -1 8l-61 -74q15 -29 56 -47q23 -10 44 -10q85 0 123 70q35 64 8 133q-30 78 -120 98q-26 6 -54 6q-122 0 -185 -95q-52 -78 -37 -170
q2 -10 5 -20q28 -94 110 -138q44 -25 49 -51q1 -5 1 -9v-269q0 -48 -47 -54q-5 -1 -10 -1v-99q99 0 138 79q16 35 16 75v270q0 72 -17 99q-20 31 -69 47zM260 0q83 0 131 68q29 43 29 90v58q0 55 -52 101q-48 42 -108 42v-98q59 -2 60 -79q2 -77 -51 -83q-5 -1 -9 -1v-98z
M40 157q0 -58 50 -108q50 -48 115 -49v98q-40 0 -58 42q-8 19 -8 41q0 57 43 75q12 5 23 5v98q-25 0 -59 -11q9 98 72 140q30 20 64 20v98q-122 0 -192 -115q-50 -81 -50 -174v-97v-7v-56zM336 508q89 0 120 -83q10 -27 11 -57v-210q0 -79 57 -125q42 -33 101 -33v99
q-38 0 -54 34q-5 12 -5 25v207q-1 95 -59 165q-64 75 -171 76v-98z" />
    <glyph glyph-name="tml_LU" horiz-adv-x="1062" 
d="M274 0q82 0 130 68q29 43 29 90v58q0 56 -52 101q-48 42 -107 42v-98q58 -2 60 -79t-51 -83q-5 -1 -9 -1v-98zM53 157q0 -57 49 -107q51 -49 117 -50v98q-42 0 -59 45q-7 18 -7 38q0 57 43 75q12 5 23 5v98q-26 0 -60 -11q9 96 71 139q31 21 65 21v98q-122 0 -192 -115
q-50 -81 -50 -174v-97v1v-8v-56zM349 508q90 0 120 -81q11 -29 11 -59l1 -210q0 -80 57 -126q42 -32 100 -32v99q-38 0 -54 34q-5 12 -5 25v207q0 93 -57 163q-64 77 -173 78v-98zM677 594l1 -99q61 0 71 -42q3 -13 3 -31v-262q0 -45 -38 -58q-11 -3 -23 -3v-99q35 0 63 11
v-46h-562q-100 0 -129 -56q-8 -17 -8 -37v-28q1 -69 91 -89q24 -5 47 -5h218v79h-217q-26 0 -37 14.5t-0.5 29t35.5 14.5h557q-17 -57 -72 -58h-212v-79h213q149 1 171 137h167v696h-98v-618h-66v266h-1v193q0 140 -111 164q-28 6 -63 6z" />
    <glyph glyph-name="tml_LUu" horiz-adv-x="1417" 
d="M267 0q82 0 130 68q29 43 29 90v58q0 56 -52 101q-48 42 -107 42v-98q58 -2 60 -79t-51 -83q-5 -1 -9 -1v-98zM46 157q0 -57 49 -107q51 -49 117 -50v98q-42 0 -59 45q-7 18 -7 38q0 57 43 75q12 5 23 5v98q-26 0 -60 -11q9 96 71 139q31 21 65 21v98q-122 0 -192 -115
q-50 -81 -50 -174v-97v1v-8v-56zM342 508q89 0 120 -83q10 -27 11 -57l1 -210q0 -80 57 -126q42 -32 100 -32v99q-38 0 -54 34q-5 12 -5 25v207q0 93 -57 163q-64 77 -173 78v-98zM670 594l1 -99q61 0 71 -42q3 -13 3 -31v-262q0 -45 -38 -58q-11 -3 -23 -3v-99q35 0 63 11
v-47h-562q-103 0 -130 -57q-7 -17 -7 -35v-29q0 -69 90 -89q25 -5 48 -5h218v79h-216q-26 0 -37.5 14.5t-1.5 29t36 14.5h557q-17 -57 -72 -58h-212v-79h213q149 1 171 137h167v611h70v99h-168v-632h-66v267h-1v193q0 140 -111 164q-28 6 -63 6zM1195 1h98v496h84v99h-245
v-99h63v-496z" />
    <glyph glyph-name="tml_LlAi" horiz-adv-x="1269" 
d="M355 154q0 -18 6 -35q-56 -43 -125 -34q-63 7 -75 53q-11 40 23 95l221 340q54 97 20 196q-31 91 -121 127q-44 17 -95 17q-101 0 -146.5 -77.5t-9 -154.5t134.5 -77q56 0 85 39q9 12 13 25l-59 69q-2 -29 -32 -34q-5 -1 -10 -1q-35 0 -43 35q-2 8 -2 16q0 30 29 48
q21 12 50 12q65 0 99 -48q50 -71 -19 -185q-4 -6 -7 -11l-195 -285q-76 -111 -33 -203q34 -73 123 -95q114 -27 232 47q47 -36 101 -36v99q-42 0 -59 44q-7 18 -7 38q0 57 43 75q12 5 23 5v98q-26 0 -60 -11q10 97 74 139q32 21 68 21v97q-125 0 -197 -113q-50 -81 -50 -173
v-99v-7v-56zM575 -3q84 0 131 70q29 42 29 88v58q0 55 -52 101q-48 42 -108 42v-98q59 -2 60 -79q-4 -79 -60 -83v-99zM656 505q73 0 111 -68q22 -39 22 -86v-17v-12l1 -325h101l-3 341q2 137 47 159q13 6 28 6v99q-97 -1 -138 -78q-66 78 -169 78v-97zM1057 -3h98v506h74
v99h-212v-99h40v-506z" />
    <glyph glyph-name="tml_LlI" horiz-adv-x="1138" 
d="M40 157q0 -58 50 -108q50 -48 115 -49v98q-40 0 -58 42q-8 19 -8 41q0 57 43 75q12 5 23 5v98q-25 0 -59 -11q10 97 75 139q31 20 66 20v98q-125 0 -197 -114q-50 -80 -50 -172v-99v-7v-56zM260 0q83 0 131 68q29 43 29 90v58q0 55 -52 101q-48 42 -108 42v-98
q59 -2 60 -79q2 -77 -51 -83q-5 -1 -9 -1v-98zM341 507q73 0 111 -68q22 -38 22 -85v-17v-12l1 -325h101l-3 343q2 124 36 151q16 12 39 12v99q-96 -1 -138 -78q-66 78 -169 78v-98zM950 690q45 0 53 -43q3 -18 3 -65v-582h98v585q0 133 -58 176q-37 27 -96 27v-98zM742 0
h98v506h74v99h-73q1 63 25 78q12 7 30 7v98q-122 0 -147 -119q-5 -28 -7 -64h-42v-99h42v-506z" />
    <glyph glyph-name="tml_LlIi" horiz-adv-x="1130" 
d="M40 157q0 -58 50 -108q50 -48 115 -49v98q-40 0 -58 42q-8 19 -8 41q0 57 43 75q12 5 23 5v98q-25 0 -59 -11q10 97 75 139q31 20 66 20v98q-125 0 -197 -114q-50 -80 -50 -172v-99v-7v-56zM260 0q83 0 131 68q29 43 29 90v58q0 55 -52 101q-48 42 -108 42v-98
q59 -2 60 -79q2 -77 -51 -83q-5 -1 -9 -1v-98zM341 507q73 0 111 -68q22 -38 22 -85v-17v-12l1 -325h101l-3 341q2 137 47 159q13 6 28 6v99q-96 -1 -138 -78q-66 78 -169 78v-98zM742 0h98v506h74v99h-73q-59 124 -7 197q33 44 85 45q66 0 78 -47q1 -6 1 -11q0 -38 -31 -48
q-8 -2 -14 -2q-29 0 -39 23q-2 6 -2 11l-58 -68q12 -25 51 -44q24 -11 45 -11q86 0 123 70q33 63 6 130q-31 74 -116 88q-17 3 -34 3q-119 0 -178 -89q-56 -83 -28 -193q7 -28 19 -53v-1h-40v-99h40v-506z" />
    <glyph glyph-name="tml_LlU" horiz-adv-x="1316" 
d="M259 155q0 -57 49 -107q51 -49 117 -50v98q-42 0 -59 45q-7 18 -7 38q0 57 43 75q12 5 23 5v98q-27 0 -59 -11q10 97 75 139q31 20 66 20v98q-125 0 -197 -114q-51 -80 -51 -172v-100v-6v-56zM480 -2q82 0 130 68q29 43 29 90v58q0 56 -52 101q-48 42 -107 42v-98
q58 -2 60 -80q2 -75 -50 -82q-5 -1 -10 -1v-98zM561 505q72 0 111 -68q21 -39 22 -85v-17v-12l1 -325h101l-3 342q2 133 45 157q13 7 30 7v99q-97 -1 -138 -78q-66 78 -169 78v-98zM962 -2h98v506h74v99h-212v-99h40v-506zM223 -168h420v99h-410q-75 0 -90 62q-4 19 -4 43
v251q2 103 89 104v98q-97 0 -149 -66q-39 -51 -39 -131v-255q0 -133 91 -183q41 -22 92 -22zM697 -168h402q99 0 150 78q27 41 27 84v217q0 101 -105 139q-29 10 -59 13v-102q56 0 65 -56q1 -9 1 -19v-154q-2 -100 -80 -101h-401v-99z" />
    <glyph glyph-name="tml_LlUu" horiz-adv-x="1426" 
d="M362 156q0 -57 49 -107q51 -49 117 -50v98q-42 0 -60 43q-7 19 -7 40q0 57 43 75q12 5 24 5v98q-26 0 -60 -11q10 97 74 139q31 21 67 21v97q-125 0 -197 -114q-50 -80 -50 -172v-99v-7v-56zM583 -1q82 0 130 68q29 43 29 90v58q0 56 -52 101q-48 42 -107 42v-98
q58 -2 59 -79q2 -76 -49 -83q-5 -1 -10 -1v-98zM663 507q73 0 111 -68q22 -39 22 -86v-17v-12l1 -325h101l-3 341q2 137 47 159q13 6 28 6v99q-96 -1 -138 -78q-66 78 -169 78v-97zM1064 -1h98v506h74v99h-212v-99h40v-506zM40 30q0 -132 96 -183q44 -23 99 -23h512v98h-501
q-87 0 -102 68q-4 17 -4 39v335q0 71 26 85q12 6 28 6q38 0 46 -35q1 -6 1 -13q0 -35 -33 -43q-7 -1 -13 -1v-98q69 0 115 54q29 36 29 74v28q0 50 -42 92q-42 40 -102 40h-10q-119 0 -141 -129q-4 -28 -4 -58v-336zM800 -78v-98h392q105 0 159 78q28 41 28 84v235
q0 101 -106 138q-28 10 -58 13v-102q61 -10 66 -74v-172q0 -86 -66 -100q-12 -2 -24 -2h-391z" />
    <glyph glyph-name="tml_LllI" horiz-adv-x="810" 
d="M394 507h54q55 -1 55 -73v-250q-2 -84 -55 -85v-99q91 0 130 80q23 48 23 117v237q0 140 -106 165q-15 4 -30 5q5 96 75 97v98q-137 0 -167 -134q-6 -29 -7 -62q-113 -14 -121 -149v-20v-335h-107v496h-98v-595h204q0 -145 183 -145h3l108 -1v100q-133 0 -154 4
q-38 6 -42 35v7h52v99h-51v335q2 72 51 73zM672 593v-592h98v595q0 147 -98 189q-34 14 -78 14v-98q72 0 77 -90q1 -8 1 -18zM329 -164q-48 6 -74 44q-6 9 -8 17q-21 -20 -53 -9q-31 12 -33 45h-98q0 -82 62 -121q70 -44 164 1q21 10 40 23z" />
    <glyph glyph-name="tml_LllIi" horiz-adv-x="758" 
d="M394 507h54q55 -1 55 -73v-250q-2 -84 -55 -85v-99q91 0 130 80q23 48 23 117v237q0 145 -114 167q-10 2 -20 3q-56 118 -6 190q34 46 87 47q66 0 78 -48q1 -6 1 -11q0 -38 -31 -48q-8 -2 -14 -2q-29 0 -40 25q-2 5 -2 10l-58 -68q12 -25 50 -44q25 -12 47 -12
q86 0 123 70q33 63 5 130q-30 74 -115 88q-17 3 -34 3q-120 0 -180 -89q-56 -84 -27 -195q7 -24 17 -47q-123 -15 -123 -167v-2v-335h-107v496h-98v-595h204q0 -145 183 -145h3l108 -1v100q-133 0 -154 4q-38 6 -42 35v7h52v99h-51v335q2 72 51 73zM329 -164q-48 6 -74 44
q-6 9 -8 17q-21 -20 -53 -9q-31 12 -33 45h-98q0 -82 62 -121q70 -44 164 1q21 10 40 23z" />
    <glyph glyph-name="tml_LllU" horiz-adv-x="853" 
d="M660 0q91 0 130 80q23 48 23 117v237q0 149 -120 168q-16 3 -33 3v-98q55 0 55 -72v-1v-250q-2 -84 -55 -85v-99zM253 0h202v-146h98v34h92v-61h-229v-77h229q77 2 78 75v70q0 65 -61 70q-7 1 -13 1h-96v34h53v99h-51v335q2 71 51 73v98q-120 0 -144 -112q-5 -27 -5 -59
v-335h-106v496h-98v-595zM46 535l3 -587q0 -132 94 -179q40 -19 88 -19h131v77h-121q-74 0 -90 81q-3 18 -3 38l1 589q0 74 24 90q11 6 26 6h72v98h-78q-116 0 -141 -126q-6 -32 -6 -68z" />
    <glyph glyph-name="tml_LllUu" horiz-adv-x="962" 
d="M769 2q91 0 130 80q23 48 23 117v237q0 149 -120 168q-16 3 -33 3v-98q55 0 55 -72v-1v-250q-2 -84 -55 -85v-99zM361 2h203v-148h98v34h94v-61h-231v-77h230q77 2 78 75v69q0 64 -60 70q-8 1 -15 1h-96v37h53v99h-51v335q2 71 51 73v98q-120 0 -144 -112q-5 -27 -5 -59
v-335h-106v496h-99v-595zM39 -44q0 -136 93 -185q40 -21 90 -21h249v77h-238q-84 0 -92 106q-1 11 -1 22v404q0 74 25 89q12 6 28 6q37 0 45 -34q1 -7 1 -13q0 -37 -34 -45q-5 -1 -10 -1v-98q68 0 113 55q30 37 30 77v24q0 52 -43 94q-42 39 -101 39h-10q-126 0 -143 -149
q-2 -20 -2 -42v-405z" />
    <glyph glyph-name="tml_MI" horiz-adv-x="808" 
d="M591 701q70 0 78 -80q1 -13 1 -27v-594h98v597q0 144 -96 187q-35 16 -81 16v-99zM394 507h54q55 -1 55 -73v-250q-2 -84 -55 -85v-99q91 0 130 80q23 48 23 117v237q0 149 -120 168l-18 2q3 87 58 96q8 1 16 1v99q-139 0 -167 -138q-5 -28 -6 -59q-119 -17 -119 -167v-2
v-335h-107v496h-98v-595h354v99h-51v335q2 72 51 73z" />
    <glyph glyph-name="tml_MIi" horiz-adv-x="761" 
d="M394 507h54q55 -1 55 -73v-250q-2 -84 -55 -85v-99q91 0 130 80q23 48 23 117v237q0 146 -116 168l-16 2q-54 120 -2 191q33 42 84 43q65 0 77 -47q2 -7 2 -12q0 -38 -31 -48q-8 -2 -14 -2q-29 0 -40 25q-2 5 -2 10l-58 -68q12 -25 50 -44q25 -12 47 -12q86 0 123 70
q33 63 5 130q-30 74 -115 88q-17 3 -34 3q-120 0 -179 -89q-56 -83 -27 -194q6 -23 15 -44q-125 -15 -125 -168v-2v-335h-107v496h-98v-595h354v99h-51v335q2 72 51 73z" />
    <glyph glyph-name="tml_MU" horiz-adv-x="880" 
d="M686 0q91 0 130 80q23 48 23 117v237q0 146 -115 168q-18 3 -38 3v-98q55 -1 55 -73v-250q-2 -84 -55 -85v-99zM278 0h204v-68h-99v-98h99q73 0 93 62q5 18 5 37v67h52v99h-51v335q2 72 51 73v98q-126 0 -146 -123q-3 -23 -3 -48v-335h-107v496h-98v-595zM233 -166h96v98
h-86q-92 0 -103 69q-2 12 -2 25v519q9 100 100 105v98q-104 0 -159 -71q-40 -52 -40 -130v-519q0 -127 97 -174q43 -20 97 -20z" />
    <glyph glyph-name="tml_MUu" horiz-adv-x="981" 
d="M783 -1q91 0 130 80q23 48 23 117v237q0 150 -120 169q-16 2 -33 2v-98q55 -1 55 -73v-250q-2 -84 -55 -85v-99zM375 -1h204v-67h-100v-98h100q75 0 94 64q5 17 5 35v66h51v99h-51v335q2 72 51 73v98q-126 0 -146 -123q-3 -23 -3 -48v-335h-106v496h-99v-595zM42 27
q0 -127 92 -173q40 -20 90 -20h201v98h-190q-72 0 -87 52q-5 17 -5 42v337q0 75 33 87q10 4 22 4q43 -7 47 -47q0 -36 -35 -44q-7 -1 -14 -1v-99q70 0 117 55q30 37 30 77v23q0 54 -44 96q-42 38 -101 38h-9q-107 0 -137 -108q-10 -37 -10 -79v-338z" />
    <glyph glyph-name="tml_NI" horiz-adv-x="838" 
d="M457 277q36 0 46 -16q9 -17 9 -55l-1 -181q0 -82 -41 -110q-16 -10 -34 -10h-231q-139 0 -168 -119q-8 -35 -8 -79h102q0 85 35 97q9 3 19 3h252q127 0 163 133q11 41 11 85v181q0 145 -107 165q-21 4 -47 4v-98zM62 0h98v497h45v98h-143v-595zM303 0h101l-1 497h141v98
h-130q0 91 81 104q15 2 31 2v98q-170 0 -204 -141q-7 -30 -7 -63h-45v-98h34zM580 701q118 -2 119 -110v-591h99v594q0 131 -98 180q-50 25 -120 25v-98z" />
    <glyph glyph-name="tml_NIi" horiz-adv-x="690" 
d="M457 277q36 0 46 -16q9 -17 9 -55l-1 -181q0 -82 -41 -110q-16 -10 -34 -10h-231q-139 0 -168 -119q-8 -35 -8 -79h102q0 85 35 97q9 3 19 3h252q127 0 163 133q11 41 11 85v181q0 145 -107 165q-21 4 -47 4v-98zM62 0h98v497h45v98h-143v-595zM303 0h101l-1 497h141v98
h-141q-59 123 -7 196q32 45 86 46q65 0 77 -47q2 -7 2 -12q0 -38 -31 -48q-8 -2 -14 -2q-29 0 -40 25q-2 5 -2 10l-58 -68q12 -25 50 -44q25 -12 47 -12q86 0 123 70q33 63 5 130q-30 74 -115 88q-17 3 -34 3q-120 0 -179 -89q-56 -83 -28 -193q7 -28 19 -53h-34v-98h34z
" />
    <glyph glyph-name="tml_NU" horiz-adv-x="843" 
d="M58 -129v-29q1 -69 94 -88q23 -4 45 -4l114 -1v78h-112q-26 0 -37.5 14.5t-1.5 29.5t36 15h331q-17 -58 -71 -59h-92v-78h93q150 1 170 137h167v696h-98v-618h-66v187h-98l-1 -187h-335q-100 0 -129 -55q-9 -18 -9 -38zM322 1h100l-1 496h144v98h-485v-5v-589h98v496h145
zM466 276q50 0 60 -26q6 -15 6 -45h98q0 139 -102 163q-26 6 -62 6v-98z" />
    <glyph glyph-name="tml_NUu" horiz-adv-x="1442" 
d="M46 -129v-29q1 -69 94 -88q23 -4 45 -4l113 -1v78h-111q-27 0 -38 14.5t-1 29.5t36 15h331q-17 -58 -72 -59h-92v-78h93q147 0 170 129q0 5 1 8h167v611h58v98h-155v-13h-1v-618h-66v187h-98l-1 -187h-335q-100 0 -129 -55q-9 -17 -9 -38zM309 1h101l-1 496h144v98h-485
v-5v-589h98v496h145zM454 276q50 0 60 -26q6 -15 6 -45h98q0 139 -102 163q-26 6 -62 6v-98zM969 -106h98v603h84v98h-257v-98h75v-603z" />
    <glyph glyph-name="tml_NgI" horiz-adv-x="1074" 
d="M728 0h98v595h-97q-17 0 -22 27q-7 39 24 64q23 17 59 17v98q-110 0 -158 -83q-38 -66 -15 -139q21 -67 80 -82q15 -4 31 -4v-493zM257 0h418v98h-80q1 6 1 15v116q0 93 -104 118q-30 7 -65 7v-99q52 0 63 -12q7 -10 7 -28v-76q0 -29 -22 -36q-16 -5 -47 -5h-171v-98z
M275 138h98v359h109v98h-449v-4v-591h98v497h144v-359zM843 698q83 -2 84 -112v-582h99v585q0 134 -85 183q-41 24 -98 24v-98z" />
    <glyph glyph-name="tml_NgIi" horiz-adv-x="1071" 
d="M728 0h98v595h-4q-73 21 -95 87q-21 62 16 113q38 50 109 51q58 0 78 -39q6 -11 6 -21q0 -40 -31 -49q-7 -2 -13 -2q-32 0 -40 27q-2 4 -2 9l-62 -75q15 -28 57 -47q24 -10 45 -10q85 0 123 70q35 63 7 133q-30 78 -119 98q-26 6 -54 6q-120 0 -184 -92q-55 -79 -37 -178
q18 -98 102 -150v-526zM257 0h418v98h-80q1 6 1 15v116q0 93 -104 118q-30 7 -65 7v-99q52 0 63 -12q7 -10 7 -28v-76q0 -29 -22 -36q-16 -5 -47 -5h-171v-98zM275 138h98v359h109v98h-449v-4v-591h98v497h144v-359z" />
    <glyph glyph-name="tml_NgU" horiz-adv-x="814" 
d="M670 -257h98v852h-98v-497h-78q1 5 1 13v118q0 86 -87 115q-32 10 -67 10v-99q41 -1 50 -13q6 -9 6 -25v-78q0 -30 -21 -37q-16 -4 -51 -4h-166v-98h413v-257zM287 176h98v321h109v98h-449v-4v-591h98v497h144v-321z" />
    <glyph glyph-name="tml_NgUu" horiz-adv-x="1029" 
d="M154 -303h310v99h-306q-24 0 -39 24q-8 14 -8 30q0 43 36 51q6 1 11 1q41 -4 42 -44h74v8q0 71 -58 99q-26 13 -58 13q-71 0 -109 -46q-23 -28 -23 -63v-57q0 -82 74 -107q25 -8 54 -8zM518 -204v-99h373q55 0 85 43q15 22 15 47v215q0 47 -52 64q-20 6 -44 6h-75v523
h-98v-497h-78q1 5 1 13v118q0 86 -87 115q-32 10 -67 10v-99q40 -1 49 -13q6 -9 6 -25v-78q0 -30 -21 -37q-16 -4 -51 -4h-165v-98h413v-153h98v127h75v-178h-377zM339 176h98v321h108v98h-449v-4v-591h99v497h144v-321z" />
    <glyph glyph-name="tml_NnAa.alt" horiz-adv-x="1555" 
d="M40 16q0 -127 91 -180q46 -26 103 -26h540v98h-524q-90 0 -107 68q-4 18 -4 40v499q2 113 101 114h52l35 99h-88q-94 0 -150 -63q-49 -57 -49 -150v-499zM829 -92v-98h511q102 0 150 75q24 38 24 79v172q-1 57 -37 91q30 41 30 105v95q0 137 -133 159q-22 4 -47 5v-98
q78 -11 81 -68v-99q-3 -51 -54 -52v-103q61 -3 62 -61v-114q0 -64 -34 -80q-18 -8 -43 -8h-510zM207 166q0 -89 53 -137q34 -30 80 -30v98q-33 0 -34 62v8l-1 120q0 167 111 200q32 10 74 10v99q-216 0 -268 -186q-15 -55 -15 -123v-121zM367 356q54 0 62 -48q1 -10 1 -21
v-121q-1 -68 -35 -69v-98q86 0 118 83q15 38 15 84v121q-1 143 -90 144q-42 -3 -63 -43q-9 -18 -8 -32zM579 167q0 -89 53 -137q34 -30 80 -30v98q-35 1 -35 70v119q1 114 60 166q65 -50 65 -162v-124q-1 -68 -37 -69v-98q87 0 120 84q15 37 15 83v131q-1 122 -58 195
q29 3 58 3v99q-91 -1 -158 -29q-75 30 -198 30v-99q56 0 96 -7q-61 -79 -61 -205v-118zM952 168q0 -89 53 -137q34 -30 80 -30v98q-35 1 -35 70v118q1 120 66 171q58 -49 58 -166v-124q-1 -68 -35 -69v-98q84 0 118 81q16 39 16 86v130q0 123 -52 197q34 2 51 2v99
q-82 0 -149 -26q-65 25 -169 25v-98q34 0 62 -3q-64 -78 -64 -209v-117z" />
    <glyph glyph-name="tml_NnAi" horiz-adv-x="1728" 
d="M364 164q0 -21 3 -40q-52 -45 -122 -40q-65 4 -82 48q-15 42 21 101l221 340q54 97 20 196q-31 91 -121 127q-44 17 -95 17q-101 0 -146.5 -77.5t-9 -154.5t134.5 -77q56 0 85 39q9 12 13 25l-59 69q-2 -29 -32 -34q-5 -1 -10 -1q-35 0 -43 35q-2 8 -2 16q0 30 29 48
q21 12 50 12q65 0 99 -48q50 -71 -19 -185q-4 -6 -7 -11l-195 -285q-76 -111 -33 -203q34 -73 122 -95q111 -26 228 44q35 -34 83 -34v99q-34 2 -34 70v125q-1 174 121 203q28 7 63 7v99q-211 0 -265 -178q-18 -57 -18 -131v-126zM524 359q52 0 61 -42q2 -13 2 -27v-126
q-1 -68 -35 -69v-99q85 0 118 83q15 38 15 85v126q-1 144 -90 145q-43 -4 -64 -44q-8 -17 -7 -32zM701 500q56 0 96 -7q-61 -79 -61 -205v-123q0 -89 53 -137q35 -31 81 -31v99q-36 1 -36 70v124q1 114 60 166q65 -49 65 -161v-130q-1 -68 -36 -69v-99q86 0 119 84
q15 38 15 84v136q-1 123 -58 196q29 3 58 3v98q-91 -1 -158 -29q-75 30 -198 30v-99zM1109 165q0 -89 53 -137q34 -30 80 -30v99q-35 1 -35 69v124q1 120 66 171q59 -48 59 -166v-130q-1 -67 -36 -68v-99q84 0 118 81q16 39 16 86v136q0 125 -52 197q26 3 51 3v98
q-82 0 -149 -26q-64 25 -169 25v-98q34 0 62 -3q-64 -78 -64 -209v-123zM1493 2h99v498h97v99h-205v-98h9v-499z" />
    <glyph glyph-name="tml_NnI" horiz-adv-x="1596" 
d="M1108 500h61v-499h98v498h97v99h-96q1 67 22 84q15 12 39 12v99q-136 0 -156 -143q-3 -24 -4 -52h-61q-86 0 -150 -26q-65 26 -171 26v-98q37 0 63 -4q-65 -80 -65 -208v-123q0 -89 53 -137q34 -30 80 -30v98q-35 1 -35 70v124q1 119 66 170q58 -49 58 -166v-129
q-1 -68 -35 -69v-98q84 0 118 81q16 39 16 86v136q0 124 -52 196q27 3 54 3zM40 163q0 -91 54 -138q34 -29 79 -29v98q-33 0 -34 62v8l-1 125q0 171 116 202q30 8 69 8v99q-226 0 -272 -202q-11 -49 -11 -107v-126zM199 358q55 0 62 -47q2 -10 2 -21v-127q-1 -68 -36 -69
v-98q87 0 120 85q14 36 14 82v127q-1 143 -90 144q-43 -4 -64 -44q-9 -17 -8 -32zM412 164q0 -91 54 -138q34 -29 79 -29v98q-35 1 -35 70v124q1 115 60 167q65 -50 65 -162v-130q-1 -68 -37 -69v-98q87 0 120 84q15 37 15 83v136q-1 123 -58 196q29 3 58 3v99
q-89 -1 -158 -30q-75 30 -198 30v-99q55 0 97 -7q-62 -76 -62 -205v-123zM1383 694q48 0 57 -41q3 -17 3 -66v-586h98v589q0 140 -68 181q-36 22 -90 22v-99z" />
    <glyph glyph-name="tml_NnIi" horiz-adv-x="1597" 
d="M1142 500h61v-499h98v499h97v98h-96q-59 123 -7 196q32 44 85 45q66 0 78 -47q1 -6 1 -11q0 -38 -31 -48q-8 -2 -14 -2q-29 0 -39 23q-2 6 -2 11l-58 -68q12 -25 51 -44q24 -11 45 -11q86 0 123 70q33 63 5 130q-30 74 -115 88q-17 3 -34 3q-120 0 -179 -89
q-56 -83 -28 -193q7 -28 19 -53h-60q-86 0 -150 -26q-65 26 -171 26v-98q37 0 63 -4q-65 -80 -65 -208v-123q0 -89 53 -137q34 -30 80 -30v98q-35 1 -35 70v124q1 119 66 170q58 -49 58 -166v-129q-1 -68 -35 -69v-98q84 0 118 81q16 39 16 86v136q0 124 -52 196q27 3 54 3z
M74 163q0 -91 54 -138q34 -29 79 -29v98q-33 0 -34 62v8l-1 125q0 171 116 202q30 8 69 8v99q-226 0 -272 -202q-11 -49 -11 -107v-126zM233 358q55 0 62 -47q2 -10 2 -21v-127q-1 -68 -36 -69v-98q87 0 120 85q14 36 14 82v127q-1 143 -90 144q-43 -4 -64 -44
q-9 -17 -8 -32zM446 164q0 -91 54 -138q34 -29 79 -29v98q-35 1 -35 70v124q1 115 60 167q65 -50 65 -162v-130q-1 -68 -37 -69v-98q87 0 120 84q15 37 15 83v136q-1 123 -58 196q29 3 58 3v99q-89 -1 -158 -30q-75 30 -198 30v-99q55 0 97 -7q-62 -76 -62 -205v-123z" />
    <glyph glyph-name="tml_NnU" horiz-adv-x="1490" 
d="M61 -127v-29q1 -68 92 -88q24 -5 47 -5h431v78h-430q-27 0 -38 14.5t-0.5 29.5t36.5 15h977q-17 -58 -71 -59h-419v-78h420q149 0 171 131q1 4 1 6h166v696h-98v-618h-65v424q0 159 -114 192q-20 6 -45 9v-98q42 -12 52 -53q6 -22 6 -55v-419h-981q-100 0 -129 -55
q-9 -18 -9 -38zM47 166q0 -91 54 -138q34 -29 79 -29v98q-35 2 -35 70v122q0 164 107 197q33 10 78 10v99q-257 0 -281 -254q-2 -25 -2 -52v-123zM216 374q44 0 52 -49q2 -15 2 -35v-124q-1 -68 -36 -69v-98q87 0 120 85q14 37 14 82v124q0 112 -53 138q-13 6 -27 6
q-7 0 -59 -47q-12 -11 -13 -13zM407 167q0 -91 54 -138q34 -29 79 -29v98q-35 1 -35 70v121q1 118 59 167q66 -47 66 -162v-127q-1 -68 -37 -69v-98q87 0 120 84q15 37 15 83v133q-1 122 -55 194q15 2 43 2v99q-84 -1 -146 -26q-68 26 -186 26v-99q41 0 82 -5
q-59 -77 -59 -204v-120zM903 1v98q-35 1 -35 64v134q1 113 62 163q60 -47 60 -166v-126q-1 -68 -35 -69v-98q84 0 118 81q16 39 16 86v133q0 124 -51 195h31v98q-74 -1 -131 -23q-61 24 -168 24v-98q32 0 59 -3q-60 -76 -60 -199v-133q0 -86 53 -132q35 -29 81 -29z" />
    <glyph glyph-name="tml_NnUu" horiz-adv-x="1842" 
d="M57 -127v-29q1 -68 92 -88q24 -5 47 -5h431v78h-431q-26 0 -37 14.5t-0.5 29.5t36.5 15h977q-17 -58 -71 -59h-419v-78h420q149 0 171 131q1 4 1 6h166v609h57v98h-155v-629h-65v424q0 159 -114 192q-20 6 -45 9v-98q42 -12 52 -53q6 -22 6 -55v-419h-981
q-100 0 -129 -55q-9 -18 -9 -38zM43 166q0 -91 54 -138q34 -29 79 -29v98q-35 2 -35 70v122q0 164 107 197q33 10 78 10v99q-257 0 -281 -254q-2 -25 -2 -52v-123zM212 374q44 0 52 -49q2 -15 2 -35v-124q-1 -68 -36 -69v-98q87 0 120 85q14 37 14 82v124q0 112 -53 138
q-13 6 -27 6q-7 0 -59 -47q-12 -11 -13 -13zM403 167q0 -91 54 -138q34 -29 79 -29v98q-35 1 -35 70v121q1 118 59 167q66 -47 66 -162v-127q-1 -68 -37 -69v-98q87 0 120 84q15 37 15 83v133q-1 122 -55 194q15 2 43 2v99q-84 -1 -146 -26q-68 26 -186 26v-99q41 0 82 -5
q-59 -77 -59 -204v-120zM899 1v98q-35 1 -35 64v134q1 113 62 163q60 -47 60 -166v-126q-1 -68 -35 -69v-98q84 0 118 81q16 39 16 86v133q0 124 -51 195h31v98q-74 0 -132 -23q-61 24 -167 24v-98q32 0 59 -3q-60 -76 -60 -199v-133q0 -86 53 -132q35 -29 81 -29z
M1625 -106h98l1 603h84v98h-257v-98h75z" />
    <glyph glyph-name="tml_NnnAa.alt" horiz-adv-x="1461" 
d="M40 16q0 -129 92 -181q46 -25 102 -25h386v98h-370q-90 0 -107 68q-4 18 -4 40v503q2 113 101 114h52l35 99h-88q-94 0 -150 -63q-49 -57 -49 -150v-503zM689 -92v-98h277q102 0 150 75q24 38 24 79v180q-1 57 -37 91q30 41 30 105v95q0 137 -133 159q-22 4 -47 5v-98
q78 -11 81 -68v-99q-3 -51 -54 -52v-103q61 -3 62 -60v-123q0 -63 -33 -80q-18 -8 -44 -8h-276zM215 156q0 -89 53 -137q35 -31 81 -31v99q-33 8 -36 70v136q0 184 133 210q24 4 52 4v98q-193 0 -256 -153q-27 -67 -27 -159v-137zM375 361q55 0 62 -47q2 -10 2 -21v-137
q-1 -68 -37 -69v-99q87 0 121 84q14 38 14 84v137q-1 143 -90 144q-43 -3 -64 -44q-9 -17 -8 -32zM552 507q59 0 97 -8q-63 -79 -63 -208v-134q0 -89 53 -137q35 -31 81 -31v99q-35 1 -35 70v135q1 116 59 168q65 -50 65 -163v-141q-3 -67 -35 -69v-99q87 0 120 85
q14 37 14 83v147q-1 127 -61 201q26 3 52 3v98q-81 -1 -151 -31q-76 30 -196 30v-98z" />
    <glyph glyph-name="tml_NnnAi" horiz-adv-x="1728" 
d="M361 153q0 -13 2 -32q-54 -44 -124 -37q-63 6 -78 52q-11 41 23 97l221 340q54 97 20 196q-31 91 -121 127q-44 17 -95 17q-101 0 -146.5 -77.5t-9 -154.5t134.5 -77q56 0 85 39q9 12 13 25l-59 69q-2 -29 -32 -34q-5 -1 -10 -1q-35 0 -43 35q-2 8 -2 16q0 30 29 48
q21 12 50 12q65 0 99 -48q50 -71 -19 -185q-4 -6 -7 -11l-195 -285q-75 -110 -33 -202q33 -74 122 -96q107 -26 220 39q37 -39 90 -39v98q-36 2 -36 70v139q-1 181 129 208q26 6 56 6v98q-188 0 -254 -146q-30 -69 -30 -166v-140zM522 361q55 0 62 -47q2 -10 2 -21v-139
q-1 -68 -37 -69v-99q86 0 120 83q15 38 15 85v139q-1 143 -90 144q-43 -4 -64 -44q-9 -17 -8 -32zM699 507q59 0 97 -8q-63 -79 -63 -208v-137q0 -90 54 -137q34 -30 80 -30v98q-36 1 -36 70v138q1 116 60 168q65 -50 65 -163v-144q-1 -68 -35 -69v-98q87 0 119 85
q14 37 14 82v150q-1 126 -61 200q27 3 53 3v99q-82 -1 -152 -32q-75 31 -195 31v-98zM1117 0h98v506h96v99h-212v-98h18v-507z" />
    <glyph glyph-name="tml_NnnI" horiz-adv-x="1218" 
d="M412 154q0 -89 53 -137q34 -30 80 -30v98q-35 1 -35 70v138q1 116 60 168q65 -50 65 -163v-144q-1 -68 -36 -69v-98q88 0 120 85q14 36 14 82v150q-1 126 -61 200q27 3 53 3v99q-82 -1 -152 -32q-75 31 -195 31v-98q59 0 97 -8q-63 -79 -63 -208v-137zM40 153
q0 -88 53 -136q35 -31 82 -31v98q-33 0 -36 58v12l-1 139q0 176 123 207q28 7 63 7v98q-188 0 -254 -146q-30 -69 -30 -166v-140zM200 361q52 0 62 -42q2 -12 2 -26v-139q-1 -68 -36 -69v-99q87 0 120 84q14 38 14 84v139q-1 143 -90 144q-43 -4 -64 -44q-9 -17 -8 -32z
M778 507h18v-507h98v506h96v99h-95q1 67 32 82q13 5 29 5v98q-134 0 -156 -139q-3 -21 -4 -46h-18v-98zM1010 692q48 0 57 -43q3 -18 3 -65v-584h98v587q0 138 -66 180q-36 23 -92 23v-98z" />
    <glyph glyph-name="tml_NnnIi" horiz-adv-x="1177" 
d="M412 154q0 -89 53 -137q34 -30 80 -30v98q-35 1 -35 70v138q1 116 60 168q65 -50 65 -163v-144q-1 -68 -36 -69v-98q88 0 120 85q14 36 14 82v150q-1 126 -61 200q27 3 53 3v99q-82 -1 -152 -32q-75 31 -195 31v-98q59 0 97 -8q-63 -79 -63 -208v-137zM40 153
q0 -88 53 -136q35 -31 82 -31v98q-33 0 -36 58v12l-1 139q0 176 123 207q28 7 63 7v98q-188 0 -254 -146q-30 -69 -30 -166v-140zM200 361q52 0 62 -42q2 -12 2 -26v-139q-1 -68 -36 -69v-99q87 0 120 84q14 38 14 84v139q-1 143 -90 144q-43 -4 -64 -44q-9 -17 -8 -32z
M778 507h17v-24h1v-483h98v506h96v99h-97q-58 121 -7 194q33 45 86 46q66 0 78 -48q1 -6 1 -11q0 -38 -31 -48q-8 -2 -14 -2q-29 0 -39 24q-2 6 -2 11l-58 -68q12 -26 51 -44q24 -12 45 -12q86 0 123 70q33 63 6 130q-31 74 -116 88q-17 3 -34 3q-119 0 -178 -89
q-56 -84 -28 -195q7 -25 18 -49h-16v-98z" />
    <glyph glyph-name="tml_NnnU" horiz-adv-x="1189" 
d="M45 -127v-29q1 -68 92 -88q24 -5 47 -5h262v78h-262q-26 0 -37 14.5t-0.5 29.5t36.5 15h668q-17 -58 -72 -59h-279v-78h280q149 0 171 131q1 4 1 6h174v696h-98v-618h-73v427q0 160 -116 193q-19 5 -43 8v-98q42 -13 53 -53q6 -22 6 -55v-422h-672q-100 0 -129 -55
q-9 -17 -9 -38zM46 160q0 -86 53 -132q35 -29 81 -29v98q-31 0 -36 52v12v168q0 129 81 162q39 15 108 16v98q-267 0 -286 -241q-1 -17 -1 -35v-169zM207 371q62 -2 63 -73v-138q-1 -62 -36 -63v-98q87 0 120 82q14 36 14 79v138q-1 147 -90 148q-43 -4 -63 -43
q-10 -17 -8 -32zM556 0v98q-36 1 -36 64v163q1 100 61 146q66 -42 66 -145v-159q-1 -68 -37 -69v-98q89 0 122 85q14 37 14 82v165q-1 109 -53 173q17 1 46 1v98q-82 3 -154 -26q-75 27 -198 27v-98q56 0 91 -5q-56 -70 -56 -179v-162q0 -86 53 -132q35 -29 81 -29z" />
    <glyph glyph-name="tml_NnnUu" horiz-adv-x="1531" 
d="M45 -127v-29q1 -68 92 -88q24 -5 47 -5h262v78h-262q-26 0 -37 14.5t-0.5 29.5t36.5 15h668q-17 -58 -72 -59h-279v-78h280q149 0 171 131q1 4 1 6h174v609h57v98h-155v-629h-73v427q0 160 -116 193q-19 5 -43 8v-98q42 -13 53 -53q6 -22 6 -55v-422h-672
q-100 0 -129 -55q-9 -17 -9 -38zM46 160q0 -86 53 -132q35 -29 81 -29v98q-31 0 -36 52v12v168q0 129 81 162q39 15 108 16v98q-267 0 -286 -241q-1 -17 -1 -35v-169zM207 371q62 -2 63 -73v-138q-1 -62 -36 -63v-98q87 0 120 82q14 36 14 79v138q-1 147 -90 148
q-43 -4 -63 -43q-10 -17 -8 -32zM556 0v98q-36 1 -36 64v163q1 100 61 146q66 -42 66 -145v-159q-1 -68 -37 -69v-98q89 0 122 85q14 37 14 82v165q-1 109 -53 173q17 1 46 1v98q-82 3 -154 -26q-75 27 -198 27v-98q56 0 91 -5q-56 -70 -56 -179v-162q0 -86 53 -132
q35 -29 81 -29zM1312 -109h98v606h84v98h-258v-98h76v-606z" />
    <glyph glyph-name="tml_NyI" horiz-adv-x="1286" 
d="M250 -195h286v98h-276q-95 0 -105 74q-1 9 -1 20v396q7 101 101 105v99q-104 0 -160 -71q-39 -52 -39 -131v-396q0 -127 97 -174q43 -20 97 -20zM591 -97v-99h237q187 0 206 152q2 19 2 39v159q0 153 -135 167q-16 2 -34 2v-98q48 0 60 -18q10 -16 10 -53v-159
q0 -68 -39 -84q-20 -8 -51 -8h-256zM282 177q0 -96 68 -146q43 -30 98 -30v98q-42 0 -59 43q-7 18 -7 40q0 65 49 77q9 2 17 2v99q-30 0 -58 -11q15 105 90 137q26 11 56 11v99q-143 0 -212 -133q-42 -80 -42 -176v-66v-7v-37zM503 1q76 0 127 63q36 44 36 91v58
q0 101 -86 134q-34 13 -77 13v-99q62 -2 64 -79q1 -62 -41 -79q-12 -4 -23 -4v-98zM727 0h99v496h108v99h-108q6 86 88 98q12 1 23 1v98q-148 0 -194 -116q-14 -37 -16 -81h-136v-99h136v-496zM991 694q113 -3 114 -110v-583h98v586q0 131 -96 180q-48 25 -116 25v-98z" />
    <glyph glyph-name="tml_NyIi" horiz-adv-x="1073" 
d="M245 -195h286v98h-276q-95 0 -105 74q-1 9 -1 20v396q7 101 101 105v99q-104 0 -160 -71q-39 -52 -39 -131v-396q0 -127 97 -174q43 -20 97 -20zM586 -97v-99h238q187 0 205 153q2 18 2 38v159q0 153 -135 167q-16 2 -34 2v-98q49 0 61 -18q10 -16 10 -53l-1 -159
q0 -68 -38 -84q-20 -8 -51 -8h-257zM277 177q0 -96 68 -146q43 -30 98 -30v98q-42 0 -59 43q-7 18 -7 40q0 63 48 77q9 2 18 2v99q-30 0 -58 -11q17 106 91 138q26 10 55 10v99q-141 0 -211 -131q-43 -82 -43 -178v-66v1v-8v-37zM498 1q76 0 127 63q36 44 36 91v58
q0 101 -86 134q-34 13 -77 13v-99q62 -2 64 -79q1 -62 -41 -79q-12 -4 -23 -4v-98zM723 0h98v496h108v99h-108q-59 122 -8 196q32 45 85 46q66 0 78 -48q1 -6 1 -11q0 -38 -31 -48q-8 -2 -14 -2q-29 0 -39 24q-2 6 -2 11l-58 -68q12 -26 51 -44q24 -12 45 -12q86 0 123 70
q33 63 6 130q-31 74 -116 88q-17 3 -34 3q-119 0 -178 -89q-56 -83 -28 -193q7 -28 19 -53h-135v-99h135v-24h2v-472z" />
    <glyph glyph-name="tml_NyU" horiz-adv-x="999" 
d="M53 177q0 -96 68 -146q43 -30 98 -30v98q-42 0 -59 43q-7 18 -7 40q0 63 48 77q9 2 18 2v99q-30 0 -58 -11q17 106 91 138q26 10 55 10v99q-141 0 -211 -131q-43 -82 -43 -178v-66v1v-8v-37zM274 1q76 0 127 63q36 44 36 91v58q0 101 -86 134q-34 13 -77 13v-99
q62 -2 64 -79q1 -62 -41 -79q-12 -4 -23 -4v-98zM499 0h98v496h108v99h-343v-99h137v-496zM449 -171v-79h172q144 0 168 127l2 10h168v696h-99v-618h-66v192q-1 165 -154 166v-98q39 0 49 -21q7 -17 7 -50v-189h-508q-98 0 -127 -54q-10 -18 -10 -39v-28q1 -69 91 -89
q24 -5 47 -5h207v79h-206q-26 0 -37 14.5t-0.5 29t35.5 14.5h503q-16 -57 -71 -58h-171z" />
    <glyph glyph-name="tml_NyUu" horiz-adv-x="1364" 
d="M53 177q0 -96 67 -146q43 -30 98 -30v98q-42 0 -59 43q-7 18 -7 40q0 63 48 77q9 2 18 2v99q-30 0 -58 -11q17 106 92 138q26 10 55 10v99q-143 0 -212 -133q-42 -80 -42 -176v-66v-7v-37zM273 1q75 0 127 62q36 44 36 92v58q0 101 -86 134q-34 13 -77 13v-99
q63 -2 64 -79q1 -62 -41 -79q-12 -4 -23 -4v-98zM498 0h98v496h108v99h-342v-99h136v-496zM1143 -78h98v574h84v99h-246v-99h64v-574zM434 -171v-79h186q144 0 168 127l2 10h167v609h68v99h-166v-630h-66v192q-1 165 -154 166v-98q39 0 49 -21q7 -17 7 -50v-189h-513
q-100 0 -129 -56q-8 -17 -8 -37v-28q0 -69 90 -89q25 -5 48 -5h198v79h-197q-26 0 -37 14.5t-0.5 29t35.5 14.5h508q-16 -57 -71 -58h-185z" />
    <glyph glyph-name="tml_PI" horiz-adv-x="705" 
d="M289 1h193v594h-99q-19 40 0 76q17 31 55 32v98q-99 0 -146 -82q-38 -68 -18 -141q19 -69 80 -84q15 -4 29 -4v-391h-94v-98zM40 1h193v98h-95v496h-98v-594zM492 703q62 0 72 -68q3 -19 3 -45v-589h98v592q-2 207 -173 208v-98z" />
    <glyph glyph-name="tml_PIi" horiz-adv-x="720" 
d="M289 1h193v594h-13q-72 20 -93 86q-20 63 17 114q37 50 108 51q57 0 79 -39q6 -12 6 -22q0 -40 -31 -49q-7 -2 -13 -2q-34 0 -41 28q-1 4 -1 8l-63 -74q14 -27 56 -47q24 -11 47 -11q85 0 123 70q35 63 7 133q-31 78 -120 98q-26 6 -54 6q-120 0 -184 -92
q-55 -80 -36 -179q18 -101 107 -152v-423h-94v-98zM40 1h193v98h-95v496h-98v-594z" />
    <glyph glyph-name="tml_PU" horiz-adv-x="551" 
d="M298 0h103v-241h99v837h-99v-498h-103v-98zM50 0h194v98h-95v499h-99v-597z" />
    <glyph glyph-name="tml_PUu" horiz-adv-x="736" 
d="M350 1h93v-144h99v141h62v-205h-213v-99h208q54 0 85 43q17 24 17 50v239q0 52 -61 66q-18 4 -38 4h-60v499h-99v-496h-93v-98zM100 1h194v98h-96v496h-98v-594zM337 -207h-175q-34 0 -41 39q-2 9 -2 18q0 41 35 50q6 2 12 2q41 -4 42 -44h74v7q0 74 -60 102
q-25 12 -56 12q-70 0 -109 -45q-24 -29 -24 -65v-56q2 -118 130 -119h174v99z" />
    <glyph glyph-name="tml_RI" horiz-adv-x="748" 
d="M153 -177h117l151 177l2 497h112v98h-114q0 86 44 100q11 3 23 3v99q-163 -2 -166 -202h-62v-98h62v-468zM40 0h98v497h68v98h-166v-595zM542 698q55 0 65 -58q3 -20 3 -49v-590h98v593q-2 202 -166 203v-99z" />
    <glyph glyph-name="tml_RI.alt" horiz-adv-x="748" 
d="M543 699q54 0 64 -59q3 -20 3 -49v-591h98v594q-2 202 -165 203v-98zM324 0h98v497h114v98h-115q0 87 45 101q11 3 23 3v98q-164 -2 -167 -202h-63v-98h65v-497zM40 0h98v497h68v98h-166v-595z" />
    <glyph glyph-name="tml_RIi" horiz-adv-x="710" 
d="M153 -177h117l151 177l2 497h112v98h-113q-59 124 -8 197q32 45 85 46q66 0 78 -48q1 -6 1 -11q0 -38 -31 -48q-8 -2 -14 -2q-29 0 -39 24q-2 6 -2 11l-58 -68q12 -26 51 -44q24 -12 45 -12q86 0 123 70q33 63 6 130q-31 74 -116 88q-17 3 -34 3q-119 0 -178 -89
q-56 -83 -28 -193q7 -28 19 -53v-1h-62v-98h62v-468zM40 0h98v497h68v98h-166v-595z" />
    <glyph glyph-name="tml_RIi.alt" horiz-adv-x="711" 
d="M324 0h98v497h114v98h-113q-59 123 -8 196q33 45 86 46q65 0 77 -47q2 -7 2 -12q0 -38 -31 -48q-8 -2 -14 -2q-29 0 -40 25q-2 5 -2 10l-58 -68q12 -25 50 -44q25 -12 47 -12q86 0 123 70q33 63 5 130q-30 74 -115 88q-17 3 -34 3q-120 0 -179 -89q-56 -83 -28 -193
q7 -28 19 -53h-64v-98h65v-497zM40 0h98v497h68v98h-166v-595z" />
    <glyph glyph-name="tml_RU" horiz-adv-x="973" 
d="M44 41q0 -124 78 -188q51 -41 116 -41h259v98h-249q-80 0 -101 81q-5 23 -5 49v247q0 102 79 114q11 2 22 2v98q-100 0 -155 -67q-44 -54 -44 -142v-251zM552 -90v-98l181 -1q105 0 159 79q28 41 28 84v236q0 127 -114 147q-22 4 -49 4v-97q57 0 63 -61q1 -9 1 -18v-152
q0 -75 -41 -107q-21 -16 -48 -16h-180zM320 1h98v496h80v98h-178v-594zM602 1h99l2 496h112v98h-263v-98h50v-496z" />
    <glyph glyph-name="tml_RUu" horiz-adv-x="1110" 
d="M81 29q0 -118 74 -179q47 -39 108 -39h373v98h-362q-73 0 -90 77q-4 19 -4 42v214q0 71 25 85q11 6 28 6q37 0 45 -34q1 -7 1 -13q0 -33 -29 -43q-8 -2 -16 -2v-98q68 0 113 55q30 36 30 75v25q0 50 -41 92q-42 42 -102 42h-10q-109 0 -134 -103q-9 -38 -9 -95v-205z
M691 -91v-98h177q101 0 150 78q26 40 26 84v248q0 115 -98 135q-24 5 -54 5v-97q52 -2 53 -68v-162q-2 -124 -78 -125h-176zM455 1h98v496h84v98h-182v-594zM737 1h99l2 496h112v98h-259v-98h46v-496z" />
    <glyph glyph-name="tml_RVirama.alt" horiz-adv-x="575" 
d="M40 0h98v497h68v98h-166v-595zM195 727q0 -40 34 -58q15 -8 30 -8q38 0 57 36q7 14 7 30q0 40 -34 58q-15 8 -30 8q-39 0 -57 -36q-7 -14 -7 -30zM324 0h98v497h113v98h-276v-98h65v-497z" />
    <glyph glyph-name="tml_RrAa.alt" horiz-adv-x="957" 
d="M466 -197v98h-199q-111 2 -112 115v503h-98v-503q0 -126 87 -183q47 -30 107 -30h215zM518 -197h218q101 0 150 75q25 38 25 79v179q-1 58 -36 91q34 43 34 143v105q0 95 -102 122q-34 9 -76 9v-98q68 0 78 -45q2 -10 2 -20v-91q0 -56 -33 -71q-16 -6 -37 -6h-12v-103
q42 0 57 -8q25 -15 26 -53v-115q0 -73 -41 -89q-16 -6 -36 -6h-217v-98zM460 507q46 0 50 -41v-10l2 -455l99 1l-2 455q2 51 70 51v98q-84 -1 -119 -34q-35 34 -100 34v-99zM266 0l100 1l-2 462q7 40 43 44v99q-91 0 -127 -72q-14 -27 -14 -55v-479z" />
    <glyph glyph-name="tml_RrI" horiz-adv-x="879" 
d="M39 -295h99q0 95 50 109q12 3 28 3h271q130 1 168 134q14 50 14 113v411q0 56 -47 95q-4 4 -7 6v25q1 91 54 100q7 1 14 1v98q-161 -2 -167 -194v-98q53 -2 54 -48v-408q0 -119 -74 -134q-12 -3 -27 -3h-254q-140 0 -168 -127q-8 -37 -8 -83zM70 0l100 1l-2 462
q0 37 33 43q6 1 11 1v99q-92 0 -128 -72q-14 -28 -14 -55v-479zM265 507q49 -2 50 -52l2 -454h98l-2 455q1 51 52 52v98q-64 -1 -100 -34q-35 34 -100 34v-99zM737 702q57 0 67 -58q4 -20 4 -50v-574h98v577q-2 202 -169 203v-98z" />
    <glyph glyph-name="tml_RrIi" horiz-adv-x="831" 
d="M39 -295h99q0 95 50 109q12 3 28 3h271q130 1 168 134q14 50 14 113v411q0 56 -47 96q-6 4 -10 7q-61 145 -3 223q32 43 84 43q66 0 78 -48q1 -6 1 -11q0 -38 -31 -48q-8 -2 -14 -2q-29 0 -39 24q-2 6 -2 11l-58 -68q12 -26 51 -44q24 -12 45 -12q86 0 123 70
q33 63 6 130q-31 74 -116 88q-17 3 -34 3q-123 0 -181 -92q-60 -95 -21 -231q7 -22 15 -43v-63q53 -2 54 -48v-408q0 -119 -74 -134q-12 -3 -27 -3h-254q-140 0 -168 -127q-8 -37 -8 -83zM70 0l100 1l-2 462q0 37 33 43q6 1 11 1v99q-92 0 -128 -72q-14 -28 -14 -55v-479z
M265 507q49 -2 50 -52l2 -454h98l-2 455q1 51 52 52v98q-64 -1 -100 -34q-35 34 -100 34v-99z" />
    <glyph glyph-name="tml_RrU" horiz-adv-x="900" 
d="M51 -128v-29q1 -68 91 -88q24 -5 47 -5h141v78h-139q-26 0 -37.5 15t-1.5 29.5t36 14.5h385q-14 -58 -61 -59h-128v-78h129q138 0 158 130q1 4 1 7h166v696h-98v-619h-65v520q0 56 -50 93q-42 29 -103 29v-98q53 -2 54 -48v-496h-388q-100 0 -129 -55q-8 -17 -8 -37z
M272 507q48 -2 49 -44l2 -462h99l-3 463q5 41 52 44v98q-65 -1 -100 -33q-36 33 -99 33v-99zM76 0l100 1l-2 462q0 37 33 43q5 1 11 1v99q-92 0 -128 -70q-14 -28 -14 -57v-479z" />
    <glyph glyph-name="tml_RrUu" horiz-adv-x="1263" 
d="M58 -128v-29q1 -68 92 -88q24 -5 47 -5h140v78h-138q-26 0 -37.5 15t-1.5 29.5t36 14.5h384q-14 -58 -61 -59h-128v-78h129q138 0 158 130q1 4 1 7h166v611h73v98h-171v-632h-65v520q0 56 -50 93q-42 29 -103 29v-98q53 -2 54 -48v-496h-387q-102 0 -130 -56
q-8 -17 -8 -36zM279 507q48 -2 49 -44l3 -462h98l-3 463q7 40 52 44v98q-65 -1 -100 -33q-36 33 -99 33v-99zM83 0l101 1l-2 462q5 41 43 44v99q-90 0 -127 -69q-15 -28 -15 -58v-479zM1043 -84h98v582h84v98h-253v-98h71v-582z" />
    <glyph glyph-name="tml_SI" horiz-adv-x="1340" 
d="M697 507q50 0 61 -46q4 -21 5 -60v-251q0 -80 56 -122q39 -28 95 -28v100q-44 0 -51 39q-1 6 -1 12v252q-1 121 -49 166q-40 37 -116 37v-99zM968 0q110 0 150 90q16 36 16 78v258q0 128 -91 159q-31 10 -72 11v3q-16 49 12 83q24 29 68 29v98q-112 0 -165 -86
q-41 -67 -22 -140q17 -68 76 -83q10 -2 21 -3q61 0 71 -42q3 -13 3 -31v-256q0 -46 -37 -62q-14 -6 -30 -6v-100zM41 157q0 -58 50 -108q50 -49 115 -49v98q-42 0 -59 45q-7 18 -7 38q0 57 43 75q12 5 23 5v98q-26 0 -60 -11q10 96 75 138q32 21 68 21v98q-126 0 -198 -114
q-50 -80 -50 -172v-99v-7v-56zM261 0q82 0 131 68q30 43 29 90v58q0 55 -52 101q-48 42 -108 42v-98q58 -2 60 -79t-51 -83q-5 -1 -9 -1v-98zM343 507q72 0 111 -68q21 -39 22 -85v-354h102l-3 347q1 114 22 141q15 18 46 18v99q-93 -1 -134 -75q-64 74 -166 75v-98z
M1105 710q74 0 90 -77q3 -17 3 -35v-598h98v601q0 115 -71 171q-48 37 -120 37v-99z" />
    <glyph glyph-name="tml_SIi" horiz-adv-x="1306" 
d="M1035 570q-64 21 -76 87q-12 62 29 110q39 43 101 40q59 0 77 -41q5 -11 5 -20q0 -38 -29 -49q-7 -2 -14 -2q-34 0 -41 27q-1 4 -1 8l-62 -74q15 -28 56 -47q24 -10 45 -10q85 0 123 70q35 64 8 133q-30 78 -120 98q-26 6 -54 6q-123 0 -186 -96q-52 -79 -35 -171l4 -18
q27 -94 109 -138q45 -25 50 -50q1 -5 1 -10v-269q0 -48 -47 -54q-5 -1 -10 -1v-99q99 0 138 79q16 35 16 75v270q0 72 -17 99q-21 31 -70 47zM696 507q51 0 62 -47q4 -21 4 -59v-251q0 -80 56 -122q39 -28 95 -28v100q-42 0 -51 37q-1 7 -1 14v252q-1 121 -49 166
q-40 37 -116 37v-99zM40 157q0 -58 50 -108q50 -48 115 -49v98q-40 0 -58 42q-8 19 -8 41q0 57 43 75q12 5 23 5v98q-25 0 -59 -11q10 96 74 138q32 21 68 21v98q-125 0 -197 -114q-51 -80 -51 -172v-99v-7v-56zM260 0q83 0 131 68q29 43 29 90v58q0 55 -52 101
q-48 42 -108 42v-98q59 -2 60 -79q2 -77 -51 -83q-5 -1 -9 -1v-98zM342 507q74 0 112 -69q20 -39 21 -84v-15v-14l1 -325h101l-3 346q1 116 23 142q15 18 45 18v99q-93 -1 -134 -75q-64 74 -166 75v-98z" />
    <glyph glyph-name="tml_SU" horiz-adv-x="1525" 
d="M696 507q51 0 62 -47q4 -21 4 -59v-251q0 -80 56 -122q39 -28 95 -28v100q-42 0 -51 37q-1 7 -1 14v252q-1 121 -49 166q-40 37 -116 37v-99zM967 0q112 0 151 92q15 35 15 76v258q0 41 -9 71h162q88 0 98 -44q2 -7 2 -15q0 -28 -25 -40q-10 -4 -20 -4q-37 0 -45 34
q-1 6 -1 11h-99q0 -66 53 -112q37 -31 79 -31h24q52 0 94 44q39 42 39 99v9q0 137 -166 148q-15 1 -29 1h-330v-100q61 0 71 -42q3 -13 3 -31v-256q0 -46 -37 -62q-14 -6 -30 -6v-100zM40 157q0 -58 50 -108q50 -48 115 -49v98q-40 0 -58 42q-8 19 -8 41q0 57 43 75
q12 5 23 5v98q-25 0 -59 -11q10 96 74 138q32 21 68 21v98q-125 0 -197 -114q-51 -80 -51 -172v-99v-7v-56zM260 0q83 0 131 68q29 43 29 90v58q0 55 -52 101q-48 42 -108 42v-98q59 -2 60 -79q2 -77 -51 -83q-5 -1 -9 -1v-98zM342 507q74 0 112 -69q20 -39 21 -84v-15v-14
l1 -325h101l-3 346q1 116 23 142q15 18 45 18v99q-93 -1 -134 -75q-64 74 -166 75v-98z" />
    <glyph glyph-name="tml_SUu" horiz-adv-x="1674" 
d="M696 507q51 0 62 -47q4 -21 4 -59v-251q0 -80 56 -122q39 -28 95 -28v100q-42 0 -51 37q-1 7 -1 14v252q-1 121 -49 166q-40 37 -116 37v-99zM967 0q112 0 151 92q15 35 15 76v258q0 40 -9 72h161q86 0 97 -39q3 -8 3 -18q0 -28 -25 -39q-9 -4 -20 -4q-37 0 -45 32
q-2 7 -2 12h-98q0 -66 53 -112q37 -31 79 -31h24q52 0 94 44q38 42 38 99v9q0 120 -129 140q-28 5 -62 5q0 74 76 94q22 5 45 5q72 0 106 -41q16 -20 16 -46v-324q-2 -65 -68 -66h-59v-77h59q139 0 163 103q4 19 4 40v324q0 93 -79 146q-59 39 -142 39q-118 0 -179 -78
q-39 -51 -40 -119h-233h-1v-99q61 0 71 -42q3 -13 3 -31v-256q0 -46 -37 -62q-14 -6 -30 -6v-100zM40 157q0 -58 50 -108q50 -48 115 -49v98q-40 0 -58 42q-8 19 -8 41q0 57 43 75q12 5 23 5v98q-25 0 -59 -11q10 96 74 138q32 21 68 21v98q-125 0 -197 -114
q-51 -80 -51 -172v-99v-7v-56zM260 0q83 0 131 68q29 43 29 90v58q0 55 -52 101q-48 42 -108 42v-98q59 -2 60 -79q2 -77 -51 -83q-5 -1 -9 -1v-98zM342 507q74 0 112 -69q20 -39 21 -84v-15v-14l1 -325h101l-3 346q1 116 23 142q15 18 45 18v99q-93 -1 -134 -75
q-64 74 -166 75v-98z" />
    <glyph glyph-name="tml_ShI" horiz-adv-x="1098" 
d="M40 158q0 -83 49 -127q34 -31 86 -31h16v100q-52 2 -53 59v436h-98v-437zM245 0h20q85 0 120 86q14 35 14 70v341h124v-339q0 -85 50 -129q34 -29 84 -29h16v100q-51 2 -52 59v338h162v-339q0 -46 -40 -56q-8 -2 -16 -2v-100h20q83 0 119 82q16 37 16 74v439h-130
q3 102 75 104v98q-138 0 -167 -136q-7 -31 -7 -66h-352v-438q0 -44 -38 -55q-9 -2 -18 -2v-100zM881 699q77 -5 79 -108v-591h98v594q0 143 -95 187q-35 16 -82 16v-98z" />
    <glyph glyph-name="tml_ShIi" horiz-adv-x="1120" 
d="M901 846q58 0 78 -39q6 -11 6 -21q0 -40 -31 -49q-7 -2 -13 -2q-32 0 -40 27q-2 4 -2 9l-62 -75q15 -28 57 -47q24 -10 45 -10q85 0 123 70q35 63 7 133q-31 78 -120 98q-26 6 -54 6q-119 0 -183 -92q-55 -80 -38 -178q9 -45 32 -81h-405v-438q0 -44 -38 -55
q-9 -2 -18 -2v-100h20q85 0 120 86q14 35 14 70v341h124v-339q0 -85 50 -129q34 -29 84 -29h16v100q-51 2 -52 59v338h162v-339q0 -46 -40 -56q-8 -2 -16 -2v-100h20q83 0 119 82q16 37 16 74v439h-11q-73 21 -95 87q-21 62 16 113q38 50 109 51zM40 158q0 -83 49 -127
q34 -31 86 -31h16v100q-52 2 -53 59v436h-98v-437z" />
    <glyph glyph-name="tml_ShU" horiz-adv-x="1300" 
d="M40 158q0 -83 49 -127q34 -31 86 -31h16v100q-52 2 -53 59v436h-98v-437zM245 0h20q85 0 120 86q14 35 14 70v341h124v-339q0 -85 50 -129q34 -29 84 -29h16v100q-51 2 -52 59v338h162v-339q0 -46 -40 -56q-8 -2 -16 -2v-100h20q83 0 119 82q16 37 16 74v341h179
q91 0 100 -46q1 -7 1 -13q0 -29 -26 -40q-9 -4 -20 -4q-35 0 -44 33q-2 6 -2 12h-98q0 -67 52 -112q37 -31 79 -31h25q52 0 94 44q38 42 38 99v9q0 124 -138 143q-26 4 -57 4h-764v-438q0 -44 -38 -55q-9 -2 -18 -2v-100z" />
    <glyph glyph-name="tml_ShUu" horiz-adv-x="1438" 
d="M40 158q0 -83 49 -127q34 -31 86 -31h16v100q-52 2 -53 59v436h-98v-437zM245 0h20q85 0 120 86q14 35 14 70v341h124v-339q0 -85 50 -129q34 -29 84 -29h16v100q-51 2 -52 59v338h162v-339q0 -46 -40 -56q-8 -2 -16 -2v-100h20q83 0 119 82q16 37 16 74v341h167
q85 0 97 -38q3 -9 3 -19q0 -28 -25 -40q-10 -4 -20 -4q-37 0 -45 33q-2 7 -2 12h-98q0 -66 53 -112q37 -31 79 -31h24q52 0 94 44q38 42 38 99v9q0 119 -125 140q-29 5 -65 5q0 73 75 93q22 6 45 6q72 0 106 -41q16 -20 16 -46v-324q-2 -65 -68 -66h-59v-77h59
q139 0 163 103q4 19 4 40v324q0 93 -79 146q-59 39 -142 39q-115 0 -177 -76q-40 -52 -42 -121h-657v-438q0 -44 -38 -55q-9 -2 -18 -2v-100z" />
    <glyph glyph-name="tml_Shree" horiz-adv-x="1191" 
d="M40 -297h98q0 92 39 106q10 4 23 4h650q108 2 156 98q26 52 26 116l-1 447q0 64 -58 101q-31 19 -73 26q-56 119 -5 191q32 45 85 46q66 0 78 -48q1 -6 1 -11q0 -38 -31 -48q-8 -2 -14 -2q-29 0 -39 24q-2 6 -2 11l-58 -68q12 -26 51 -44q24 -12 45 -12q86 0 123 70
q33 63 6 130q-31 74 -116 88q-17 3 -34 3q-119 0 -178 -88q-56 -83 -28 -193q6 -26 17 -50q-47 -7 -74 -29q-35 34 -100 34v-99q50 -2 51 -49v-457l99 1l-2 448q0 48 57 56q9 1 19 1q80 -2 81 -56l2 -421q-2 -117 -103 -118h-611q-124 0 -160 -83q-20 -47 -20 -125zM79 1
h194v98h-95v496h-99v-594zM329 1h202v460q2 44 42 45v99q-91 0 -128 -71q-14 -28 -14 -56v-379h-102v-98z" />
    <glyph glyph-name="tml_SsI" horiz-adv-x="1394" 
d="M340 507q83 0 124 -68q23 -38 24 -85v-228q0 -23 -32 -26q-6 -1 -13 -1v-99h393v99h-250v256q-1 98 -65 171q-69 79 -181 79v-98zM40 157q0 -57 49 -107q51 -49 117 -50v98q-43 0 -59 44q-7 18 -7 39q0 65 48 78q9 2 18 2v98q-30 0 -58 -11q6 96 71 138q33 21 71 21v98
q-159 0 -221 -145q-29 -69 -29 -156v-84v-7v-56zM261 0q82 0 131 68q30 43 29 90v58q0 55 -52 101q-48 42 -108 42v-98q49 0 59 -55q2 -12 2 -25q0 -73 -51 -82q-5 -1 -10 -1v-98zM1113 729q142 -1 143 -125v-604h98v605q0 125 -88 183q-60 39 -153 39v-98zM1112 0h82v256
h-136v157q-1 168 -132 199q6 116 133 117v98q-168 0 -217 -130q-13 -37 -15 -80q-118 -15 -150 -115q-10 -31 -10 -69v-99q0 -142 102 -169q29 -7 67 -7v97q-47 0 -60 25q-10 19 -10 53v90q0 72 59 83q16 3 38 3q64 0 83 -30q14 -24 14 -66v-157h-71v-98h71v-10h98v10h54
v-59h-54v12h-98v-12h-71v-98h71v-179h98v178h54z" />
    <glyph glyph-name="tml_SsIi" horiz-adv-x="1234" 
d="M340 507q83 0 124 -68q23 -38 24 -85v-228q0 -23 -32 -26q-6 -1 -13 -1v-99h393v99h-250v256q-1 98 -65 171q-69 79 -181 79v-98zM40 157q0 -57 49 -107q51 -49 117 -50v98q-43 0 -59 44q-7 18 -7 39q0 65 48 78q9 2 18 2v98q-30 0 -58 -11q6 96 71 138q33 21 71 21v98
q-159 0 -221 -145q-29 -69 -29 -156v-84v-7v-56zM261 0q82 0 131 68q30 43 29 90v58q0 55 -52 101q-48 42 -108 42v-98q49 0 59 -55q2 -12 2 -25q0 -73 -51 -82q-5 -1 -10 -1v-98zM1112 0h82v256h-136v157q-1 179 -150 203q-52 119 0 189q32 41 82 42q66 0 78 -48
q1 -6 1 -11q0 -38 -31 -48q-8 -2 -14 -2q-29 0 -39 24q-2 6 -2 11l-58 -68q12 -26 51 -44q24 -12 45 -12q86 0 123 70q33 63 6 130q-31 74 -116 88q-17 3 -34 3q-120 0 -179 -89q-56 -84 -26 -195q5 -21 14 -42q-112 -23 -136 -126q-6 -26 -6 -55v-99q0 -142 102 -169
q29 -7 67 -7v97q-47 0 -60 25q-10 19 -10 53v90q0 72 59 83q16 3 38 3q64 0 83 -30q14 -24 14 -66v-157h-71v-98h71v-10h98v10h54v-59h-54v12h-98v-12h-71v-98h71v-179h98v178h54z" />
    <glyph glyph-name="tml_SsU" horiz-adv-x="1477" 
d="M261 0q82 0 131 68q30 43 29 90v58q0 55 -52 101q-48 42 -108 42v-98q49 0 59 -55q2 -12 2 -25q0 -73 -51 -82q-5 -1 -10 -1v-98zM40 157q0 -57 49 -107q51 -49 117 -50v98q-43 0 -59 44q-7 18 -7 39q0 65 48 78q9 2 18 2v98q-30 0 -58 -11q6 96 71 138q33 21 71 21v98
q-159 0 -221 -145q-29 -69 -29 -156v-84v-7v-56zM340 507q83 0 124 -68q23 -38 24 -85v-228q0 -23 -32 -26q-6 -1 -13 -1v-99h393v99h-250v256q-1 98 -65 171q-69 79 -181 79v-98zM667 334q0 -142 102 -169q29 -7 67 -7v97q-47 0 -60 25q-10 19 -10 53v94q0 73 51 81
q9 1 19 1v98q-135 0 -162 -106q-7 -31 -7 -68v-99zM1112 0h82v256h-136v157q0 56 -14 96h194q90 -1 100 -46q1 -7 1 -14q0 -29 -26 -40q-9 -4 -20 -4q-35 0 -44 33q-2 6 -2 12h-98q0 -66 53 -112q37 -31 79 -31h24q52 0 94 44q38 42 38 99v9q0 130 -150 146q-22 2 -45 2
h-342h-11v-98q41 0 54 -17q17 -22 17 -79v-157h-71v-98h71v-10h98v10h54v-59h-54v12h-98v-12h-71v-98h71v-179h98v178h54z" />
    <glyph glyph-name="tml_SsUu" horiz-adv-x="1612" 
d="M340 507q83 0 124 -68q23 -38 24 -85v-228q0 -23 -32 -26q-6 -1 -13 -1v-99h393v99h-250v256q-1 98 -65 171q-69 79 -181 79v-98zM667 334q0 -142 102 -169q29 -7 67 -7v97q-47 0 -60 25q-10 19 -10 53v94q0 73 51 81q9 1 19 1v98q-135 0 -162 -106q-7 -31 -7 -68v-99z
M40 157q0 -57 49 -107q51 -49 117 -50v98q-43 0 -59 44q-7 18 -7 39q0 65 48 78q9 2 18 2v98q-30 0 -58 -11q6 96 71 138q33 21 71 21v98q-159 0 -221 -145q-29 -69 -29 -156v-84v-7v-56zM261 0q82 0 131 68q30 43 29 90v58q0 55 -52 101q-48 42 -108 42v-98q49 0 59 -55
q2 -12 2 -25q0 -73 -51 -82q-5 -1 -10 -1v-98zM1112 0h82v256h-136v157q0 57 -14 97h179q87 0 99 -39q2 -8 2 -18q0 -29 -26 -40q-9 -4 -20 -4q-35 0 -44 33q-2 6 -2 12h-98q0 -67 52 -112q37 -31 79 -31h25q52 0 94 44q38 42 38 99v9q0 120 -129 140q-28 5 -62 5
q0 73 75 93q22 6 45 6q74 0 107 -42q15 -20 15 -45v-324q-2 -65 -68 -66h-59v-77h59q145 0 164 110q3 16 3 33v324q0 93 -79 146q-59 39 -142 39q-117 0 -178 -78q-39 -51 -40 -119h-243v-1h-1v-98q41 0 54 -17q17 -22 17 -79v-157h-71v-98h71v-10h98v10h54v-59h-54v12h-98
v-12h-71v-98h71v-179h98v178h54z" />
    <glyph glyph-name="tml_TI" horiz-adv-x="924" 
d="M57 -292h102q0 87 30 103q12 5 28 5h304q138 0 178 110q12 34 12 72v153h-98l-1 -152q-9 -81 -92 -85h-289q-131 0 -163 -111q-11 -40 -11 -95zM40 159q0 -113 120 -145q44 -12 99 -12v99q-74 0 -95 13q-21 14 -25 45h-99zM40 210h97q0 55 58 64q17 2 40 2l186 -1v-85
q-2 -88 -109 -89v-99q159 0 197 121q10 33 10 71v81h35q51 0 58 -56q1 -7 1 -14h98q0 133 -92 160q-31 9 -77 9h-23v123h132v98h-131q0 80 50 98q20 8 49 8v98q-195 -2 -198 -204h-51v-98h51v-123h-157v123h52v98h-151v-230q-98 -24 -120 -110q-5 -22 -5 -45zM673 701
q112 -1 113 -110v-590h98v593q0 148 -116 190q-42 15 -95 15v-98z" />
    </font>
</defs>
</svg>
